<?xml version="1.0" encoding="UTF-8"?>
<svg width="120px" height="120px" viewBox="0 0 120 120" version="1.1" xmlns="http://www.w3.org/2000/svg" xmlns:xlink="http://www.w3.org/1999/xlink">
    <title>icon-level/2</title>
    <g id="icon-level/2" stroke="none" stroke-width="1" fill="none" fill-rule="evenodd">
        <path d="M60.244,12 C86.847,12 108.489,33.642 108.489,60.244 C108.489,86.846 86.847,108.489 60.244,108.489 C33.642,108.489 12,86.846 12,60.244 C12,33.642 33.642,12 60.244,12 Z M60.244,17 C36.399,17 17,36.399 17,60.244 C17,84.09 36.399,103.489 60.244,103.489 C84.09,103.489 103.489,84.09 103.489,60.244 C103.489,36.399 84.09,17 60.244,17 Z M86.195,68.1007 C86.64,66.7937 88.061,66.0957 89.369,66.5417 C90.676,66.9877 91.373,68.4087 90.928,69.7147 C86.448,82.8447 74.117,91.6657 60.244,91.6657 C46.372,91.6657 34.041,82.8447 29.56,69.7157 C29.115,68.4087 29.812,66.9877 31.119,66.5417 C32.426,66.0957 33.847,66.7937 34.293,68.1007 C38.082,79.2047 48.512,86.6657 60.244,86.6657 C71.977,86.6657 82.407,79.2047 86.195,68.1007 Z M37.8603,47.5512 C40.7983,47.5512 43.1793,49.9322 43.1793,52.8702 C43.1793,55.8082 40.7983,58.1892 37.8603,58.1892 C34.9223,58.1892 32.5423,55.8082 32.5423,52.8702 C32.5423,49.9322 34.9223,47.5512 37.8603,47.5512 Z M82.6278,47.5512 C85.5658,47.5512 87.9458,49.9322 87.9458,52.8702 C87.9458,55.8082 85.5658,58.1892 82.6278,58.1892 C79.6898,58.1892 77.3088,55.8082 77.3088,52.8702 C77.3088,49.9322 79.6898,47.5512 82.6278,47.5512 Z" id="2" fill="#000000"></path>
    </g>
</svg>