<?xml version="1.0" encoding="UTF-8"?>
<svg viewBox="0 0 24 24" version="1.1" xmlns="http://www.w3.org/2000/svg" xmlns:xlink="http://www.w3.org/1999/xlink">
    <title>Weather / Weather / weather-thunder</title>
    <g id="Weather-/-Weather-/-weather-thunder" stroke="none" stroke-width="1" fill="none" fill-rule="evenodd">
        <path d="M10.3535534,18.1464466 C10.5271197,18.320013 10.5464049,18.5894374 10.4114088,18.7843055 L10.3535534,18.8535534 L8.706,20.5 L10,20.5 C10.4157556,20.5 10.6378031,20.9691551 10.4094692,21.2878015 L10.3535534,21.3535534 L7.85355339,23.8535534 C7.65829124,24.0488155 7.34170876,24.0488155 7.14644661,23.8535534 C6.97288026,23.679987 6.95359511,23.4105626 7.08859116,23.2156945 L7.14644661,23.1464466 L8.792,21.5 L7.5,21.5 C7.0842444,21.5 6.86219694,21.0308449 7.09053079,20.7121985 L7.14644661,20.6464466 L9.64644661,18.1464466 C9.84170876,17.9511845 10.1582912,17.9511845 10.3535534,18.1464466 Z M15.3535534,18.1464466 C15.5271197,18.320013 15.5464049,18.5894374 15.4114088,18.7843055 L15.3535534,18.8535534 L13.706,20.5 L15,20.5 C15.4157556,20.5 15.6378031,20.9691551 15.4094692,21.2878015 L15.3535534,21.3535534 L12.8535534,23.8535534 C12.6582912,24.0488155 12.3417088,24.0488155 12.1464466,23.8535534 C11.9728803,23.679987 11.9535951,23.4105626 12.0885912,23.2156945 L12.1464466,23.1464466 L13.792,21.5 L12.5,21.5 C12.0842444,21.5 11.8621969,21.0308449 12.0905308,20.7121985 L12.1464466,20.6464466 L14.6464466,18.1464466 C14.8417088,17.9511845 15.1582912,17.9511845 15.3535534,18.1464466 Z M20.3535534,18.1464466 C20.5271197,18.320013 20.5464049,18.5894374 20.4114088,18.7843055 L20.3535534,18.8535534 L18.706,20.5 L20,20.5 C20.4157556,20.5 20.6378031,20.9691551 20.4094692,21.2878015 L20.3535534,21.3535534 L17.8535534,23.8535534 C17.6582912,24.0488155 17.3417088,24.0488155 17.1464466,23.8535534 C16.9728803,23.679987 16.9535951,23.4105626 17.0885912,23.2156945 L17.1464466,23.1464466 L18.792,21.5 L17.5,21.5 C17.0842444,21.5 16.8621969,21.0308449 17.0905308,20.7121985 L17.1464466,20.6464466 L19.6464466,18.1464466 C19.8417088,17.9511845 20.1582912,17.9511845 20.3535534,18.1464466 Z M18.8939438,8.38323913 L18.949,8.504 L19.0059042,8.50205307 C20.0244356,8.50393013 20.9970953,8.95077735 21.6623798,9.73137785 L21.8001407,9.90371732 C22.4644688,10.7905517 22.6646458,11.9314521 22.3598099,12.9792971 L22.347,13.016 L22.4105308,13.0676298 C23.3098249,13.829794 23.8769985,14.918006 23.9827655,16.0982983 L23.9977285,16.3355152 C24.0501344,17.7653511 23.4194569,19.1348954 22.2989065,20.0245829 C22.0826413,20.1962918 21.768126,20.1601718 21.5964171,19.9439065 C21.4247082,19.7276413 21.4608282,19.413126 21.6770935,19.2414171 C22.5486327,18.549438 23.0391596,17.4842368 22.9983995,16.3721423 C22.9576394,15.2600477 22.3904506,14.2336137 21.4705935,13.6072921 C21.2723128,13.4722848 21.1978515,13.2154857 21.2931553,12.9953507 C21.6495339,12.1721791 21.5375847,11.22117 20.9997953,10.5032565 C20.4620059,9.78534292 19.5808141,9.4105739 18.6906553,9.52118406 C18.4632329,9.54944332 18.245713,9.41947505 18.1628385,9.20581329 C17.3227065,7.0398375 15.1013558,5.73788241 12.8010444,6.06321402 C10.5007331,6.38854563 8.72755148,8.25544493 8.52102031,10.5694497 C8.49963805,10.8090195 8.31071312,10.9994176 8.07131653,11.02266 C6.1347334,11.2106779 4.53832572,12.6220251 4.11431744,14.5209516 C3.69030916,16.4198782 4.53474692,18.3762378 6.20741653,19.37016 C6.44481059,19.5112227 6.52290262,19.8180225 6.38183996,20.0554165 C6.24077731,20.2928106 5.93397752,20.3709026 5.69658347,20.22984 C3.65220949,19.0150462 2.62011889,16.6239399 3.13835124,14.3030297 C3.62203476,12.1368468 5.35396179,10.4897855 7.50714146,10.0929692 L7.574,10.081 L7.58797717,9.99636261 C8.01166988,7.52626399 9.93721818,5.56641203 12.4191196,5.11228177 L12.6610086,5.07306758 C15.2540869,4.70633013 17.7635495,6.06281308 18.8939438,8.38323913 Z M10.3492978,4.01357781 C10.5627129,4.18881655 10.5936609,4.50388272 10.4184222,4.7172978 C10.2431834,4.93071288 9.92811728,4.96166092 9.7147022,4.78642219 C8.37251165,3.68432679 6.42517115,3.73311832 5.13985712,4.90104706 C3.85454309,6.06897581 3.62004346,8.0027611 4.5889522,9.44404719 C4.74301358,9.67321896 4.68212459,9.98389081 4.45295281,10.1379522 C4.22378104,10.2920136 3.91310919,10.2311246 3.7590478,10.0019528 C2.513308,8.14887071 2.81480752,5.66257533 4.46735413,4.16095266 C6.11990075,2.65932999 8.62362424,2.59659803 10.3492978,4.01357781 Z M1.5,6 C1.77614237,6 2,6.22385763 2,6.5 C2,6.74545989 1.82312484,6.94960837 1.58987563,6.99194433 L1.5,7 L0.5,7 C0.223857625,7 0,6.77614237 0,6.5 C0,6.25454011 0.176875161,6.05039163 0.410124368,6.00805567 L0.5,6 L1.5,6 Z M2.50857036,1.81177431 L2.57778098,1.86967434 L3.35378098,2.64667434 C3.54891735,2.84206218 3.5487135,3.1586446 3.35332566,3.35378098 C3.17964758,3.52723553 2.91021082,3.54634719 2.71542964,3.41122569 L2.64621902,3.35332566 L1.87021902,2.57632566 C1.67508265,2.38093782 1.6752865,2.0643554 1.87067434,1.86921902 C2.04435242,1.69576447 2.31378918,1.67665281 2.50857036,1.81177431 Z M13.1293257,1.86921902 C13.3030037,2.04267358 13.3224624,2.31208551 13.1875918,2.50704053 L13.129781,2.57632566 L12.353781,3.35332566 C12.1586446,3.5487135 11.8420622,3.54891735 11.6466743,3.35378098 C11.4729963,3.18032642 11.4535376,2.91091449 11.5884082,2.71595947 L11.646219,2.64667434 L12.422219,1.86967434 C12.6173554,1.6742865 12.9339378,1.67408265 13.1293257,1.86921902 Z M7.5,0 C7.74545989,0 7.94960837,0.176875161 7.99194433,0.410124368 L8,0.5 L8,1.5 C8,1.77614237 7.77614237,2 7.5,2 C7.25454011,2 7.05039163,1.82312484 7.00805567,1.58987563 L7,1.5 L7,0.5 C7,0.223857625 7.22385763,0 7.5,0 Z" id="Combined-Shape" fill="#000000" fill-rule="nonzero"></path>
    </g>
</svg>