<?xml version="1.0" encoding="UTF-8"?>
<svg viewBox="0 0 24 24" version="1.1" xmlns="http://www.w3.org/2000/svg" xmlns:xlink="http://www.w3.org/1999/xlink">
    <title>Weather / Weather / weather-night-rain</title>
    <g id="Weather-/-Weather-/-weather-night-rain" stroke="none" stroke-width="1" fill="none" fill-rule="evenodd">
        <path d="M7.35355339,18.1464466 C7.52711974,18.320013 7.54640489,18.5894374 7.41140884,18.7843055 L7.35355339,18.8535534 L2.35355339,23.8535534 C2.15829124,24.0488155 1.84170876,24.0488155 1.64644661,23.8535534 C1.47288026,23.679987 1.45359511,23.4105626 1.58859116,23.2156945 L1.64644661,23.1464466 L6.64644661,18.1464466 C6.84170876,17.9511845 7.15829124,17.9511845 7.35355339,18.1464466 Z M12.3535534,18.1464466 C12.5271197,18.320013 12.5464049,18.5894374 12.4114088,18.7843055 L12.3535534,18.8535534 L7.35355339,23.8535534 C7.15829124,24.0488155 6.84170876,24.0488155 6.64644661,23.8535534 C6.47288026,23.679987 6.45359511,23.4105626 6.58859116,23.2156945 L6.64644661,23.1464466 L11.6464466,18.1464466 C11.8417088,17.9511845 12.1582912,17.9511845 12.3535534,18.1464466 Z M17.3535534,18.1464466 C17.5271197,18.320013 17.5464049,18.5894374 17.4114088,18.7843055 L17.3535534,18.8535534 L12.3535534,23.8535534 C12.1582912,24.0488155 11.8417088,24.0488155 11.6464466,23.8535534 C11.4728803,23.679987 11.4535951,23.4105626 11.5885912,23.2156945 L11.6464466,23.1464466 L16.6464466,18.1464466 C16.8417088,17.9511845 17.1582912,17.9511845 17.3535534,18.1464466 Z M15.8939438,8.38323913 L15.949,8.504 L16.0059042,8.50205307 C17.0244356,8.50393013 17.9970953,8.95077735 18.6623798,9.73137785 L18.8001407,9.90371732 C19.4644688,10.7905517 19.6646458,11.9314521 19.3598099,12.9792971 L19.347,13.016 L19.4105308,13.0676298 C20.3098249,13.829794 20.8769985,14.918006 20.9827655,16.0982983 L20.9977285,16.3355152 C21.0501344,17.7653511 20.4194569,19.1348954 19.2989065,20.0245829 C19.0826413,20.1962918 18.768126,20.1601718 18.5964171,19.9439065 C18.4247082,19.7276413 18.4608282,19.413126 18.6770935,19.2414171 C19.5486327,18.549438 20.0391596,17.4842368 19.9983995,16.3721423 C19.9576394,15.2600477 19.3904506,14.2336137 18.4705935,13.6072921 C18.2723128,13.4722848 18.1978515,13.2154857 18.2931553,12.9953507 C18.6495339,12.1721791 18.5375847,11.22117 17.9997953,10.5032565 C17.4620059,9.78534292 16.5808141,9.4105739 15.6906553,9.52118406 C15.4632329,9.54944332 15.245713,9.41947505 15.1628385,9.20581329 C14.3227065,7.0398375 12.1013558,5.73788241 9.80104441,6.06321402 C7.50073306,6.38854563 5.72755148,8.25544493 5.52102031,10.5694497 C5.49961505,10.8092772 5.31031885,10.9997877 5.07063303,11.0227259 C3.21929598,11.1999013 1.66768452,12.4977076 1.16608745,14.2885846 C0.66449038,16.0794616 1.31626115,17.9944013 2.80623303,19.1074259 C3.02746399,19.2726878 3.07283592,19.5860021 2.90757408,19.807233 C2.74231224,20.028464 2.42899792,20.0738359 2.20776697,19.9085741 C0.38669022,18.5482107 -0.4099185,16.2077288 0.203144588,14.0188791 C0.773927463,11.9809846 2.45715127,10.4654754 4.51274065,10.0913688 L4.574,10.081 L4.58797717,9.99636261 C5.01166988,7.52626399 6.93721818,5.56641203 9.41911955,5.11228177 L9.66100862,5.07306758 C12.2540869,4.70633013 14.7635495,6.06281308 15.8939438,8.38323913 Z M23.7151079,0.614636963 C24.0953328,0.795842281 24.0948585,1.33720051 23.7143166,1.51773928 C21.8624438,2.39631501 20.6820735,4.2627858 20.6820735,6.3125 C20.6820735,8.3622142 21.8624438,10.228685 23.7143166,11.1072607 C24.0947878,11.287766 24.0953528,11.8289917 23.7152593,12.0102909 C22.8672603,12.4147742 21.9396389,12.6247877 21.000113,12.625 C20.7239706,12.625 20.5000624,12.4012553 20.5,12.125113 C20.4999376,11.8489706 20.7237447,11.6250624 20.999887,11.625 C21.3952026,11.6249107 21.7880137,11.5806833 22.1711971,11.4939306 L22.334,11.451 L22.221595,11.3708745 C20.7086228,10.2442374 19.7632104,8.48281927 19.6870527,6.56367802 L19.6820735,6.3125 C19.6820735,4.29654749 20.6428414,2.42974681 22.221595,1.25412555 L22.334,1.173 L22.2230685,1.14368952 C21.1343833,0.886567958 19.9838881,0.979018619 18.9405598,1.42028856 L18.6820582,1.53787268 C17.2309754,2.2453578 16.1814579,3.5756334 15.8310818,5.15151821 C15.7711488,5.42107832 15.5040419,5.59101471 15.2344818,5.53108175 C14.9649217,5.4711488 14.7949853,5.2040419 14.8549182,4.93448179 C15.2714031,3.06126023 16.5189428,1.47998923 18.2438148,0.639016351 C19.9686867,-0.201956526 21.9828101,-0.210931204 23.7151079,0.614636963 Z" id="Combined-Shape" fill="#000000" fill-rule="nonzero"></path>
    </g>
</svg>