<?xml version="1.0" encoding="UTF-8"?>
<svg width="24px" height="24px" viewBox="0 0 24 24" version="1.1" xmlns="http://www.w3.org/2000/svg" xmlns:xlink="http://www.w3.org/1999/xlink">
    <title>Weather / Weather / weather-cloud-thunder-rain</title>
    <g id="Weather-/-Weather-/-weather-cloud-thunder-rain" stroke="none" stroke-width="1" fill="none" fill-rule="evenodd">
        <path d="M2.25,21.58 C2.65569333,21.58 2.99325557,21.9002036 2.9999002,22.3077477 C2.99994976,22.3117378 3,22.315863 3,22.32 C3,22.6989136 2.71409571,23.0049578 2.35083296,23.0533338 L2.25,23.06 L2.25,23.06 C1.84024973,23.06 1.5,22.7333603 1.5,22.32 L1.501,22.3070603 L1.50693185,22.2186055 C1.55719093,21.8544681 1.87439559,21.58 2.25,21.58 Z M15.25,21.58 C15.6556933,21.58 15.9932556,21.9002036 15.9999002,22.3077477 C15.9999498,22.3117378 16,22.315863 16,22.32 C16,22.6989136 15.7140957,23.0049578 15.350833,23.0533338 L15.25,23.06 L15.25,23.06 C14.8402497,23.06 14.5,22.7333603 14.5,22.32 L14.501,22.3070603 L14.5069319,22.2186055 C14.5571909,21.8544681 14.8743956,21.58 15.25,21.58 Z M12.8606937,17.4137341 C13.0306824,17.5908057 13.0444663,17.8605675 12.9055222,18.0526407 L12.8462659,18.1206937 L11.242,19.66 L12.5,19.66 C12.9203626,19.66 13.1407124,20.1380529 12.9040647,20.4553864 L12.8462659,20.5206937 L10.3462659,22.9206937 C10.1470603,23.111931 9.83054372,23.1054715 9.63930634,22.9062659 C9.46931755,22.7291943 9.45553373,22.4594325 9.59447775,22.2673593 L9.65373409,22.1993063 L11.256,20.66 L10,20.66 C9.57963735,20.66 9.35928756,20.1819471 9.59593534,19.8646136 L9.65373409,19.7993063 L12.1537341,17.3993063 C12.3529397,17.208069 12.6694563,17.2145285 12.8606937,17.4137341 Z M7.36074689,17.4147495 C7.53070845,17.5918473 7.5444508,17.8616112 7.40547725,18.053663 L7.34621046,18.1217069 L4.09621046,21.2407469 C3.89697545,21.4319536 3.58045986,21.4254455 3.38925311,21.2262105 C3.21929155,21.0491127 3.2055492,20.7793488 3.34452275,20.587297 L3.40378954,20.5192531 L6.65378954,17.4002131 C6.85302455,17.2090064 7.16954014,17.2155145 7.36074689,17.4147495 Z M20.3607469,17.4147495 C20.5307085,17.5918473 20.5444508,17.8616112 20.4054773,18.053663 L20.3462105,18.1217069 L17.0962105,21.2407469 C16.8969755,21.4319536 16.5804599,21.4254455 16.3892531,21.2262105 C16.2192915,21.0491127 16.2055492,20.7793488 16.3445227,20.587297 L16.4037895,20.5192531 L19.6537895,17.4002131 C19.8530245,17.2090064 20.1695401,17.2155145 20.3607469,17.4147495 Z M12.1637576,0.0499609406 C14.7510872,-0.301326502 17.258518,0.999997216 18.3909309,3.23304764 L18.3909309,3.23304764 L18.443,3.343 L18.506448,3.34197837 C19.5207713,3.34395577 20.4906672,3.77200159 21.1562801,4.52212274 L21.1562801,4.52212274 L21.2941593,4.68775482 C21.9640836,5.54628755 22.1663428,6.6540074 21.85832,7.67075155 L21.85832,7.67075155 L21.853,7.686 L22.0439567,7.84674059 C23.2511007,8.92448029 23.7657302,10.5644149 23.3494779,12.1219348 L23.3494779,12.1219348 L23.2897625,12.3249519 C22.7061729,14.1410248 20.966969,15.3759801 19,15.38 L19,15.38 L7.99789791,15.38 C5.07629289,15.3677125 2.66871505,13.1546401 2.52822285,10.334193 C2.39505402,7.66076592 4.34352077,5.34277018 7.02212447,4.86809122 L7.02212447,4.86809122 L7.077,4.859 L7.09089311,4.77675087 C7.52056223,2.40359454 9.44332558,0.526293355 11.9148146,0.0888688395 L11.9148146,0.0888688395 Z M17.66541,4.05130817 C16.8279847,1.97867045 14.6047263,0.727720192 12.2982954,1.0408694 C9.99533401,1.35354755 8.22618958,3.14169037 8.02085298,5.35028617 C7.99863743,5.58923612 7.80978887,5.77870281 7.57091279,5.80169907 C5.18588497,6.03130233 3.41343135,8.00480882 3.52698454,10.2844427 C3.64061264,12.5655803 5.60353487,14.3699203 8,14.380001 L8,14.380001 L18.9989779,14.380001 C20.536608,14.3768578 21.8884973,13.4169227 22.3377114,12.0190131 C22.7847465,10.6278841 22.2365741,9.11714385 20.9761175,8.28323985 C20.7715883,8.1479256 20.6953871,7.88424639 20.7962053,7.66068913 C21.1473441,6.88206312 21.0372238,5.98400912 20.5057767,5.30294004 C19.9689327,4.61495454 19.0839533,4.25362987 18.1882244,4.36048008 C17.9641524,4.38720931 17.7499462,4.26053619 17.66541,4.05130817 Z" id="Combined-Shape" fill="#000000" fill-rule="nonzero"></path>
    </g>
</svg>