<?xml version="1.0" encoding="UTF-8"?>
<svg viewBox="0 0 24 24" version="1.1" xmlns="http://www.w3.org/2000/svg" xmlns:xlink="http://www.w3.org/1999/xlink">
    <title>Weather / Weather / weather-night-windy</title>
    <g id="Weather-/-Weather-/-weather-night-windy" stroke="none" stroke-width="1" fill="none" fill-rule="evenodd">
        <path d="M18.5,22.06 C18.7761424,22.06 19,22.2838576 19,22.56 C19,22.8054599 18.8231248,23.0096084 18.5898756,23.0519443 L18.5,23.06 L0.5,23.06 C0.223857625,23.06 0,22.8361424 0,22.56 C0,22.3145401 0.176875161,22.1103916 0.410124368,22.0680557 L0.5,22.06 L18.5,22.06 Z M23.5,20.14 C23.7761424,20.14 24,20.3638576 24,20.64 C24,20.8854599 23.8231248,21.0896084 23.5898756,21.1319443 L23.5,21.14 L3.5,21.14 C3.22385763,21.14 3,20.9161424 3,20.64 C3,20.3945401 3.17687516,20.1903916 3.41012437,20.1480557 L3.5,20.14 L23.5,20.14 Z M18.5,18.22 C18.7761424,18.22 19,18.4438576 19,18.72 C19,18.9654599 18.8231248,19.1696084 18.5898756,19.2119443 L18.5,19.22 L0.5,19.22 C0.223857625,19.22 0,18.9961424 0,18.72 C0,18.4745401 0.176875161,18.2703916 0.410124368,18.2280557 L0.5,18.22 L18.5,18.22 Z M15.8909309,8.03304764 L15.943,8.143 L16.006448,8.14197837 C17.0207713,8.14395577 17.9906672,8.57200159 18.6562801,9.32212274 L18.7941593,9.48775482 C19.419422,10.289052 19.6372964,11.3074189 19.4131334,12.2662905 L19.354,12.481 L19.3736504,12.4950017 C20.664995,13.5098708 21.2615108,15.1502126 20.893095,16.7321594 L20.8395464,16.9381129 C20.7632687,17.2035114 20.4862855,17.356824 20.2208871,17.2805464 C19.9554886,17.2042687 19.802176,16.9272855 19.8784536,16.6618871 C20.2669934,15.3100126 19.7071,13.8697731 18.4828062,13.0875886 C18.2735959,12.9539271 18.1941441,12.6870028 18.2962053,12.4606891 C18.6473441,11.6820631 18.5372238,10.7840091 18.0057767,10.10294 C17.4689327,9.41495454 16.5839533,9.05362987 15.6882244,9.16048008 C15.4641524,9.18720931 15.2499462,9.06053619 15.16541,8.85130817 C14.3279847,6.77867045 12.1047263,5.52772019 9.79829543,5.8408694 C7.49533401,6.15354755 5.72618958,7.94169037 5.52085298,10.1502862 C5.49853528,10.3903349 5.30810198,10.5802755 5.06799624,10.6019712 C3.62858842,10.7320348 2.34436454,11.5162915 1.61542322,12.7064869 C0.89002829,13.8908918 0.801473558,15.3349786 1.3766592,16.5919495 C1.49156232,16.8430508 1.38115185,17.1397561 1.13005051,17.2546592 C0.878949168,17.3695623 0.582243926,17.2591518 0.467340803,17.0080505 C-0.246528803,15.4480092 -0.136402833,13.6521542 0.762651787,12.1842026 C1.5686092,10.8682575 2.91953856,9.96088885 4.45853069,9.67719811 L4.577,9.658 L4.59089311,9.57675087 C5.02056223,7.20359454 6.94332558,5.32629335 9.41481459,4.88886884 L9.6637576,4.84996094 C12.2510872,4.4986735 14.758518,5.79999722 15.8909309,8.03304764 Z M23.7080524,0.57062166 C24.0976893,0.748920119 24.0972064,1.30268182 23.7072592,1.48030049 C21.8577886,2.32272344 20.6828483,4.10636911 20.6828483,6.06096 C20.6828483,8.01555089 21.8577886,9.79919656 23.7072592,10.6416195 C24.0973157,10.819288 24.0976575,11.3732548 23.7078204,11.5514044 C23.2808882,11.7465059 22.832828,11.8953462 22.3718793,11.995221 C22.1019993,12.0536965 21.8358145,11.8823193 21.777339,11.6124393 C21.7253608,11.372546 21.8549945,11.1355723 22.0739891,11.0448039 L22.1601207,11.017899 L22.296,10.984 L22.2276313,10.9364091 C20.7127673,9.85245779 19.7642568,8.15515277 19.6878443,6.30333939 L19.6828483,6.06096 C19.6828483,4.11551843 20.6469037,2.31659053 22.2276313,1.18551086 L22.296,1.138 L22.2271491,1.12017839 C21.1352275,0.872583704 19.980884,0.961405261 18.9346467,1.38592692 L18.6754383,1.49905067 C17.225332,2.17743801 16.1789891,3.44996239 15.8300694,4.9542554 C15.7676748,5.22325638 15.4990256,5.39074395 15.2300246,5.32834936 C14.9610236,5.26595477 14.7935361,4.99730558 14.8559306,4.7283046 C15.2748662,2.92215312 16.5259842,1.40058872 18.2516958,0.59326794 C19.972547,-0.21177901 21.9800794,-0.220101545 23.7080524,0.57062166 Z" id="Combined-Shape" fill="#000000" fill-rule="nonzero"></path>
    </g>
</svg>