<?xml version="1.0" encoding="UTF-8"?>
<svg  viewBox="0 0 24 24" version="1.1" xmlns="http://www.w3.org/2000/svg" xmlns:xlink="http://www.w3.org/1999/xlink">
    <title>Weather / Weather / weather-cloud-sun-wind-2</title>
    <g id="Weather-/-Weather-/-weather-cloud-sun-wind-2" stroke="none" stroke-width="1" fill="none" fill-rule="evenodd">
        <path d="M18.5,22.06 C18.7761424,22.06 19,22.2838576 19,22.56 C19,22.8054599 18.8231248,23.0096084 18.5898756,23.0519443 L18.5,23.06 L0.5,23.06 C0.223857625,23.06 0,22.8361424 0,22.56 C0,22.3145401 0.176875161,22.1103916 0.410124368,22.0680557 L0.5,22.06 L18.5,22.06 Z M23.5,20.14 C23.7761424,20.14 24,20.3638576 24,20.64 C24,20.8854599 23.8231248,21.0896084 23.5898756,21.1319443 L23.5,21.14 L3.5,21.14 C3.22385763,21.14 3,20.9161424 3,20.64 C3,20.3945401 3.17687516,20.1903916 3.41012437,20.1480557 L3.5,20.14 L23.5,20.14 Z M18.5,18.22 C18.7761424,18.22 19,18.4438576 19,18.72 C19,18.9654599 18.8231248,19.1696084 18.5898756,19.2119443 L18.5,19.22 L0.5,19.22 C0.223857625,19.22 0,18.9961424 0,18.72 C0,18.4745401 0.176875161,18.2703916 0.410124368,18.2280557 L0.5,18.22 L18.5,18.22 Z M18.8887483,8.0331778 L18.942,8.143 L19.005448,8.14197837 C20.0197713,8.14395577 20.9896672,8.57200159 21.6552801,9.32212274 L21.7931593,9.48775482 C22.418422,10.289052 22.6362964,11.3074189 22.4121334,12.2662905 L22.352,12.485 L22.4173452,12.535904 C23.3520165,13.3032321 23.9251843,14.4102767 23.9931792,15.6010043 L24,15.8401897 C23.9995229,17.0978803 23.4278663,18.2909028 22.4377974,19.1060115 C22.2246091,19.2815261 21.9095032,19.2509856 21.7339885,19.0377974 C21.5584739,18.8246091 21.5890144,18.5095032 21.8022026,18.3339885 C22.5632218,17.7074531 22.9996371,16.7966734 23,15.84 C23,14.7398367 22.4314911,13.7082846 21.4774629,13.0847821 C21.2712876,12.9500367 21.1939502,12.6852153 21.2952053,12.4606891 C21.6463441,11.6820631 21.5362238,10.7840091 21.0047767,10.10294 C20.4679327,9.41495454 19.5829533,9.05362987 18.6872244,9.16048008 C18.463616,9.18715401 18.2497683,9.06105541 18.1648824,8.85247305 C17.3237745,6.7856954 15.1038084,5.54020113 12.8017746,5.85293025 C10.5032038,6.16518893 8.73593351,7.94749812 8.52574155,10.1514694 C8.5028977,10.3909991 8.31268596,10.5802879 8.07304807,10.6019665 C6.63356012,10.7321884 5.34935754,11.5166725 4.62057874,12.7070633 C3.89534508,13.8916635 3.80708413,15.3358727 4.38261002,16.5928021 C4.49757248,16.8438762 4.38723213,17.1406076 4.13615795,17.25557 C3.88508377,17.3705325 3.58835244,17.2601921 3.47338998,17.0091179 C2.75909963,15.4491316 2.86886032,13.6531234 3.76771725,12.1849261 C4.57349787,10.8687601 5.92439232,9.96114217 7.46345243,9.67726317 L7.583,9.657 L7.59698505,9.57661184 C8.03111697,7.20873682 9.9518338,5.33748545 12.4186907,4.90087601 L12.667162,4.86203194 C15.2495377,4.51121865 17.7531289,5.80676976 18.8887483,8.0331778 Z M10.3415314,3.83132928 C10.5583975,4.00227877 10.5956202,4.31666538 10.4246707,4.53353143 C10.2537212,4.75039748 9.93933462,4.78762021 9.72246857,4.61667072 C8.37727147,3.55628916 6.41985245,3.60337145 5.13228671,4.72654727 C3.85525459,5.84053435 3.62338938,7.67611259 4.58356527,9.04727642 C4.74196251,9.27347307 4.68700023,9.58524802 4.46080358,9.74364527 C4.23460693,9.90204251 3.92283198,9.84708023 3.76443473,9.62088358 C2.50996208,7.82945394 2.81409603,5.42175475 4.47492455,3.97297246 C6.12521945,2.53337892 8.61886442,2.47339866 10.3415314,3.83132928 Z M1.5,5.74 C1.77614237,5.74 2,5.96385763 2,6.24 C2,6.48545989 1.82312484,6.68960837 1.58987563,6.73194433 L1.5,6.74 L0.5,6.74 C0.223857625,6.74 0,6.51614237 0,6.24 C0,5.99454011 0.176875161,5.79039163 0.410124368,5.74805567 L0.5,5.74 L1.5,5.74 Z M2.50012028,1.71713343 L2.57049791,1.7736092 L3.34649791,2.5195292 C3.54558044,2.71089471 3.55183631,3.02741539 3.3604708,3.22649791 C3.19036812,3.40346016 2.92137742,3.42806554 2.72387972,3.29694657 L2.65350209,3.2404708 L1.87750209,2.4945508 C1.67841956,2.30318529 1.67216369,1.98666461 1.8635292,1.78758209 C2.03363188,1.61061984 2.30262258,1.58601446 2.50012028,1.71713343 Z M13.1364708,1.78758209 C13.3065735,1.96454433 13.3205309,2.23429721 13.1817104,2.42645969 L13.1224979,2.4945508 L12.3464979,3.2404708 C12.1474154,3.43183631 11.8308947,3.42558044 11.6395292,3.22649791 C11.4694265,3.04953567 11.4554691,2.77978279 11.5942896,2.58762031 L11.6535021,2.5195292 L12.4295021,1.7736092 C12.6285846,1.58224369 12.9451053,1.58849956 13.1364708,1.78758209 Z M7.5,-0.02 C7.74545989,-0.02 7.94960837,0.156875161 7.99194433,0.390124368 L8,0.48 L8,1.44 C8,1.71614237 7.77614237,1.94 7.5,1.94 C7.25454011,1.94 7.05039163,1.76312484 7.00805567,1.52987563 L7,1.44 L7,0.48 C7,0.203857625 7.22385763,-0.02 7.5,-0.02 Z" id="Combined-Shape" fill="#000000" fill-rule="nonzero"></path>
    </g>
</svg>