<?xml version="1.0" encoding="UTF-8"?>
<svg width="24px" height="24px" viewBox="0 0 24 24" version="1.1" xmlns="http://www.w3.org/2000/svg" xmlns:xlink="http://www.w3.org/1999/xlink">
    <title>Weather / Weather / weather-cloudy-thunder</title>
    <g id="Weather-/-Weather-/-weather-cloudy-thunder" stroke="none" stroke-width="1" fill="none" fill-rule="evenodd">
        <path d="M15.1206753,14.1742504 C15.422953,13.8222581 16,14.0360276 16,14.5 L16,14.5 L16,18 L17.2510348,18.0000011 C17.506003,18.0005288 17.7405666,18.130068 17.8775421,18.3391349 L17.8775421,18.3391349 L17.930046,18.4334597 C18.054709,18.7004447 18.0110162,19.0157419 17.8193247,19.2377496 L17.8193247,19.2377496 L13.8793247,23.8257496 C13.577047,24.1777419 13,23.9639724 13,23.5 L13,23.5 L13,20 L11.7489652,19.9999989 C11.493997,19.9994712 11.2594334,19.869932 11.1224579,19.6608651 L11.1224579,19.6608651 L11.069954,19.5665403 C10.945291,19.2995553 10.9889838,18.9842581 11.1806753,18.7622504 L11.1806753,18.7622504 Z M15,15.849 L12.294,19 L13.5,19 C13.7454599,19 13.9496084,19.1768752 13.9919443,19.4101244 L13.9919443,19.4101244 L14,19.5 L14,22.149 L16.705,19 L15.5,19 C15.2545401,19 15.0503916,18.8231248 15.0080557,18.5898756 L15.0080557,18.5898756 L15,18.5 L15,15.849 Z M18.8917898,8.38344 L18.947,8.504 L19.0049042,8.50205307 C20.0234356,8.50393013 20.9960953,8.95077735 21.6613798,9.73137785 L21.7991407,9.90371732 C22.4634688,10.7905517 22.6636458,11.9314521 22.3588099,12.9792971 L22.346,13.016 L22.3799122,13.0426965 C23.7081765,14.1484318 24.2908403,15.9282416 23.8590402,17.61473 L23.7997621,17.8249995 C23.2183559,19.7120512 21.4746812,20.9996313 19.5000933,21 C19.223951,21 19.0000516,20.7762357 19,20.5000933 C18.9999485,20.223951 19.2237643,20.0000516 19.4999067,20 C21.0356972,19.9997133 22.3918887,18.9982621 22.8440935,17.5305551 C23.2962983,16.0628482 22.7388626,14.4718029 21.4695317,13.60725 C21.2712945,13.4722289 21.1968627,13.2154598 21.2921553,12.9953507 C21.6485339,12.1721791 21.5365847,11.22117 20.9987953,10.5032565 C20.4610059,9.78534292 19.5798141,9.4105739 18.6896553,9.52118406 C18.4626842,9.54938725 18.2455113,9.41998573 18.1622811,9.2069504 C17.3184718,7.04714253 15.1004406,5.75088348 12.8045251,6.0757772 C10.5086095,6.40067091 8.73732973,8.26145509 8.52591751,10.5705868 C8.50408092,10.809095 8.31617826,10.9986204 8.07786657,11.0225071 C5.69648748,11.2611996 3.9185742,13.3221287 4.03169506,15.7127655 C4.14138801,18.0309587 5.99202409,19.8726057 8.28388505,19.9937238 L8.5,20 L9.5,20 C9.77614237,20 10,20.2238576 10,20.5 C10,20.7454599 9.82312484,20.9496084 9.58987563,20.9919443 L9.5,21 L8.49733343,21 C5.57221639,20.9843926 3.17107152,18.6819203 3.03281269,15.7600309 C2.90164406,12.987982 4.85076494,10.578638 7.53638407,10.0897006 L7.581,10.082 L7.59403016,9.99627123 C8.02220646,7.53163797 9.9457236,5.57808442 12.42298,5.12479211 L12.6644116,5.08564175 C15.2525346,4.71939793 17.7581816,6.06987895 18.8917898,8.38344 Z M10.3492978,4.01357781 C10.5627129,4.18881655 10.5936609,4.50388272 10.4184222,4.7172978 C10.2431834,4.93071288 9.92811728,4.96166092 9.7147022,4.78642219 C8.37251165,3.68432679 6.42517115,3.73311832 5.13985712,4.90104706 C3.85454309,6.06897581 3.62004346,8.0027611 4.5889522,9.44404719 C4.74301358,9.67321896 4.68212459,9.98389081 4.45295281,10.1379522 C4.22378104,10.2920136 3.91310919,10.2311246 3.7590478,10.0019528 C2.513308,8.14887071 2.81480752,5.66257533 4.46735413,4.16095266 C6.11990075,2.65932999 8.62362424,2.59659803 10.3492978,4.01357781 Z M1.5,6 C1.77614237,6 2,6.22385763 2,6.5 C2,6.74545989 1.82312484,6.94960837 1.58987563,6.99194433 L1.5,7 L0.5,7 C0.223857625,7 0,6.77614237 0,6.5 C0,6.25454011 0.176875161,6.05039163 0.410124368,6.00805567 L0.5,6 L1.5,6 Z M2.50857036,1.81177431 L2.57778098,1.86967434 L3.35378098,2.64667434 C3.54891735,2.84206218 3.5487135,3.1586446 3.35332566,3.35378098 C3.17964758,3.52723553 2.91021082,3.54634719 2.71542964,3.41122569 L2.64621902,3.35332566 L1.87021902,2.57632566 C1.67508265,2.38093782 1.6752865,2.0643554 1.87067434,1.86921902 C2.04435242,1.69576447 2.31378918,1.67665281 2.50857036,1.81177431 Z M13.1293257,1.86921902 C13.3030037,2.04267358 13.3224624,2.31208551 13.1875918,2.50704053 L13.129781,2.57632566 L12.353781,3.35332566 C12.1586446,3.5487135 11.8420622,3.54891735 11.6466743,3.35378098 C11.4729963,3.18032642 11.4535376,2.91091449 11.5884082,2.71595947 L11.646219,2.64667434 L12.422219,1.86967434 C12.6173554,1.6742865 12.9339378,1.67408265 13.1293257,1.86921902 Z M7.5,0 C7.74545989,0 7.94960837,0.176875161 7.99194433,0.410124368 L8,0.5 L8,1.5 C8,1.77614237 7.77614237,2 7.5,2 C7.25454011,2 7.05039163,1.82312484 7.00805567,1.58987563 L7,1.5 L7,0.5 C7,0.223857625 7.22385763,0 7.5,0 Z" id="Combined-Shape" fill="#000000" fill-rule="nonzero"></path>
    </g>
</svg>