<?xml version="1.0" encoding="UTF-8"?>
<svg viewBox="0 0 24 24" version="1.1" xmlns="http://www.w3.org/2000/svg" xmlns:xlink="http://www.w3.org/1999/xlink">
    <title>Weather / Weather / weather-clouds-rainbow</title>
    <g id="Weather-/-Weather-/-weather-clouds-rainbow" stroke="none" stroke-width="1" fill="none" fill-rule="evenodd">
        <path d="M0.497229647,11.4999346 C2.179961,11.490684 3.72863541,12.3737101 4.58303667,13.7975493 L4.651,13.918 L4.76899306,13.9251514 C5.4981,13.9886363 6.19187818,14.2771131 6.75237725,14.7532201 L6.91643064,14.9016438 C7.6091535,15.5688811 8.00037271,16.4893879 7.9999376,17.4589223 C7.97233057,19.2010521 6.71068402,20.6666131 4.95775401,20.9710024 L4.761,21 L0.499999835,21 C0.223857625,21 -1.64928399e-07,20.7761424 -1.64928399e-07,20.5 C-1.64928399e-07,20.2545401 0.176875161,20.0503916 0.410124368,20.0080557 L0.499999835,20 L4.69972388,20.003769 C5.99788159,19.8434685 6.97933787,18.750931 6.99999984,17.4508062 C7.00026743,16.7608505 6.71962459,16.1005209 6.22269678,15.6218752 C5.72576896,15.1432296 5.0553882,14.8875241 4.36592696,14.9136416 C4.16636628,14.9212012 3.98144631,14.8092874 3.89557909,14.6289864 C3.2729611,13.3216351 1.95078839,12.4919692 0.502770353,12.4999923 C0.226632217,12.5015223 0.00153769853,12.2789085 -1.64928399e-07,12.0027704 C-0.0015223487,11.7266322 0.221091511,11.5015377 0.497229647,11.4999346 Z M23.5027701,11.5000077 C23.7789083,11.5015377 24.0015221,11.7266322 23.9999995,12.0027704 C23.9984621,12.2789085 23.7733676,12.5015223 23.4972294,12.4999923 C22.0492116,12.4919692 20.7270389,13.3216351 20.1044209,14.6289864 C20.0185537,14.8092874 19.8336337,14.9212012 19.634073,14.9136416 C18.9446118,14.8875241 18.274231,15.1432296 17.7773032,15.6218752 C17.2803754,16.1005209 16.9997325,16.7608505 16.999937,17.4430777 C17.019761,18.6940678 17.9185905,19.7480582 19.0791741,19.9743339 L19.239,20.0000077 L23.4999995,20.0000077 C23.7761421,20.0000077 23.9999995,20.2238576 23.9999995,20.5000077 C23.9999995,20.7454599 23.8231246,20.9496084 23.5898754,20.9919443 L23.4999995,21.0000077 L19.1777239,20.996231 C17.3844641,20.7747939 16.0286919,19.2655755 15.9999995,17.4511936 C15.9996273,16.4893878 16.3908466,15.5688811 17.0835694,14.9016438 C17.6697195,14.3370583 18.4289893,13.9949848 19.2310069,13.9251514 L19.348,13.918 L19.4169633,13.7975493 C20.2325282,12.4384301 21.6806848,11.5720765 23.2741903,11.5042343 L23.5027701,11.5000077 Z M11.9998571,10.0297498 C14.2318917,10.0291123 16,11.5872367 16,14 C16,14.2761424 15.7761424,14.5 15.5,14.5 C15.2238576,14.5 15,14.2761424 15,14 C15,12.16968 13.7058919,11.0292626 12.0001429,11.0297498 C10.2945351,11.0302373 9,12.1712775 9,14 C9,14.2761424 8.77614237,14.5 8.5,14.5 C8.22385763,14.5 8,14.2761424 8,14 C8,11.5889725 9.76824863,10.0303876 11.9998571,10.0297498 Z M11.9995,6.51051201 C15.1050742,6.51051201 17.8902238,8.42227651 19.0065787,11.3202659 C19.1058431,11.5779502 18.9774183,11.8673143 18.7197341,11.9665787 C18.4620498,12.0658431 18.1726857,11.9374183 18.0734213,11.6797341 C17.1057353,9.16768009 14.6914939,7.51051201 11.9995,7.51051201 C9.30750608,7.51051201 6.89326466,9.16768009 5.92557868,11.6797341 C5.82631431,11.9374183 5.53695024,12.0658431 5.27926594,11.9665787 C5.02158165,11.8673143 4.89315694,11.5779502 4.99242132,11.3202659 C6.10877621,8.42227651 8.89392581,6.51051201 11.9995,6.51051201 Z M12,3.00873644 C16.246592,3.00873644 20.1146204,5.45097243 21.9404272,9.28502681 C22.0591536,9.53434318 21.9532896,9.8327008 21.7039732,9.95142721 C21.4546568,10.0701536 21.1562992,9.96428955 21.0375728,9.71497319 C19.3775976,6.22915263 15.8608888,4.00873644 12,4.00873644 C8.13911117,4.00873644 4.62240238,6.22915263 2.96242721,9.71497319 C2.8437008,9.96428955 2.54534318,10.0701536 2.29602681,9.95142721 C2.04671045,9.8327008 1.94084637,9.53434318 2.05957279,9.28502681 C3.88537964,5.45097243 7.75340799,3.00873644 12,3.00873644 Z" id="Combined-Shape" fill="#000000" fill-rule="nonzero"></path>
    </g>
</svg>