<?xml version="1.0" encoding="UTF-8"?>
<svg viewBox="0 0 24 24" version="1.1" xmlns="http://www.w3.org/2000/svg" xmlns:xlink="http://www.w3.org/1999/xlink">
    <title>Weather / Weather / weather-wind</title>
    <g id="Weather-/-Weather-/-weather-wind" stroke="none" stroke-width="1" fill="none" fill-rule="evenodd">
        <path d="M11.5,22.06 C11.7761424,22.06 12,22.2838576 12,22.56 C12,22.8054599 11.8231248,23.0096084 11.5898756,23.0519443 L11.5,23.06 L0.5,23.06 C0.223857625,23.06 0,22.8361424 0,22.56 C0,22.3145401 0.176875161,22.1103916 0.410124368,22.0680557 L0.5,22.06 L11.5,22.06 Z M14.5,20.14 C14.7761424,20.14 15,20.3638576 15,20.64 C15,20.8854599 14.8231248,21.0896084 14.5898756,21.1319443 L14.5,21.14 L3.5,21.14 C3.22385763,21.14 3,20.9161424 3,20.64 C3,20.3945401 3.17687516,20.1903916 3.41012437,20.1480557 L3.5,20.14 L14.5,20.14 Z M18.8909309,8.03304764 L18.943,8.143 L19.006448,8.14197837 C20.0207713,8.14395577 20.9906672,8.57200159 21.6562801,9.32212274 L21.7941593,9.48775482 C22.419422,10.289052 22.6372964,11.3074189 22.4131334,12.2662905 L22.353,12.484 L22.374314,12.5002271 C23.7074889,13.5664463 24.2942688,15.2881288 23.8586411,16.9204585 L23.7988426,17.1239804 C23.2361585,18.8764366 21.5976227,20.0876318 19.7179125,20.1749461 L19.5,20.18 L16.5,20.18 C16.2238576,20.18 16,19.9561424 16,19.68 C16,19.4345401 16.1768752,19.2303916 16.4101244,19.1880557 L16.5,19.18 L19.5,19.18 C21.040865,19.18 22.3969365,18.2190959 22.8467183,16.8182693 C23.2943864,15.4240255 22.7423885,13.9112185 21.4783699,13.0847212 C21.2722598,12.9499531 21.1949675,12.6851769 21.2962053,12.4606891 C21.6473441,11.6820631 21.5372238,10.7840091 21.0057767,10.10294 C20.4689327,9.41495454 19.5839533,9.05362987 18.6882244,9.16048008 C18.4641524,9.18720931 18.2499462,9.06053619 18.16541,8.85130817 C17.3279847,6.77867045 15.1047263,5.52772019 12.7982954,5.8408694 C10.495334,6.15354755 8.72618958,7.94169037 8.52085298,10.1502862 C8.49853709,10.3903154 8.30813201,10.5802476 8.06804807,10.6019665 C6.62856012,10.7321884 5.34435754,11.5166725 4.61557874,12.7070633 C3.89034508,13.8916635 3.80208413,15.3358727 4.37761002,16.5928021 C4.49257248,16.8438762 4.38223213,17.1406076 4.13115795,17.25557 C3.88008377,17.3705325 3.58335244,17.2601921 3.46838998,17.0091179 C2.75409963,15.4491316 2.86386032,13.6531234 3.76271725,12.1849261 C4.56849787,10.8687601 5.91939232,9.96114217 7.45845243,9.67726317 L7.577,9.658 L7.59089311,9.57675087 C8.02056223,7.20359454 9.94332558,5.32629335 12.4148146,4.88886884 L12.6637576,4.84996094 C15.2510872,4.4986735 17.758518,5.79999722 18.8909309,8.03304764 Z M11.5,18.22 C11.7761424,18.22 12,18.4438576 12,18.72 C12,18.9654599 11.8231248,19.1696084 11.5898756,19.2119443 L11.5,19.22 L0.5,19.22 C0.223857625,19.22 0,18.9961424 0,18.72 C0,18.4745401 0.176875161,18.2703916 0.410124368,18.2280557 L0.5,18.22 L11.5,18.22 Z M10.3415314,3.83132928 C10.5583975,4.00227877 10.5956202,4.31666538 10.4246707,4.53353143 C10.2537212,4.75039748 9.93933462,4.78762021 9.72246857,4.61667072 C8.37727147,3.55628916 6.41985245,3.60337145 5.13228671,4.72654727 C3.85525459,5.84053435 3.62338938,7.67611259 4.58356527,9.04727642 C4.74196251,9.27347307 4.68700023,9.58524802 4.46080358,9.74364527 C4.23460693,9.90204251 3.92283198,9.84708023 3.76443473,9.62088358 C2.50996208,7.82945394 2.81409603,5.42175475 4.47492455,3.97297246 C6.12521945,2.53337892 8.61886442,2.47339866 10.3415314,3.83132928 Z M1.5,5.74 C1.77614237,5.74 2,5.96385763 2,6.24 C2,6.48545989 1.82312484,6.68960837 1.58987563,6.73194433 L1.5,6.74 L0.5,6.74 C0.223857625,6.74 0,6.51614237 0,6.24 C0,5.99454011 0.176875161,5.79039163 0.410124368,5.74805567 L0.5,5.74 L1.5,5.74 Z M2.50012028,1.71713343 L2.57049791,1.7736092 L3.34649791,2.5195292 C3.54558044,2.71089471 3.55183631,3.02741539 3.3604708,3.22649791 C3.19036812,3.40346016 2.92137742,3.42806554 2.72387972,3.29694657 L2.65350209,3.2404708 L1.87750209,2.4945508 C1.67841956,2.30318529 1.67216369,1.98666461 1.8635292,1.78758209 C2.03363188,1.61061984 2.30262258,1.58601446 2.50012028,1.71713343 Z M13.1364708,1.78758209 C13.3065735,1.96454433 13.3205309,2.23429721 13.1817104,2.42645969 L13.1224979,2.4945508 L12.3464979,3.2404708 C12.1474154,3.43183631 11.8308947,3.42558044 11.6395292,3.22649791 C11.4694265,3.04953567 11.4554691,2.77978279 11.5942896,2.58762031 L11.6535021,2.5195292 L12.4295021,1.7736092 C12.6285846,1.58224369 12.9451053,1.58849956 13.1364708,1.78758209 Z M7.5,-0.02 C7.74545989,-0.02 7.94960837,0.156875161 7.99194433,0.390124368 L8,0.48 L8,1.44 C8,1.71614237 7.77614237,1.94 7.5,1.94 C7.25454011,1.94 7.05039163,1.76312484 7.00805567,1.52987563 L7,1.44 L7,0.48 C7,0.203857625 7.22385763,-0.02 7.5,-0.02 Z" id="Combined-Shape" fill="#000000" fill-rule="nonzero"></path>
    </g>
</svg>