<?xml version="1.0" encoding="UTF-8"?>
<svg width="24px" height="24px" viewBox="0 0 24 24" version="1.1" xmlns="http://www.w3.org/2000/svg" xmlns:xlink="http://www.w3.org/1999/xlink">
    <title>Weather / Weather / weather-cloud-thunder</title>
    <g id="Weather-/-Weather-/-weather-cloud-thunder" stroke="none" stroke-width="1" fill="none" fill-rule="evenodd">
        <path d="M15.117,8.99999998 C15.4771631,8.99999998 15.8095298,9.19360479 15.9871107,9.50695842 C16.1647073,9.82033987 16.1600411,10.2050187 15.9747375,10.5142627 L15.9747375,10.5142627 L13.883,13.999 L15.0271365,14.0000264 C15.3593914,14.0034398 15.6652958,14.1713192 15.8474093,14.4429879 L15.8474093,14.4429879 L15.9097089,14.5496103 C16.0780577,14.8833617 16.0462068,15.2831411 15.8274633,15.5855739 L15.8274633,15.5855739 L9.90546334,23.7925739 C9.57774886,24.2467368 8.8653793,23.901145 9.01923803,23.3626394 L9.01923803,23.3626394 L10.837,16.999 L9.66313522,17 C9.38864217,17.0000742 9.12803849,16.8874359 8.94053431,16.6915598 L8.94053431,16.6915598 L8.86482347,16.6026027 C8.6757832,16.3522521 8.61517961,16.0277007 8.70123198,15.7256606 L8.70123198,15.7256606 L10.4151351,9.72600002 C10.5375636,9.29628065 10.9302023,8.99999998 11.377,8.99999998 L11.377,8.99999998 Z M15.1171049,9.99999998 L11.377,9.99999998 L9.66286484,16 L11.5,16 C11.8321894,16 12.0720214,16.3179524 11.980762,16.6373605 L11.980762,16.6373605 L10.764,20.892 L15.0168636,14.9999736 L13,15 C12.611345,15 12.3712896,14.5759992 12.5712625,14.2427372 L12.5712625,14.2427372 L15.1171049,9.99999998 Z M17.3917898,3.38344 L17.447,3.504 L17.5049042,3.50205307 C18.5234356,3.50393013 19.4960953,3.95077735 20.1613798,4.73137785 L20.2991407,4.90371732 C20.9634688,5.79055172 21.1636458,6.9314521 20.8588099,7.97929705 L20.846,8.016 L20.8799122,8.04269651 C22.2081765,9.14843182 22.7908403,10.9282416 22.3590402,12.61473 L22.2997621,12.8249995 C21.7183559,14.7120512 19.9746812,15.9996313 18.0000933,16.0000002 C17.723951,16.0000002 17.5000516,15.7762357 17.5,15.5000933 C17.4999485,15.223951 17.7237643,15.0000516 17.9999067,15 C19.5356972,14.9997133 20.8918887,13.9982621 21.3440935,12.5305551 C21.7962983,11.0628482 21.2388626,9.47180289 19.9695317,8.60725001 C19.7712945,8.47222887 19.6968627,8.2154598 19.7921553,7.99535073 C20.1485339,7.17217906 20.0365847,6.22117004 19.4987953,5.50325648 C18.9610059,4.78534292 18.0798141,4.4105739 17.1896553,4.52118406 C16.9626842,4.54938725 16.7455113,4.41998573 16.6622811,4.2069504 C15.8184718,2.04714253 13.6004406,0.750883484 11.3045251,1.0757772 C9.0086095,1.40067091 7.23732973,3.26145509 7.02591751,5.57058677 C7.00408092,5.80909504 6.81617826,5.99862044 6.57786657,6.02250711 C4.19648748,6.2611996 2.4185742,8.32212869 2.53169506,10.7127655 C2.64481592,13.1034022 4.60938899,14.9872432 7.00266657,15.0000071 C7.27880502,15.0014798 7.5014656,15.2265281 7.49999289,15.5026666 C7.49852018,15.778805 7.27347188,16.0014656 6.99733343,16.0000002 C4.07221639,15.9843926 1.67107152,13.6819203 1.53281269,10.7600309 C1.40164406,7.98798196 3.35076494,5.578638 6.03638407,5.08970064 L6.081,5.082 L6.09403016,4.99627123 C6.52220646,2.53163797 8.4457236,0.578084424 10.92298,0.124792106 L11.1644116,0.0856417495 C13.7525346,-0.280602073 16.2581816,1.06987895 17.3917898,3.38344 Z" id="Combined-Shape" fill="#000000" fill-rule="nonzero"></path>
    </g>
</svg>