<?xml version="1.0" encoding="UTF-8"?>
<svg  viewBox="0 0 24 24" version="1.1" xmlns="http://www.w3.org/2000/svg" xmlns:xlink="http://www.w3.org/1999/xlink">
    <title>Weather / Weather / weather-cloud-rainbow</title>
    <g id="Weather-/-Weather-/-weather-cloud-rainbow" stroke="none" stroke-width="1" fill="none" fill-rule="evenodd">
        <path d="M9.65741157,8.11664175 C12.2455346,7.75039793 14.7511816,9.10087895 15.8847898,11.41444 L15.8847898,11.41444 L15.94,11.535 L15.9980031,11.5331868 C17.0163358,11.5353998 17.9886766,11.9823946 18.6537003,12.7629517 L18.6537003,12.7629517 L18.7914064,12.9352789 C19.455465,13.8220375 19.655528,14.9627031 19.3507754,16.0103514 L19.3507754,16.0103514 L19.338,16.046 L19.371595,16.0728048 C20.700685,17.176407 21.283902,18.9540094 20.8508109,20.637228 L20.8508109,20.637228 L20.7913616,20.8470832 C20.2081735,22.7308508 18.4610998,24.0112088 16.492,24 L16.492,24 L5.49711942,23.9999738 C2.54929135,24.0301577 0.105613803,21.7232606 -0.0338617493,18.7785793 C-0.166184709,15.9849073 1.82039895,13.5666881 4.53284166,13.1137519 L4.53284166,13.1137519 L4.575,13.107 L4.58703016,13.0272712 C5.01520646,10.562638 6.9387236,8.60908442 9.41598005,8.15579211 L9.41598005,8.15579211 Z M15.1552811,12.2379504 C14.3114718,10.0781425 12.0934406,8.78188348 9.79752508,9.1067772 C7.5016095,9.43167091 5.73032973,11.2924551 5.51891751,13.6015868 C5.49681499,13.8429997 5.30471949,14.0337782 5.06316024,14.0542193 C2.66161575,14.2574425 0.850989949,16.3238383 0.965018401,18.7312671 C1.07904685,21.1386958 3.0768792,23.0247031 5.492,23 L5.492,23 L16.4948441,23.0000081 C18.026327,23.0087196 19.3831676,22.0143472 19.8360925,20.5513452 C20.2889809,19.0884614 19.7314888,17.5008559 18.4620601,16.6386094 C18.2634589,16.5037116 18.1887717,16.2466988 18.2841458,16.0263726 C18.6404138,15.203349 18.5285401,14.2525473 17.9909688,13.5346951 C17.4533976,12.8168429 16.5724987,12.4419338 15.6824792,12.5522059 C15.4555637,12.5803204 15.2384873,12.4509241 15.1552811,12.2379504 Z M23.4765479,8.01299022 C23.7521434,7.99561969 23.9896393,8.20495238 24.0070098,8.48054787 C24.0243803,8.75614337 23.8150476,8.99363925 23.5394521,9.01100978 C21.8425835,9.11796186 20.2433936,9.84172884 19.0431386,11.0459672 C18.8482002,11.2415526 18.5316182,11.242077 18.3360328,11.0471386 C18.1404474,10.8522002 18.139923,10.5356182 18.3348614,10.3400328 C19.7073935,8.96294554 21.5361212,8.13529353 23.4765479,8.01299022 Z M23.4874137,4.00642397 C23.763322,3.9950545 23.9962066,4.20950552 24.007576,4.48541375 C24.0189455,4.76132197 23.8044945,4.99420655 23.5285863,5.00557603 C20.5980497,5.12633597 17.8378042,6.41518533 15.8638106,8.58451171 C15.6779603,8.78875246 15.361729,8.80366087 15.1574883,8.61781059 C14.9532475,8.4319603 14.9383391,8.11572904 15.1241894,7.91148829 C17.2780621,5.54448319 20.2898336,4.1381881 23.4874137,4.00642397 Z M23.476099,0.00025290616 C23.7521017,-0.00852898054 23.9829652,0.208096289 23.9917471,0.484098988 C24.000529,0.760101686 23.7839037,0.990965207 23.507901,0.999747094 C18.8614492,1.14758845 14.5469529,3.44426762 11.8296943,7.21625355 C11.6682871,7.44031233 11.3558052,7.49110147 11.1317464,7.32969429 C10.9076877,7.16828711 10.8568985,6.85580522 11.0183057,6.63174645 C13.9169567,2.60795905 18.5194701,0.157963514 23.476099,0.00025290616 Z" id="Combined-Shape" fill="#000000" fill-rule="nonzero"></path>
    </g>
</svg>