<?xml version="1.0" encoding="UTF-8"?>
<svg width="24px" height="24px" viewBox="0 0 24 24" version="1.1" xmlns="http://www.w3.org/2000/svg" xmlns:xlink="http://www.w3.org/1999/xlink">
    <title>Weather / Weather / weather-night-rain-drops</title>
    <g id="Weather-/-Weather-/-weather-night-rain-drops" stroke="none" stroke-width="1" fill="none" fill-rule="evenodd">
        <path d="M6.58857686,18.715868 C6.78735033,18.428044 7.21264967,18.428044 7.41142314,18.715868 L7.41142314,18.715868 L7.83335789,19.3612359 C7.95255666,19.5510278 8.07007148,19.7447873 8.18250688,19.9386259 C8.27920315,20.1053303 8.36948666,20.2676304 8.45219094,20.4242752 C8.80262958,21.0880185 9,21.6043536 9,22 C9,23.1045695 8.10456949,24 7,24 C5.89543051,24 5,23.1045695 5,22 C5,21.6043536 5.19737042,21.0880185 5.54780906,20.4242752 C5.63051334,20.2676304 5.72079685,20.1053303 5.81749312,19.9386259 C5.98614623,19.647868 6.16622801,19.357288 6.34627881,19.0800098 L6.34627881,19.0800098 Z M14.5885769,18.715868 C14.7873503,18.428044 15.2126497,18.428044 15.4114231,18.715868 L15.4114231,18.715868 L15.8333579,19.3612359 C15.9525567,19.5510278 16.0700715,19.7447873 16.1825069,19.9386259 C16.2792031,20.1053303 16.3694867,20.2676304 16.4521909,20.4242752 C16.8026296,21.0880185 17,21.6043536 17,22 C17,23.1045695 16.1045695,24 15,24 C13.8954305,24 13,23.1045695 13,22 C13,21.6043536 13.1973704,21.0880185 13.5478091,20.4242752 C13.6305133,20.2676304 13.7207969,20.1053303 13.8174931,19.9386259 C13.9861462,19.647868 14.166228,19.357288 14.3462788,19.0800098 L14.3462788,19.0800098 Z M7,19.914 L6.84553809,20.1653852 L6.68250688,20.4403741 C6.59218364,20.5960913 6.50829475,20.746896 6.43212249,20.891169 C6.15720023,21.4118815 6,21.8231286 6,22 C6,22.5522847 6.44771526,23 7,23 C7.55228474,23 8,22.5522847 8,22 C8,21.8231286 7.84279977,21.4118815 7.56787751,20.891169 C7.49170525,20.746896 7.40781636,20.5960913 7.31749312,20.4403741 C7.26433582,20.3487309 7.20984421,20.2568908 7.15446191,20.1653852 L7.15446191,20.1653852 L7,19.914 Z M15,19.914 L14.8455381,20.1653852 L14.6825069,20.4403741 C14.5921836,20.5960913 14.5082948,20.746896 14.4321225,20.891169 C14.1572002,21.4118815 14,21.8231286 14,22 C14,22.5522847 14.4477153,23 15,23 C15.5522847,23 16,22.5522847 16,22 C16,21.8231286 15.8427998,21.4118815 15.5678775,20.891169 C15.4917052,20.746896 15.4078164,20.5960913 15.3174931,20.4403741 C15.2643358,20.3487309 15.2098442,20.2568908 15.1544619,20.1653852 L15.1544619,20.1653852 L15,19.914 Z M15.8917898,8.38344 L15.947,8.504 L16.0049042,8.50205307 C17.0234356,8.50393013 17.9960953,8.95077735 18.6613798,9.73137785 L18.7991407,9.90371732 C19.4634688,10.7905517 19.6636458,11.9314521 19.3588099,12.9792971 L19.346,13.015 L19.3990508,13.0575199 C20.393702,13.8917909 20.9811687,15.121085 20.9998179,16.4265719 L20.9971714,16.657678 C20.9397245,18.2027927 20.0899405,19.6091891 18.7488365,20.3786824 C18.5093204,20.516111 18.2037463,20.4333527 18.0663176,20.1938365 C17.928889,19.9543204 18.0116473,19.6487463 18.2511635,19.5113176 C19.2930475,18.9135096 19.9532322,17.8209009 19.9978618,16.620524 C20.0424914,15.420147 19.4652629,14.2815317 18.4706467,13.6080072 C18.271626,13.4732364 18.196661,13.2159256 18.2921553,12.9953507 C18.6485339,12.1721791 18.5365847,11.22117 17.9987953,10.5032565 C17.4610059,9.78534292 16.5798141,9.4105739 15.6896553,9.52118406 C15.4626842,9.54938725 15.2455113,9.41998573 15.1622811,9.2069504 C14.3184718,7.04714253 12.1004406,5.75088348 9.80452508,6.0757772 C7.5086095,6.40067091 5.73732973,8.26145509 5.52591751,10.5705868 C5.50403572,10.8095887 5.31542331,10.9993296 5.07655619,11.0226367 C3.03958357,11.2213914 1.39329586,12.7696701 1.07004421,14.7906276 C0.746792553,16.8115851 1.82800648,18.7961269 3.70135619,19.6203367 C3.95411664,19.7315427 4.06886924,20.0265957 3.95766329,20.2793562 C3.84645734,20.5321166 3.55140427,20.6468692 3.29864381,20.5356633 C1.00899417,19.5282958 -0.31248952,17.1027446 0.0825958371,14.6326854 C0.452988359,12.317005 2.24461102,10.509085 4.51851154,10.0919787 L4.581,10.081 L4.59403016,9.99627123 C5.02220646,7.53163797 6.9457236,5.57808442 9.42298005,5.12479211 L9.66441157,5.08564175 C12.2525346,4.71939793 14.7581816,6.06987895 15.8917898,8.38344 Z M10.5885769,14.715868 C10.7873503,14.428044 11.2126497,14.428044 11.4114231,14.715868 L11.4114231,14.715868 L11.8333579,15.3612359 C11.9525567,15.5510278 12.0700715,15.7447873 12.1825069,15.9386259 C12.2792031,16.1053303 12.3694867,16.2676304 12.4521909,16.4242752 C12.8026296,17.0880185 13,17.6043536 13,18 C13,19.1045695 12.1045695,20 11,20 C9.89543052,20 9,19.1045695 9,18 C9,17.6043536 9.19737042,17.0880185 9.54780906,16.4242752 C9.63051334,16.2676304 9.72079685,16.1053303 9.81749312,15.9386259 C9.98614623,15.647868 10.166228,15.357288 10.3462788,15.0800098 L10.3462788,15.0800098 Z M11,15.914 L10.8455381,16.1653852 L10.6825069,16.4403741 C10.5921836,16.5960913 10.5082948,16.746896 10.4321225,16.891169 C10.1572002,17.4118815 10,17.8231286 10,18 C10,18.5522847 10.4477153,19 11,19 C11.5522847,19 12,18.5522847 12,18 C12,17.8231286 11.8427998,17.4118815 11.5678775,16.891169 C11.4917052,16.746896 11.4078164,16.5960913 11.3174931,16.4403741 C11.2643358,16.3487309 11.2098442,16.2568908 11.1544619,16.1653852 L11.1544619,16.1653852 L11,15.914 Z M23.7151426,0.616653495 C24.0953292,0.797876428 24.0948447,1.339189 23.7143342,1.51973097 C21.8629115,2.39818108 20.6828483,4.26424638 20.6828483,6.3135 C20.6828483,8.36275362 21.8629115,10.2288189 23.7143342,11.107269 C24.094955,11.2878633 24.095298,11.8293828 23.7149062,12.0104591 C23.2871947,12.2140608 22.8381572,12.3694409 22.3760812,12.4737316 C22.1067145,12.5345278 21.8390645,12.3654479 21.7782684,12.0960812 C21.7242273,11.8566441 21.8518167,11.6185635 22.070022,11.5259136 L22.1559188,11.4982684 L22.336,11.452 L22.2218063,11.3709525 C20.7091621,10.2444849 19.7639665,8.48339745 19.6878263,6.56462915 L19.6828483,6.3135 C19.6828483,4.29794025 20.643395,2.43149196 22.2218063,1.25604747 L22.334,1.175 L22.2232126,1.14562689 C21.1347011,0.888424593 19.9843569,0.980693199 18.9410883,1.4217033 L18.6825997,1.53922085 C17.2315795,2.24631971 16.1818775,3.57612131 15.8310471,5.15167409 C15.771028,5.42121504 15.5038669,5.59106611 15.2343259,5.53104707 C14.964785,5.47102803 14.7949339,5.20386686 14.8549529,4.93432591 C15.2719778,3.06149902 16.5197367,1.48079146 18.2445344,0.64027771 C19.969332,-0.20023604 21.9831501,-0.20893249 23.7151426,0.616653495 Z" id="Combined-Shape" fill="#000000" fill-rule="nonzero"></path>
    </g>
</svg>