<?xml version="1.0" encoding="UTF-8"?>
<svg viewBox="0 0 24 24" version="1.1" xmlns="http://www.w3.org/2000/svg" xmlns:xlink="http://www.w3.org/1999/xlink">
    <title>Weather / Weather / weather-night-thunder</title>
    <g id="Weather-/-Weather-/-weather-night-thunder" stroke="none" stroke-width="1" fill="none" fill-rule="evenodd">
        <path d="M7.35355339,18.1454466 C7.52711974,18.319013 7.54640489,18.5884374 7.41140884,18.7833055 L7.35355339,18.8525534 L5.706,20.499 L7,20.499 C7.4157556,20.499 7.63780306,20.9681551 7.40946921,21.2868015 L7.35355339,21.3525534 L4.85355339,23.8525534 C4.65829124,24.0478155 4.34170876,24.0478155 4.14644661,23.8525534 C3.97288026,23.678987 3.95359511,23.4095626 4.08859116,23.2146945 L4.14644661,23.1454466 L5.792,21.499 L4.5,21.499 C4.0842444,21.499 3.86219694,21.0298449 4.09053079,20.7111985 L4.14644661,20.6454466 L6.64644661,18.1454466 C6.84170876,17.9501845 7.15829124,17.9501845 7.35355339,18.1454466 Z M12.3535534,18.1454466 C12.5271197,18.319013 12.5464049,18.5884374 12.4114088,18.7833055 L12.3535534,18.8525534 L10.706,20.499 L12,20.499 C12.4157556,20.499 12.6378031,20.9681551 12.4094692,21.2868015 L12.3535534,21.3525534 L9.85355339,23.8525534 C9.65829124,24.0478155 9.34170876,24.0478155 9.14644661,23.8525534 C8.97288026,23.678987 8.95359511,23.4095626 9.08859116,23.2146945 L9.14644661,23.1454466 L10.792,21.499 L9.5,21.499 C9.0842444,21.499 8.86219694,21.0298449 9.09053079,20.7111985 L9.14644661,20.6454466 L11.6464466,18.1454466 C11.8417088,17.9501845 12.1582912,17.9501845 12.3535534,18.1454466 Z M17.3535534,18.1454466 C17.5271197,18.319013 17.5464049,18.5884374 17.4114088,18.7833055 L17.3535534,18.8525534 L15.706,20.499 L17,20.499 C17.4157556,20.499 17.6378031,20.9681551 17.4094692,21.2868015 L17.3535534,21.3525534 L14.8535534,23.8525534 C14.6582912,24.0478155 14.3417088,24.0478155 14.1464466,23.8525534 C13.9728803,23.678987 13.9535951,23.4095626 14.0885912,23.2146945 L14.1464466,23.1454466 L15.792,21.499 L14.5,21.499 C14.0842444,21.499 13.8621969,21.0298449 14.0905308,20.7111985 L14.1464466,20.6454466 L16.6464466,18.1454466 C16.8417088,17.9501845 17.1582912,17.9501845 17.3535534,18.1454466 Z M15.8939438,8.38423913 L15.949,8.505 L16.0059042,8.50305307 C17.0244356,8.50493013 17.9970953,8.95177735 18.6623798,9.73237785 L18.8001407,9.90471732 C19.4644688,10.7915517 19.6646458,11.9324521 19.3598099,12.9802971 L19.347,13.017 L19.4104733,13.0686941 C20.3094244,13.8308471 20.8763552,14.9188452 20.9820902,16.0988661 L20.9970497,16.336028 C21.0494514,17.7655297 20.4190874,19.1347934 19.2989912,20.0245156 C19.0827632,20.1962713 18.7682401,20.1602193 18.5964844,19.9439912 C18.4247287,19.7277632 18.4607807,19.4132401 18.6770088,19.2414844 C19.5481947,18.5494783 20.0384778,17.4844954 19.9977209,16.3726607 C19.956964,15.2608261 19.3900227,14.2345983 18.4705088,13.6082344 C18.2722877,13.4732082 18.1978668,13.2164502 18.2931553,12.9963507 C18.6495339,12.1731791 18.5375847,11.22217 17.9997953,10.5042565 C17.4620059,9.78634292 16.5808141,9.4115739 15.6906553,9.52218406 C15.4632329,9.55044332 15.245713,9.42047505 15.1628385,9.20681329 C14.3227065,7.0408375 12.1013558,5.73888241 9.80104441,6.06421402 C7.50073306,6.38954563 5.72755148,8.25644493 5.52102031,10.5704497 C5.49964291,10.809965 5.31079647,11.0003393 5.07146111,11.023646 C3.13544984,11.2121761 1.53972428,12.6233007 1.1157857,14.5217103 C0.691847109,16.42012 1.53567254,18.3760268 3.20756111,19.370246 C3.4449077,19.5113885 3.52289653,19.8182145 3.38175402,20.0555611 C3.24061152,20.2929077 2.93378548,20.3708965 2.69643889,20.229754 C0.653019519,19.0145972 -0.37832267,16.6240445 0.139824491,14.303766 C0.623428508,12.1381727 2.35462399,10.4913877 4.50713821,10.0940966 L4.574,10.083 L4.58797717,9.99736261 C5.01166988,7.52726399 6.93721818,5.56741203 9.41911955,5.11328177 L9.66100862,5.07406758 C12.2540869,4.70733013 14.7635495,6.06381308 15.8939438,8.38423913 Z M23.7151426,0.616653495 C24.0953292,0.797876428 24.0948447,1.339189 23.7143342,1.51973097 C21.8629115,2.39818108 20.6828483,4.26424638 20.6828483,6.3135 C20.6828483,8.36275362 21.8629115,10.2288189 23.7143342,11.107269 C24.094753,11.2877675 24.0953552,11.8289081 23.715339,12.0102528 C22.8717258,12.4128273 21.9492736,12.623133 21.0145323,12.6260001 C20.7383912,12.6268439 20.5138486,12.4036734 20.5130023,12.1275323 C20.5121561,11.8513912 20.7353266,11.6268486 21.0114677,11.6260023 C21.4048404,11.6247968 21.7956274,11.5799419 22.1768268,11.493034 L22.335,11.452 L22.2218063,11.3709525 C20.7091621,10.2444849 19.7639665,8.48339745 19.6878263,6.56462915 L19.6828483,6.3135 C19.6828483,4.29794025 20.643395,2.43149196 22.2218063,1.25604747 L22.334,1.175 L22.2232126,1.14562689 C21.1347011,0.888424593 19.9843569,0.980693199 18.9410883,1.4217033 L18.6825997,1.53922085 C17.2315795,2.24631971 16.1818775,3.57612131 15.8310471,5.15167409 C15.771028,5.42121504 15.5038669,5.59106611 15.2343259,5.53104707 C14.964785,5.47102803 14.7949339,5.20386686 14.8549529,4.93432591 C15.2719778,3.06149902 16.5197367,1.48079146 18.2445344,0.64027771 C19.969332,-0.20023604 21.9831501,-0.20893249 23.7151426,0.616653495 Z" id="Combined-Shape" fill="#000000" fill-rule="nonzero"></path>
    </g>
</svg>