<?xml version="1.0" encoding="UTF-8"?>
<svg viewBox="0 0 24 24" version="1.1" xmlns="http://www.w3.org/2000/svg" xmlns:xlink="http://www.w3.org/1999/xlink">
    <title>Weather / Weather / weather-wind-1</title>
    <g id="Weather-/-Weather-/-weather-wind-1" stroke="none" stroke-width="1" fill="none" fill-rule="evenodd">
        <path d="M7.99793888,19.9999739 C9.01607534,19.9957941 9.87487654,20.7571288 9.99275848,21.7684245 C10.1106409,22.7797245 9.44996999,23.7181775 8.45815897,23.9482534 C7.46634794,24.1783292 6.45998816,23.6265864 6.12059699,22.666671 C6.02854717,22.4063223 6.16498036,22.1206468 6.42532905,22.028597 C6.68567774,21.9365472 6.97135318,22.0729804 7.06340301,22.333329 C7.23309859,22.8132868 7.73627848,23.0891582 8.23218399,22.9741203 C8.72808951,22.8590823 9.05842497,22.3898558 8.99948375,21.8842058 C8.94507647,21.417452 8.57500728,21.0571885 8.11637241,21.0061792 L8,20.9999869 L0.5,20.9999869 C0.223857625,20.9999869 0,20.7761293 0,20.4999869 C0,20.2545271 0.176875161,20.0503786 0.410124368,20.0080426 L0.5,19.9999739 L7.99793888,19.9999739 Z M18.8917898,8.38344 L18.947,8.504 L19.0049042,8.50205307 C20.0234356,8.50393013 20.9960953,8.95077735 21.6613798,9.73137785 L21.7991407,9.90371732 C22.4634688,10.7905517 22.6636458,11.9314521 22.3588099,12.9792971 L22.346,13.016 L22.3799122,13.0426965 C23.7081765,14.1484318 24.2908403,15.9282416 23.8590402,17.61473 L23.7997621,17.8249995 C23.2391204,19.6446565 21.5977469,20.9068967 19.7106466,20.9950663 L19.5,21 L16.5,21 C16.2238576,21 16,20.7761424 16,20.5 C16,20.2545401 16.1768752,20.0503916 16.4101244,20.0080557 L16.5,20 L19.4999067,20 C21.0356972,19.9997133 22.3918887,18.9982621 22.8440935,17.5305551 C23.2962983,16.0628482 22.7388626,14.4718029 21.4695317,13.60725 C21.2712945,13.4722289 21.1968627,13.2154598 21.2921553,12.9953507 C21.6485339,12.1721791 21.5365847,11.22117 20.9987953,10.5032565 C20.4610059,9.78534292 19.5798141,9.4105739 18.6896553,9.52118406 C18.4626842,9.54938725 18.2455113,9.41998573 18.1622811,9.2069504 C17.3184718,7.04714253 15.1004406,5.75088348 12.8045251,6.0757772 C10.5086095,6.40067091 8.73732973,8.26145509 8.52591751,10.5705868 C8.50398733,10.8101173 8.31461362,11.0000878 8.07515331,11.0227716 C6.80422045,11.1431656 5.64423685,11.7977128 4.88412609,12.8233817 C4.12401532,13.8490506 3.83532227,15.1493008 4.08995331,16.4002716 C4.14503178,16.6708653 3.97032214,16.9348748 3.6997284,16.9899533 C3.42913466,17.0450318 3.16512516,16.8703221 3.11004669,16.5997284 C2.79883097,15.070764 3.15167804,13.4815694 4.08070231,12.2279741 C4.9004296,11.1218606 6.10065873,10.3688905 7.4388068,10.1059467 L7.581,10.081 L7.59403016,9.99627123 C8.02220646,7.53163797 9.9457236,5.57808442 12.42298,5.12479211 L12.6644116,5.08564175 C15.2525346,4.71939793 17.7581816,6.06987895 18.8917898,8.38344 Z M13.458159,15.0517466 C14.44997,15.2818225 15.1106409,16.2202755 14.9927585,17.2315755 C14.8810809,18.1896451 14.1044231,18.9233729 13.1590409,18.9943885 L13,19.0000131 L0.5,19.0000131 C0.223857625,19.0000131 0,18.7761554 0,18.5000131 C0,18.2545532 0.176875161,18.0504047 0.410124368,18.0080687 L0.5,18.0000131 L13.0020611,18.0000173 C13.511137,18.0021159 13.9405425,17.6214441 13.9994837,17.1157942 C14.058425,16.6101442 13.7280895,16.1409177 13.232184,16.0258797 C12.7362785,15.9108418 12.2330986,16.1867132 12.063403,16.666671 C11.9713532,16.9270196 11.6856777,17.0634528 11.425329,16.971403 C11.1649804,16.8793532 11.0285472,16.5936777 11.120597,16.333329 C11.4599882,15.3734136 12.4663479,14.8216708 13.458159,15.0517466 Z M10.3492978,4.01357781 C10.5627129,4.18881655 10.5936609,4.50388272 10.4184222,4.7172978 C10.2431834,4.93071288 9.92811728,4.96166092 9.7147022,4.78642219 C8.37251165,3.68432679 6.42517115,3.73311832 5.13985712,4.90104706 C3.85454309,6.06897581 3.62004346,8.0027611 4.5889522,9.44404719 C4.74301358,9.67321896 4.68212459,9.98389081 4.45295281,10.1379522 C4.22378104,10.2920136 3.91310919,10.2311246 3.7590478,10.0019528 C2.513308,8.14887071 2.81480752,5.66257533 4.46735413,4.16095266 C6.11990075,2.65932999 8.62362424,2.59659803 10.3492978,4.01357781 Z M1.5,6 C1.77614237,6 2,6.22385763 2,6.5 C2,6.74545989 1.82312484,6.94960837 1.58987563,6.99194433 L1.5,7 L0.5,7 C0.223857625,7 0,6.77614237 0,6.5 C0,6.25454011 0.176875161,6.05039163 0.410124368,6.00805567 L0.5,6 L1.5,6 Z M2.50857036,1.81177431 L2.57778098,1.86967434 L3.35378098,2.64667434 C3.54891735,2.84206218 3.5487135,3.1586446 3.35332566,3.35378098 C3.17964758,3.52723553 2.91021082,3.54634719 2.71542964,3.41122569 L2.64621902,3.35332566 L1.87021902,2.57632566 C1.67508265,2.38093782 1.6752865,2.0643554 1.87067434,1.86921902 C2.04435242,1.69576447 2.31378918,1.67665281 2.50857036,1.81177431 Z M13.1293257,1.86921902 C13.3030037,2.04267358 13.3224624,2.31208551 13.1875918,2.50704053 L13.129781,2.57632566 L12.353781,3.35332566 C12.1586446,3.5487135 11.8420622,3.54891735 11.6466743,3.35378098 C11.4729963,3.18032642 11.4535376,2.91091449 11.5884082,2.71595947 L11.646219,2.64667434 L12.422219,1.86967434 C12.6173554,1.6742865 12.9339378,1.67408265 13.1293257,1.86921902 Z M7.5,0 C7.74545989,0 7.94960837,0.176875161 7.99194433,0.410124368 L8,0.5 L8,1.5 C8,1.77614237 7.77614237,2 7.5,2 C7.25454011,2 7.05039163,1.82312484 7.00805567,1.58987563 L7,1.5 L7,0.5 C7,0.223857625 7.22385763,0 7.5,0 Z" id="Combined-Shape" fill="#000000" fill-rule="nonzero"></path>
    </g>
</svg>