<?xml version="1.0" encoding="UTF-8"?>
<svg  viewBox="0 0 24 24" version="1.1" xmlns="http://www.w3.org/2000/svg" xmlns:xlink="http://www.w3.org/1999/xlink">
    <title>Weather / Weather / weather-cloud-wind-3</title>
    <g id="Weather-/-Weather-/-weather-cloud-wind-3" stroke="none" stroke-width="1" fill="none" fill-rule="evenodd">
        <path d="M18.5,21.5 C18.7761424,21.5 19,21.7238576 19,22 C19,22.2454599 18.8231248,22.4496084 18.5898756,22.4919443 L18.5,22.5 L0.5,22.5 C0.223857625,22.5 0,22.2761424 0,22 C0,21.7545401 0.176875161,21.5503916 0.410124368,21.5080557 L0.5,21.5 L18.5,21.5 Z M23.5,18.5 C23.7761424,18.5 24,18.7238576 24,19 C24,19.2454599 23.8231248,19.4496084 23.5898756,19.4919443 L23.5,19.5 L3.5,19.5 C3.22385763,19.5 3,19.2761424 3,19 C3,18.7545401 3.17687516,18.5503916 3.41012437,18.5080557 L3.5,18.5 L23.5,18.5 Z M18.5,15.5 C18.7761424,15.5 19,15.7238576 19,16 C19,16.2454599 18.8231248,16.4496084 18.5898756,16.4919443 L18.5,16.5 L0.5,16.5 C0.223857625,16.5 0,16.2761424 0,16 C0,15.7545401 0.176875161,15.5503916 0.410124368,15.5080557 L0.5,15.5 L18.5,15.5 Z M16.8939438,4.88323913 L16.949,5.004 L17.0059042,5.00205307 C18.0244356,5.00393013 18.9970953,5.45077735 19.6623798,6.23137785 L19.8001407,6.40371732 C20.4201803,7.23142943 20.6358927,8.28046123 20.4140557,9.26859017 L20.348,9.515 L20.3803785,9.54054547 C21.6573614,10.5969742 22.2500658,12.2829432 21.9021144,13.9153089 L21.8513739,14.127866 C21.7807554,14.394826 21.507094,14.5539923 21.240134,14.4833739 C20.973174,14.4127554 20.8140077,14.139094 20.8846261,13.872134 C21.2621969,12.4447976 20.6955158,10.9348169 19.4721013,10.1083148 C19.2727615,9.97364675 19.1975789,9.71611534 19.2931553,9.49535073 C19.6495339,8.67217906 19.5375847,7.72117004 18.9997953,7.00325648 C18.4620059,6.28534292 17.5808141,5.9105739 16.6906553,6.02118406 C16.4632329,6.04944332 16.245713,5.91947505 16.1628385,5.70581329 C15.3227065,3.5398375 13.1013558,2.23788241 10.8010444,2.56321402 C8.50073306,2.88854563 6.72755148,4.75544493 6.52102031,7.06944966 C6.49958886,7.30957063 6.30986958,7.50020862 6.06985494,7.52279977 C4.63425238,7.65792453 3.35089655,8.47430641 2.62005702,9.7173217 C1.8892175,10.960337 1.79983109,12.4787215 2.37977679,13.798902 C2.49084016,14.0517251 2.37592116,14.3467134 2.12309802,14.4577768 C1.87027488,14.5688402 1.57528659,14.4539212 1.46422321,14.201098 C0.755113666,12.5868907 0.86440796,10.7303359 1.75801798,9.21047982 C2.56652229,7.83537191 3.92804516,6.88728524 5.48010873,6.59680307 L5.574,6.581 L5.58797717,6.49636261 C6.01166988,4.02626399 7.93721818,2.06641203 10.4191196,1.61228177 L10.6610086,1.57306758 C13.2540869,1.20633013 15.7635495,2.56281308 16.8939438,4.88323913 Z" id="Combined-Shape" fill="#000000" fill-rule="nonzero"></path>
    </g>
</svg>