<?xml version="1.0" encoding="UTF-8"?>
<svg viewBox="0 0 24 24" version="1.1" xmlns="http://www.w3.org/2000/svg" xmlns:xlink="http://www.w3.org/1999/xlink">
    <title>Weather / Weather / weather-rain</title>
    <g id="Weather-/-Weather-/-weather-rain" stroke="none" stroke-width="1" fill="none" fill-rule="evenodd">
        <path d="M5.75,21.58 C6.15539835,21.58 6.49276463,21.8997382 6.49988518,22.3068588 C6.49994234,22.3111496 6.5,22.3155681 6.5,22.32 C6.5,22.6989136 6.21409571,23.0049578 5.85083296,23.0533338 L5.75,23.06 L5.75,23.06 C5.34024973,23.06 5,22.7333603 5,22.32 L5.001,22.307 L5.00693185,22.2186055 C5.05719093,21.8544681 5.37439559,21.58 5.75,21.58 Z M15.75,21.58 C16.1553983,21.58 16.4927646,21.8997382 16.4998852,22.3068588 C16.4999423,22.3111496 16.5,22.3155681 16.5,22.32 C16.5,22.6989136 16.2140957,23.0049578 15.850833,23.0533338 L15.75,23.06 L15.75,23.06 C15.3402497,23.06 15,22.7333603 15,22.32 L15.001,22.307 L15.0069319,22.2186055 C15.0571909,21.8544681 15.3743956,21.58 15.75,21.58 Z M11.75,20.62 C12.1523855,20.62 12.4877463,20.9350033 12.4996718,21.3377964 C12.4998349,21.3450382 12.5,21.3524998 12.5,21.36 C12.5,21.7389136 12.2140957,22.0449578 11.850833,22.0933338 L11.75,22.1 L11.75,22.1 C11.3402497,22.1 11,21.7733603 11,21.36 L11.001,21.347 L11.0069319,21.2586055 C11.0571909,20.8944681 11.3743956,20.62 11.75,20.62 Z M11.1106937,17.1737341 C11.2806824,17.3508057 11.2944663,17.6205675 11.1555222,17.8126407 L11.0962659,17.8806937 L7.59626591,21.2406937 C7.39706031,21.431931 7.08054372,21.4254715 6.88930634,21.2262659 C6.71931755,21.0491943 6.70553373,20.7794325 6.84447775,20.5873593 L6.90373409,20.5193063 L10.4037341,17.1593063 C10.6029397,16.968069 10.9194563,16.9745285 11.1106937,17.1737341 Z M21.1106937,17.1737341 C21.2806824,17.3508057 21.2944663,17.6205675 21.1555222,17.8126407 L21.0962659,17.8806937 L17.5962659,21.2406937 C17.3970603,21.431931 17.0805437,21.4254715 16.8893063,21.2262659 C16.7193176,21.0491943 16.7055337,20.7794325 16.8444778,20.5873593 L16.9037341,20.5193063 L20.4037341,17.1593063 C20.6029397,16.968069 20.9194563,16.9745285 21.1106937,17.1737341 Z M15.8606937,17.4137341 C16.0306824,17.5908057 16.0444663,17.8605675 15.9055222,18.0526407 L15.8462659,18.1206937 L13.5962659,20.2806937 C13.3970603,20.471931 13.0805437,20.4654715 12.8893063,20.2662659 C12.7193176,20.0891943 12.7055337,19.8194325 12.8444778,19.6273593 L12.9037341,19.5593063 L15.1537341,17.3993063 C15.3529397,17.208069 15.6694563,17.2145285 15.8606937,17.4137341 Z M18.8909309,8.03304764 L18.943,8.143 L19.006448,8.14197837 C20.0207713,8.14395577 20.9906672,8.57200159 21.6562801,9.32212274 L21.7941593,9.48775482 C22.419422,10.289052 22.6372964,11.3074189 22.4131334,12.2662905 L22.353,12.485 L22.4037634,12.5240375 C23.3058102,13.2583893 23.8761767,14.3093611 23.9826333,15.4511074 L23.9977,15.6806001 C24.050539,17.0645867 23.4156056,18.3882214 22.2910996,19.2453364 C22.07148,19.4127337 21.7577409,19.3703992 21.5903436,19.1507796 C21.4229463,18.93116 21.4652808,18.6174209 21.6849004,18.4500236 C22.5524839,17.7887386 23.038755,16.7750177 22.998428,15.7187511 C22.9580792,14.6619129 22.3951889,13.6840041 21.4784315,13.0847616 C21.2722782,12.9500085 21.194956,12.6852023 21.2962053,12.4606891 C21.6473441,11.6820631 21.5372238,10.7840091 21.0057767,10.10294 C20.4689327,9.41495454 19.5839533,9.05362987 18.6882244,9.16048008 C18.4641524,9.18720931 18.2499462,9.06053619 18.16541,8.85130817 C17.3279847,6.77867045 15.1047263,5.52772019 12.7982954,5.8408694 C10.495334,6.15354755 8.72618958,7.94169037 8.52085298,10.1502862 C8.49858159,10.3898368 8.30886742,10.5795632 8.06931824,10.60185 C6.12902552,10.7823681 4.53450237,12.1352865 4.11257488,13.9484343 C3.69182019,15.7565423 4.53037469,17.6219096 6.19876114,18.5737024 C6.43861709,18.7105371 6.52213231,19.0159052 6.38529762,19.2557611 C6.24846292,19.4956171 5.94309482,19.5791323 5.70323886,19.4422976 C3.654432,18.27348 2.61662275,15.9648698 3.13859829,13.7217857 C3.62468086,11.6329444 5.35899916,10.0496522 7.50973841,9.66904596 L7.577,9.658 L7.59089311,9.57675087 C8.02056223,7.20359454 9.94332558,5.32629335 12.4148146,4.88886884 L12.6637576,4.84996094 C15.2510872,4.4986735 17.758518,5.79999722 18.8909309,8.03304764 Z M10.3402508,3.83110826 C10.557239,4.00190279 10.5946863,4.31626273 10.4238917,4.53325084 C10.2530972,4.75023896 9.93873727,4.78768626 9.72174916,4.61689174 C8.37640188,3.55794918 6.42013454,3.60576074 5.13329552,4.72849428 C3.85698339,5.84204338 3.62480736,7.67650754 4.58372549,9.04750536 C4.74199629,9.2737905 4.68685978,9.58553469 4.46057464,9.74380549 C4.2342895,9.90207629 3.92254531,9.84693978 3.76427451,9.62065464 C2.51143447,7.82942669 2.81597611,5.42318895 4.47586963,3.97497507 C6.12523627,2.53594562 8.61741175,2.47503636 10.3402508,3.83110826 Z M1.5,5.74 C1.77614237,5.74 2,5.96385763 2,6.24 C2,6.48545989 1.82312484,6.68960837 1.58987563,6.73194433 L1.5,6.74 L0.5,6.74 C0.223857625,6.74 0,6.51614237 0,6.24 C0,5.99454011 0.176875161,5.79039163 0.410124368,5.74805567 L0.5,5.74 L1.5,5.74 Z M2.50012028,1.71713343 L2.57049791,1.7736092 L3.34649791,2.5195292 C3.54558044,2.71089471 3.55183631,3.02741539 3.3604708,3.22649791 C3.19036812,3.40346016 2.92137742,3.42806554 2.72387972,3.29694657 L2.65350209,3.2404708 L1.87750209,2.4945508 C1.67841956,2.30318529 1.67216369,1.98666461 1.8635292,1.78758209 C2.03363188,1.61061984 2.30262258,1.58601446 2.50012028,1.71713343 Z M13.1364708,1.78758209 C13.3065735,1.96454433 13.3205309,2.23429721 13.1817104,2.42645969 L13.1224979,2.4945508 L12.3464979,3.2404708 C12.1474154,3.43183631 11.8308947,3.42558044 11.6395292,3.22649791 C11.4694265,3.04953567 11.4554691,2.77978279 11.5942896,2.58762031 L11.6535021,2.5195292 L12.4295021,1.7736092 C12.6285846,1.58224369 12.9451053,1.58849956 13.1364708,1.78758209 Z M7.5,-0.02 C7.74545989,-0.02 7.94960837,0.156875161 7.99194433,0.390124368 L8,0.48 L8,1.44 C8,1.71614237 7.77614237,1.94 7.5,1.94 C7.25454011,1.94 7.05039163,1.76312484 7.00805567,1.52987563 L7,1.44 L7,0.48 C7,0.203857625 7.22385763,-0.02 7.5,-0.02 Z" id="Combined-Shape" fill="#000000" fill-rule="nonzero"></path>
    </g>
</svg>