<?xml version="1.0" encoding="UTF-8"?>
<svg  viewBox="0 0 24 24" version="1.1" xmlns="http://www.w3.org/2000/svg" xmlns:xlink="http://www.w3.org/1999/xlink">
    <title>Weather / Weather / weather-cloud-rain-thunder</title>
    <g id="Weather-/-Weather-/-weather-cloud-rain-thunder" stroke="none" stroke-width="1" fill="none" fill-rule="evenodd">
        <path d="M17.8535534,18.1464466 C18.0271197,18.320013 18.0464049,18.5894374 17.9114088,18.7843055 L17.8535534,18.8535534 L12.8535534,23.8535534 C12.6582912,24.0488155 12.3417088,24.0488155 12.1464466,23.8535534 C11.9728803,23.679987 11.9535951,23.4105626 12.0885912,23.2156945 L12.1464466,23.1464466 L17.1464466,18.1464466 C17.3417088,17.9511845 17.6582912,17.9511845 17.8535534,18.1464466 Z M7.85355339,18.1464466 C8.02711974,18.320013 8.04640489,18.5894374 7.91140884,18.7843055 L7.85355339,18.8535534 L2.85355339,23.8535534 C2.65829124,24.0488155 2.34170876,24.0488155 2.14644661,23.8535534 C1.97288026,23.679987 1.95359511,23.4105626 2.08859116,23.2156945 L2.14644661,23.1464466 L7.14644661,18.1464466 C7.34170876,17.9511845 7.65829124,17.9511845 7.85355339,18.1464466 Z M11.8535534,18.1464466 C12.0271197,18.320013 12.0464049,18.5894374 11.9114088,18.7843055 L11.8535534,18.8535534 L10.206,20.5 L11.5,20.5 C11.9157556,20.5 12.1378031,20.9691551 11.9094692,21.2878015 L11.8535534,21.3535534 L9.35355339,23.8535534 C9.15829124,24.0488155 8.84170876,24.0488155 8.64644661,23.8535534 C8.47288026,23.679987 8.45359511,23.4105626 8.58859116,23.2156945 L8.64644661,23.1464466 L10.292,21.5 L9,21.5 C8.5842444,21.5 8.36219694,21.0308449 8.59053079,20.7121985 L8.64644661,20.6464466 L11.1464466,18.1464466 C11.3417088,17.9511845 11.6582912,17.9511845 11.8535534,18.1464466 Z M11.1610086,0.0730675813 C13.7540869,-0.293669868 16.2635495,1.06281308 17.3939438,3.38323913 L17.3939438,3.38323913 L17.449,3.504 L17.5059042,3.50205307 C18.5244356,3.50393013 19.4970953,3.95077735 20.1623798,4.73137785 L20.1623798,4.73137785 L20.3001407,4.90371732 C20.9644688,5.79055172 21.1646458,6.9314521 20.8598099,7.97929705 L20.8598099,7.97929705 L20.847,8.016 L20.8809468,8.0427253 C22.2093356,9.14858632 22.7919537,10.9286419 22.3599064,12.6152528 L22.3599064,12.6152528 L22.3005964,12.825537 C21.7189096,14.7126609 19.9748284,16 18,16 L18,16 L6.99781033,16 C4.0717156,15.9871807 1.66794056,13.6855382 1.5281744,10.7627553 C1.39557573,7.98985865 3.34478235,5.57903363 6.03122165,5.08974905 L6.03122165,5.08974905 L6.074,5.082 L6.08797717,4.99636261 C6.51166988,2.52626399 8.43721818,0.566412035 10.9191196,0.112281772 L10.9191196,0.112281772 Z M16.6628385,4.20581329 C15.8227065,2.0398375 13.6013558,0.737882415 11.3010444,1.06321402 C9.00073306,1.38854563 7.22755148,3.25544493 7.02102031,5.56944966 C6.99969097,5.80842656 6.8116192,5.99856505 6.57288967,6.02250479 C4.19073675,6.26138656 2.41267887,8.32362246 2.527033,10.7149903 C2.64138713,13.1063581 4.60811216,14.9895202 7,15 L7,15 L18,15 C19.5360265,15 20.8925437,13.9987293 21.3449645,12.5309732 C21.7974004,11.0631684 21.2399961,9.47189388 19.9705316,8.60725 C19.7722945,8.47222886 19.6978627,8.2154598 19.7931553,7.99535073 C20.1495339,7.17217906 20.0375847,6.22117004 19.4997953,5.50325648 C18.9620059,4.78534292 18.0808141,4.4105739 17.1906553,4.52118406 C16.9632329,4.54944332 16.745713,4.41947505 16.6628385,4.20581329 Z" id="Combined-Shape" fill="#000000" fill-rule="nonzero"></path>
    </g>
</svg>