<?xml version="1.0" encoding="UTF-8"?>
<svg width="24px" height="24px" viewBox="0 0 24 24" version="1.1" xmlns="http://www.w3.org/2000/svg" xmlns:xlink="http://www.w3.org/1999/xlink">
    <title>Weather / Weather / weather-rain-thunder</title>
    <g id="Weather-/-Weather-/-weather-rain-thunder" stroke="none" stroke-width="1" fill="none" fill-rule="evenodd">
        <path d="M14.3535534,18.1464466 C14.5271197,18.320013 14.5464049,18.5894374 14.4114088,18.7843055 L14.3535534,18.8535534 L12.706,20.5 L14,20.5 C14.4157556,20.5 14.6378031,20.9691551 14.4094692,21.2878015 L14.3535534,21.3535534 L11.8535534,23.8535534 C11.6582912,24.0488155 11.3417088,24.0488155 11.1464466,23.8535534 C10.9728803,23.679987 10.9535951,23.4105626 11.0885912,23.2156945 L11.1464466,23.1464466 L12.792,21.5 L11.5,21.5 C11.0842444,21.5 10.8621969,21.0308449 11.0905308,20.7121985 L11.1464466,20.6464466 L13.6464466,18.1464466 C13.8417088,17.9511845 14.1582912,17.9511845 14.3535534,18.1464466 Z M20.3535534,18.1174466 C20.5271197,18.291013 20.5464049,18.5604374 20.4114088,18.7553055 L20.3535534,18.8245534 L15.3535534,23.8245534 C15.1582912,24.0198155 14.8417088,24.0198155 14.6464466,23.8245534 C14.4728803,23.650987 14.4535951,23.3815626 14.5885912,23.1866945 L14.6464466,23.1174466 L19.6464466,18.1174466 C19.8417088,17.9221845 20.1582912,17.9221845 20.3535534,18.1174466 Z M10.3535534,18.1174466 C10.5271197,18.291013 10.5464049,18.5604374 10.4114088,18.7553055 L10.3535534,18.8245534 L5.35355339,23.8245534 C5.15829124,24.0198155 4.84170876,24.0198155 4.64644661,23.8245534 C4.47288026,23.650987 4.45359511,23.3815626 4.58859116,23.1866945 L4.64644661,23.1174466 L9.64644661,18.1174466 C9.84170876,17.9221845 10.1582912,17.9221845 10.3535534,18.1174466 Z M18.8939438,8.38423913 L18.949,8.505 L19.0059042,8.50305307 C20.0244356,8.50493013 20.9970953,8.95177735 21.6623798,9.73237785 L21.8001407,9.90471732 C22.4644688,10.7915517 22.6646458,11.9324521 22.3598099,12.9802971 L22.347,13.017 L22.4104733,13.0686941 C23.3094244,13.8308471 23.8763552,14.9188452 23.9820902,16.0988661 L23.9970497,16.336028 C24.0494514,17.7655297 23.4190874,19.1347934 22.2989912,20.0245156 C22.0827632,20.1962713 21.7682401,20.1602193 21.5964844,19.9439912 C21.4247287,19.7277632 21.4607807,19.4132401 21.6770088,19.2414844 C22.5481947,18.5494783 23.0384778,17.4844954 22.9977209,16.3726607 C22.956964,15.2608261 22.3900227,14.2345983 21.4705088,13.6082344 C21.2722877,13.4732082 21.1978668,13.2164502 21.2931553,12.9963507 C21.6495339,12.1731791 21.5375847,11.22217 20.9997953,10.5042565 C20.4620059,9.78634292 19.5808141,9.4115739 18.6906553,9.52218406 C18.4632329,9.55044332 18.245713,9.42047505 18.1628385,9.20681329 C17.3227065,7.0408375 15.1013558,5.73888241 12.8010444,6.06421402 C10.5007331,6.38954563 8.72755148,8.25644493 8.52102031,10.5704497 C8.49964291,10.809965 8.31079647,11.0003393 8.07146111,11.023646 C6.13544984,11.2121761 4.53972428,12.6233007 4.1157857,14.5217103 C3.69184711,16.42012 4.53567254,18.3760268 6.20756111,19.370246 C6.4449077,19.5113885 6.52289653,19.8182145 6.38175402,20.0555611 C6.24061152,20.2929077 5.93378548,20.3708965 5.69643889,20.229754 C3.65301952,19.0145972 2.62167733,16.6240445 3.13982449,14.303766 C3.62342851,12.1381727 5.35462399,10.4913877 7.50713821,10.0940966 L7.574,10.083 L7.58797717,9.99736261 C8.01166988,7.52726399 9.93721818,5.56741203 12.4191196,5.11328177 L12.6610086,5.07406758 C15.2540869,4.70733013 17.7635495,6.06381308 18.8939438,8.38423913 Z M10.3492978,4.01357781 C10.5627129,4.18881655 10.5936609,4.50388272 10.4184222,4.7172978 C10.2431834,4.93071288 9.92811728,4.96166092 9.7147022,4.78642219 C8.37251165,3.68432679 6.42517115,3.73311832 5.13985712,4.90104706 C3.85454309,6.06897581 3.62004346,8.0027611 4.5889522,9.44404719 C4.74301358,9.67321896 4.68212459,9.98389081 4.45295281,10.1379522 C4.22378104,10.2920136 3.91310919,10.2311246 3.7590478,10.0019528 C2.513308,8.14887071 2.81480752,5.66257533 4.46735413,4.16095266 C6.11990075,2.65932999 8.62362424,2.59659803 10.3492978,4.01357781 Z M1.5,6 C1.77614237,6 2,6.22385763 2,6.5 C2,6.74545989 1.82312484,6.94960837 1.58987563,6.99194433 L1.5,7 L0.5,7 C0.223857625,7 0,6.77614237 0,6.5 C0,6.25454011 0.176875161,6.05039163 0.410124368,6.00805567 L0.5,6 L1.5,6 Z M2.50857036,1.81177431 L2.57778098,1.86967434 L3.35378098,2.64667434 C3.54891735,2.84206218 3.5487135,3.1586446 3.35332566,3.35378098 C3.17964758,3.52723553 2.91021082,3.54634719 2.71542964,3.41122569 L2.64621902,3.35332566 L1.87021902,2.57632566 C1.67508265,2.38093782 1.6752865,2.0643554 1.87067434,1.86921902 C2.04435242,1.69576447 2.31378918,1.67665281 2.50857036,1.81177431 Z M13.1293257,1.86921902 C13.3030037,2.04267358 13.3224624,2.31208551 13.1875918,2.50704053 L13.129781,2.57632566 L12.353781,3.35332566 C12.1586446,3.5487135 11.8420622,3.54891735 11.6466743,3.35378098 C11.4729963,3.18032642 11.4535376,2.91091449 11.5884082,2.71595947 L11.646219,2.64667434 L12.422219,1.86967434 C12.6173554,1.6742865 12.9339378,1.67408265 13.1293257,1.86921902 Z M7.5,0 C7.74545989,0 7.94960837,0.176875161 7.99194433,0.410124368 L8,0.5 L8,1.5 C8,1.77614237 7.77614237,2 7.5,2 C7.25454011,2 7.05039163,1.82312484 7.00805567,1.58987563 L7,1.5 L7,0.5 C7,0.223857625 7.22385763,0 7.5,0 Z" id="Combined-Shape" fill="#000000" fill-rule="nonzero"></path>
    </g>
</svg>