<?xml version="1.0" encoding="UTF-8"?>
<svg  viewBox="0 0 24 24" version="1.1" xmlns="http://www.w3.org/2000/svg" xmlns:xlink="http://www.w3.org/1999/xlink">
    <title>Weather / Weather / weather-cloud-wind-4</title>
    <g id="Weather-/-Weather-/-weather-cloud-wind-4" stroke="none" stroke-width="1" fill="none" fill-rule="evenodd">
        <path d="M9.5,18.5 C10.8807119,18.5 12,19.6192881 12,21 C12,22.3807119 10.8807119,23.5 9.5,23.5 C8.11928813,23.5 7,22.3807119 7,21 C7,20.7238576 7.22385763,20.5 7.5,20.5 C7.77614237,20.5 8,20.7238576 8,21 C8,21.8284271 8.67157288,22.5 9.5,22.5 C10.3284271,22.5 11,21.8284271 11,21 C11,20.2203039 10.4051119,19.5795513 9.64446001,19.5068666 L9.5,19.5 L1.5,19.5 C1.22385763,19.5 1,19.2761424 1,19 C1,18.7545401 1.17687516,18.5503916 1.41012437,18.5080557 L1.5,18.5 L9.5,18.5 Z M13.5,12.5 C14.8807119,12.5 16,13.6192881 16,15 C16,16.3254834 14.9684641,17.4100387 13.6643757,17.4946823 L13.5,17.5 L1.5,17.5 C1.22385763,17.5 1,17.2761424 1,17 C1,16.7545401 1.17687516,16.5503916 1.41012437,16.5080557 L1.5,16.5 L13.5,16.5 C14.3284271,16.5 15,15.8284271 15,15 C15,14.1715729 14.3284271,13.5 13.5,13.5 C12.6715729,13.5 12,14.1715729 12,15 C12,15.2761424 11.7761424,15.5 11.5,15.5 C11.2238576,15.5 11,15.2761424 11,15 C11,13.6192881 12.1192881,12.5 13.5,12.5 Z M17.8917898,3.88344 L17.947,4.004 L18.0049042,4.00205307 C19.0234356,4.00393013 19.9960953,4.45077735 20.6613798,5.23137785 L20.7991407,5.40371732 C21.4634688,6.29055172 21.6636458,7.4314521 21.3588099,8.47929705 L21.346,8.516 L21.3799122,8.54269651 C22.7081765,9.64843182 23.2908403,11.4282416 22.8590402,13.11473 L22.7997621,13.3249995 C22.2391204,15.1446565 20.5977469,16.4068967 18.7106466,16.4950663 L18.5,16.5 L17.5,16.5 C17.2238576,16.5 17,16.2761424 17,16 C17,15.7545401 17.1768752,15.5503916 17.4101244,15.5080557 L17.5,15.5 L18.4999067,15.5 C20.0356972,15.4997133 21.3918887,14.4982621 21.8440935,13.0305551 C22.2962983,11.5628482 21.7388626,9.97180289 20.4695317,9.10725001 C20.2712945,8.97222887 20.1968627,8.7154598 20.2921553,8.49535073 C20.6485339,7.67217906 20.5365847,6.72117004 19.9987953,6.00325648 C19.4610059,5.28534292 18.5798141,4.9105739 17.6896553,5.02118406 C17.4626842,5.04938725 17.2455113,4.91998573 17.1622811,4.7069504 C16.3184718,2.54714253 14.1004406,1.25088348 11.8045251,1.5757772 C9.5086095,1.90067091 7.73732973,3.76145509 7.52591751,6.07058677 C7.50394838,6.31054273 7.31396094,6.50069722 7.07402439,6.52287725 C5.22087033,6.6941851 3.66604603,7.99215335 3.16647298,9.7849035 C2.66689993,11.5776537 3.32638503,13.4926679 4.82387694,14.5976766 C5.046074,14.7616373 5.09328396,15.0746799 4.92932335,15.2968769 C4.76536274,15.519074 4.45232011,15.566284 4.23012306,15.4023234 C2.3987422,14.0509358 1.59221471,11.7089396 2.20317529,9.51646812 C2.77200065,7.47520157 4.45949498,5.95845196 6.51858653,5.58987524 L6.581,5.579 L6.59403016,5.49627123 C7.02220646,3.03163797 8.9457236,1.07808442 11.42298,0.624792106 L11.6644116,0.585641749 C14.2525346,0.219397927 16.7581816,1.56987895 17.8917898,3.88344 Z" id="Combined-Shape" fill="#000000" fill-rule="nonzero"></path>
    </g>
</svg>