<?xml version="1.0" encoding="UTF-8"?>
<svg  viewBox="0 0 24 24" version="1.1" xmlns="http://www.w3.org/2000/svg" xmlns:xlink="http://www.w3.org/1999/xlink">
    <title>Weather / Weather / weather-cloud-snow</title>
    <g id="Weather-/-Weather-/-weather-cloud-snow" stroke="none" stroke-width="1" fill="none" fill-rule="evenodd">
        <path d="M6,21.58 C6.40569333,21.58 6.74325557,21.9002036 6.7499002,22.3077477 C6.74994976,22.3117378 6.75,22.315863 6.75,22.32 C6.75,22.6989136 6.46409571,23.0049578 6.10083296,23.0533338 L6,23.06 L6,23.06 C5.59024973,23.06 5.25,22.7333603 5.25,22.32 L5.2507885,22.3070603 L5.25693185,22.2186055 C5.30719093,21.8544681 5.62439559,21.58 6,21.58 Z M10,21.58 C10.4056933,21.58 10.7432556,21.9002036 10.7499002,22.3077477 C10.7499498,22.3117378 10.75,22.315863 10.75,22.32 C10.75,22.6989136 10.4640957,23.0049578 10.100833,23.0533338 L10,23.06 L10,23.06 C9.59024973,23.06 9.25,22.7333603 9.25,22.32 L9.2507885,22.3070603 L9.25693185,22.2186055 C9.30719093,21.8544681 9.62439559,21.58 10,21.58 Z M14,21.58 C14.4056933,21.58 14.7432556,21.9002036 14.7499002,22.3077477 C14.7499498,22.3117378 14.75,22.315863 14.75,22.32 C14.75,22.6989136 14.4640957,23.0049578 14.100833,23.0533338 L14,23.06 L14,23.06 C13.5902497,23.06 13.25,22.7333603 13.25,22.32 L13.2507885,22.3070603 L13.2569319,22.2186055 C13.3071909,21.8544681 13.6243956,21.58 14,21.58 Z M18,21.58 C18.4056933,21.58 18.7432556,21.9002036 18.7499002,22.3077477 C18.7499498,22.3117378 18.75,22.315863 18.75,22.32 C18.75,22.6989136 18.4640957,23.0049578 18.100833,23.0533338 L18,23.06 L18,23.06 C17.5902497,23.06 17.25,22.7333603 17.25,22.32 L17.2507885,22.3070603 L17.2569319,22.2186055 C17.3071909,21.8544681 17.6243956,21.58 18,21.58 Z M8,20.14 C8.40569333,20.14 8.74325557,20.4602036 8.7499002,20.8677477 C8.74994976,20.8717378 8.75,20.875863 8.75,20.88 C8.75,21.2589136 8.46409571,21.5649578 8.10083296,21.6133338 L8,21.62 L8,21.62 C7.59024973,21.62 7.25,21.2933603 7.25,20.88 L7.2507885,20.8670603 L7.25693185,20.7786055 C7.30719093,20.4144681 7.62439559,20.14 8,20.14 Z M12,20.14 C12.4056933,20.14 12.7432556,20.4602036 12.7499002,20.8677477 C12.7499498,20.8717378 12.75,20.875863 12.75,20.88 C12.75,21.2589136 12.4640957,21.5649578 12.100833,21.6133338 L12,21.62 L12,21.62 C11.5902497,21.62 11.25,21.2933603 11.25,20.88 L11.2507885,20.8670603 L11.2569319,20.7786055 C11.3071909,20.4144681 11.6243956,20.14 12,20.14 Z M16,20.14 C16.4056933,20.14 16.7432556,20.4602036 16.7499002,20.8677477 C16.7499498,20.8717378 16.75,20.875863 16.75,20.88 C16.75,21.2589136 16.4640957,21.5649578 16.100833,21.6133338 L16,21.62 L16,21.62 C15.5902497,21.62 15.25,21.2933603 15.25,20.88 L15.2507885,20.8670603 L15.2569319,20.7786055 C15.3071909,20.4144681 15.6243956,20.14 16,20.14 Z M6,18.7 C6.40569333,18.7 6.74325557,19.0202036 6.7499002,19.4277477 C6.74994976,19.4317378 6.75,19.435863 6.75,19.44 C6.75,19.8189136 6.46409571,20.1249578 6.10083296,20.1733338 L6,20.18 L6,20.18 C5.59024973,20.18 5.25,19.8533603 5.25,19.44 L5.2507885,19.4270603 L5.25693185,19.3386055 C5.30719093,18.9744681 5.62439559,18.7 6,18.7 Z M10,18.7 C10.4056933,18.7 10.7432556,19.0202036 10.7499002,19.4277477 C10.7499498,19.4317378 10.75,19.435863 10.75,19.44 C10.75,19.8189136 10.4640957,20.1249578 10.100833,20.1733338 L10,20.18 L10,20.18 C9.59024973,20.18 9.25,19.8533603 9.25,19.44 L9.2507885,19.4270603 L9.25693185,19.3386055 C9.30719093,18.9744681 9.62439559,18.7 10,18.7 Z M14,18.7 C14.4056933,18.7 14.7432556,19.0202036 14.7499002,19.4277477 C14.7499498,19.4317378 14.75,19.435863 14.75,19.44 C14.75,19.8189136 14.4640957,20.1249578 14.100833,20.1733338 L14,20.18 L14,20.18 C13.5902497,20.18 13.25,19.8533603 13.25,19.44 L13.2507885,19.4270603 L13.2569319,19.3386055 C13.3071909,18.9744681 13.6243956,18.7 14,18.7 Z M18,18.7 C18.4056933,18.7 18.7432556,19.0202036 18.7499002,19.4277477 C18.7499498,19.4317378 18.75,19.435863 18.75,19.44 C18.75,19.8189136 18.4640957,20.1249578 18.100833,20.1733338 L18,20.18 L18,20.18 C17.5902497,20.18 17.25,19.8533603 17.25,19.44 L17.2507885,19.4270603 L17.2569319,19.3386055 C17.3071909,18.9744681 17.6243956,18.7 18,18.7 Z M8,17.26 C8.40569333,17.26 8.74325557,17.5802036 8.7499002,17.9877477 C8.74994976,17.9917378 8.75,17.995863 8.75,18 C8.75,18.3789136 8.46409571,18.6849578 8.10083296,18.7333338 L8,18.74 L8,18.74 C7.59024973,18.74 7.25,18.4133603 7.25,18 L7.2507885,17.9870603 L7.25693185,17.8986055 C7.30719093,17.5344681 7.62439559,17.26 8,17.26 Z M12,17.26 C12.4056933,17.26 12.7432556,17.5802036 12.7499002,17.9877477 C12.7499498,17.9917378 12.75,17.995863 12.75,18 C12.75,18.3789136 12.4640957,18.6849578 12.100833,18.7333338 L12,18.74 L12,18.74 C11.5902497,18.74 11.25,18.4133603 11.25,18 L11.2507885,17.9870603 L11.2569319,17.8986055 C11.3071909,17.5344681 11.6243956,17.26 12,17.26 Z M16,17.26 C16.4056933,17.26 16.7432556,17.5802036 16.7499002,17.9877477 C16.7499498,17.9917378 16.75,17.995863 16.75,18 C16.75,18.3789136 16.4640957,18.6849578 16.100833,18.7333338 L16,18.74 L16,18.74 C15.5902497,18.74 15.25,18.4133603 15.25,18 L15.2507885,17.9870603 L15.2569319,17.8986055 C15.3071909,17.5344681 15.6243956,17.26 16,17.26 Z M11.1637576,0.0499609406 C13.7510872,-0.301326502 16.258518,0.999997216 17.3909309,3.23304764 L17.3909309,3.23304764 L17.443,3.343 L17.506448,3.34197837 C18.5207713,3.34395577 19.4906672,3.77200159 20.1562801,4.52212274 L20.1562801,4.52212274 L20.2941593,4.68775482 C20.9640836,5.54628755 21.1663428,6.6540074 20.85832,7.67075155 L20.85832,7.67075155 L20.853,7.684 L21.0439509,7.84295512 C22.2565805,8.91598895 22.7753284,10.5590997 22.3586411,12.1204585 L22.3586411,12.1204585 L22.2988426,12.3239804 C21.7145168,14.1438388 19.96999,15.38 18,15.38 L18,15.38 L6.99789791,15.38 C4.07629289,15.3677125 1.66871505,13.1546401 1.52822285,10.334193 C1.39505402,7.66076592 3.34352077,5.34277018 6.02212447,4.86809122 L6.02212447,4.86809122 L6.077,4.859 L6.09089311,4.77675087 C6.52056223,2.40359454 8.44332558,0.526293355 10.9148146,0.0888688395 L10.9148146,0.0888688395 Z M16.66541,4.05130817 C15.8279847,1.97867045 13.6047263,0.727720192 11.2982954,1.0408694 C8.99533401,1.35354755 7.22618958,3.14169037 7.02085298,5.35028617 C6.99863743,5.58923612 6.80978887,5.77870281 6.57091279,5.80169907 C4.18588497,6.03130233 2.41343135,8.00480882 2.52698454,10.2844427 C2.64061264,12.5655803 4.60353487,14.3699203 7,14.38 L7,14.38 L18,14.38 C19.540865,14.38 20.8969365,13.4190959 21.3467183,12.0182693 C21.7943864,10.6240255 21.2423885,9.11121851 19.9783699,8.28472124 C19.7722598,8.1499531 19.6949675,7.88517686 19.7962053,7.66068913 C20.1473441,6.88206312 20.0372238,5.98400912 19.5057767,5.30294004 C18.9689327,4.61495454 18.0839533,4.25362987 17.1882244,4.36048008 C16.9641524,4.38720931 16.7499462,4.26053619 16.66541,4.05130817 Z" id="Combined-Shape" fill="#000000" fill-rule="nonzero"></path>
    </g>
</svg>