<?xml version="1.0" encoding="UTF-8"?>
<svg viewBox="0 0 24 24" version="1.1" xmlns="http://www.w3.org/2000/svg" xmlns:xlink="http://www.w3.org/1999/xlink">
    <title>Weather / Weather / weather-night-wind-1</title>
    <g id="Weather-/-Weather-/-weather-night-wind-1" stroke="none" stroke-width="1" fill="none" fill-rule="evenodd">
        <path d="M7.99793888,19.9999739 C9.01607534,19.9957941 9.87487654,20.7571288 9.99275848,21.7684245 C10.1106409,22.7797245 9.44996999,23.7181775 8.45815897,23.9482534 C7.46634794,24.1783292 6.45998816,23.6265864 6.12059699,22.666671 C6.02854717,22.4063223 6.16498036,22.1206468 6.42532905,22.028597 C6.68567774,21.9365472 6.97135318,22.0729804 7.06340301,22.333329 C7.23309859,22.8132868 7.73627848,23.0891582 8.23218399,22.9741203 C8.72808951,22.8590823 9.05842497,22.3898558 8.99948375,21.8842058 C8.94507647,21.417452 8.57500728,21.0571885 8.11637241,21.0061792 L8,20.9999869 L0.5,20.9999869 C0.223857625,20.9999869 0,20.7761293 0,20.4999869 C0,20.2545271 0.176875161,20.0503786 0.410124368,20.0080426 L0.5,19.9999739 L7.99793888,19.9999739 Z M15.8917898,8.38344 L15.947,8.504 L16.0049042,8.50205307 C17.0234356,8.50393013 17.9960953,8.95077735 18.6613798,9.73137785 L18.7991407,9.90371732 C19.4634688,10.7905517 19.6636458,11.9314521 19.3588099,12.9792971 L19.346,13.016 L19.3799122,13.0426965 C20.7081765,14.1484318 21.2908403,15.9282416 20.8590402,17.61473 L20.7997621,17.8249995 C20.2391204,19.6446565 18.5977469,20.9068967 16.7106466,20.9950663 L16.5000001,21 L15.5000001,21 C15.2238576,21 15.0000001,20.7761424 15.0000001,20.5 C15.0000001,20.2545401 15.1768752,20.0503916 15.4101244,20.0080557 L15.5000001,20 L16.4999067,20 C18.0356972,19.9997133 19.3918887,18.9982621 19.8440935,17.5305551 C20.2962983,16.0628482 19.7388626,14.4718029 18.4695317,13.60725 C18.2712945,13.4722289 18.1968627,13.2154598 18.2921553,12.9953507 C18.6485339,12.1721791 18.5365847,11.22117 17.9987953,10.5032565 C17.4610059,9.78534292 16.5798141,9.4105739 15.6896553,9.52118406 C15.4626842,9.54938725 15.2455113,9.41998573 15.1622811,9.2069504 C14.3184718,7.04714253 12.1004406,5.75088348 9.80452508,6.0757772 C7.5086095,6.40067091 5.73732973,8.26145509 5.52591751,10.5705868 C5.50398894,10.8100997 5.31464055,11.0000626 5.07519993,11.0227672 C2.76576078,11.2417558 1.00123954,13.180469 0.999988059,15.4965444 C1.00207512,15.7985199 1.03518095,16.099482 1.09878415,16.3946907 C1.15694489,16.6646387 0.985257371,16.9306234 0.71530934,16.9887841 C0.44536131,17.0469449 0.179376595,16.8752574 0.121215853,16.6053093 C0.0431868955,16.2431447 0.00257236991,15.8739218 7.13858306e-08,15.4997328 C0.00143325803,12.8176839 1.9312992,10.5524128 4.52914651,10.0888017 L4.581,10.08 L4.59403016,9.99627123 C5.02220646,7.53163797 6.9457236,5.57808442 9.42298005,5.12479211 L9.66441157,5.08564175 C12.2525346,4.71939793 14.7581816,6.06987895 15.8917898,8.38344 Z M13.458159,15.0517466 C14.44997,15.2818225 15.1106409,16.2202755 14.9927585,17.2315755 C14.8810809,18.1896451 14.1044231,18.9233729 13.1590409,18.9943885 L13,19.0000131 L0.5,19.0000131 C0.223857625,19.0000131 0,18.7761554 0,18.5000131 C0,18.2545532 0.176875161,18.0504047 0.410124368,18.0080687 L0.5,18.0000131 L13.0020611,18.0000173 C13.511137,18.0021159 13.9405425,17.6214441 13.9994837,17.1157942 C14.058425,16.6101442 13.7280895,16.1409177 13.232184,16.0258797 C12.7362785,15.9108418 12.2330986,16.1867132 12.063403,16.666671 C11.9713532,16.9270196 11.6856777,17.0634528 11.425329,16.971403 C11.1649804,16.8793532 11.0285472,16.5936777 11.120597,16.333329 C11.4599882,15.3734136 12.4663479,14.8216708 13.458159,15.0517466 Z M23.7151426,0.616653495 C24.0953292,0.797876428 24.0948447,1.339189 23.7143342,1.51973097 C21.8629115,2.39818108 20.6828483,4.26424638 20.6828483,6.3135 C20.6828483,8.36275362 21.8629115,10.2288189 23.7143342,11.107269 C24.094955,11.2878633 24.095298,11.8293828 23.7149062,12.0104591 C23.2871947,12.2140608 22.8381572,12.3694409 22.3760812,12.4737316 C22.1067145,12.5345278 21.8390645,12.3654479 21.7782684,12.0960812 C21.7242273,11.8566441 21.8518167,11.6185635 22.070022,11.5259136 L22.1559188,11.4982684 L22.336,11.452 L22.2218063,11.3709525 C20.7091621,10.2444849 19.7639665,8.48339745 19.6878263,6.56462915 L19.6828483,6.3135 C19.6828483,4.29794025 20.643395,2.43149196 22.2218063,1.25604747 L22.334,1.175 L22.2232126,1.14562689 C21.1347011,0.888424593 19.9843569,0.980693199 18.9410883,1.4217033 L18.6825997,1.53922085 C17.2315795,2.24631971 16.1818775,3.57612131 15.8310471,5.15167409 C15.771028,5.42121504 15.5038669,5.59106611 15.2343259,5.53104707 C14.964785,5.47102803 14.7949339,5.20386686 14.8549529,4.93432591 C15.2719778,3.06149902 16.5197367,1.48079146 18.2445344,0.64027771 C19.969332,-0.20023604 21.9831501,-0.20893249 23.7151426,0.616653495 Z" id="Combined-Shape" fill="#000000" fill-rule="nonzero"></path>
    </g>
</svg>