<?xml version="1.0" encoding="UTF-8"?>
<svg width="24px" height="24px" viewBox="0 0 24 24" version="1.1" xmlns="http://www.w3.org/2000/svg" xmlns:xlink="http://www.w3.org/1999/xlink">
    <title>Weather / Weather / weather-rain-drops</title>
    <g id="Weather-/-Weather-/-weather-rain-drops" stroke="none" stroke-width="1" fill="none" fill-rule="evenodd">
        <path d="M9.58857686,18.715868 C9.78735033,18.428044 10.2126497,18.428044 10.4114231,18.715868 L10.4114231,18.715868 L10.8333579,19.3612359 C10.9525567,19.5510278 11.0700715,19.7447873 11.1825069,19.9386259 C11.2792031,20.1053303 11.3694867,20.2676304 11.4521909,20.4242752 C11.8026296,21.0880185 12,21.6043536 12,22 C12,23.1045695 11.1045695,24 10,24 C8.8954305,24 8,23.1045695 8,22 C8,21.6043536 8.19737042,21.0880185 8.54780906,20.4242752 C8.63051334,20.2676304 8.72079685,20.1053303 8.81749312,19.9386259 C8.98614623,19.647868 9.16622801,19.357288 9.34627881,19.0800098 L9.34627881,19.0800098 Z M17.5885769,18.715868 C17.7873503,18.428044 18.2126497,18.428044 18.4114231,18.715868 L18.4114231,18.715868 L18.8333579,19.3612359 C18.9525567,19.5510278 19.0700715,19.7447873 19.1825069,19.9386259 C19.2792031,20.1053303 19.3694867,20.2676304 19.4521909,20.4242752 C19.8026296,21.0880185 20,21.6043536 20,22 C20,23.1045695 19.1045695,24 18,24 C16.8954305,24 16,23.1045695 16,22 C16,21.6043536 16.1973704,21.0880185 16.5478091,20.4242752 C16.6305133,20.2676304 16.7207969,20.1053303 16.8174931,19.9386259 C16.9861462,19.647868 17.166228,19.357288 17.3462788,19.0800098 L17.3462788,19.0800098 Z M10,19.914 L9.84553809,20.1653852 L9.68250688,20.4403741 C9.59218364,20.5960913 9.50829475,20.746896 9.43212249,20.891169 C9.15720023,21.4118815 9,21.8231286 9,22 C9,22.5522847 9.44771525,23 10,23 C10.5522847,23 11,22.5522847 11,22 C11,21.8231286 10.8427998,21.4118815 10.5678775,20.891169 C10.4917052,20.746896 10.4078164,20.5960913 10.3174931,20.4403741 C10.2643358,20.3487309 10.2098442,20.2568908 10.1544619,20.1653852 L10.1544619,20.1653852 L10,19.914 Z M18,19.914 L17.8455381,20.1653852 L17.6825069,20.4403741 C17.5921836,20.5960913 17.5082948,20.746896 17.4321225,20.891169 C17.1572002,21.4118815 17,21.8231286 17,22 C17,22.5522847 17.4477153,23 18,23 C18.5522847,23 19,22.5522847 19,22 C19,21.8231286 18.8427998,21.4118815 18.5678775,20.891169 C18.4917052,20.746896 18.4078164,20.5960913 18.3174931,20.4403741 C18.2643358,20.3487309 18.2098442,20.2568908 18.1544619,20.1653852 L18.1544619,20.1653852 L18,19.914 Z M18.8917898,8.38344 L18.947,8.504 L19.0049042,8.50205307 C20.0234356,8.50393013 20.9960953,8.95077735 21.6613798,9.73137785 L21.7991407,9.90371732 C22.4634688,10.7905517 22.6636458,11.9314521 22.3588099,12.9792971 L22.346,13.015 L22.3990508,13.0575199 C23.393702,13.8917909 23.9811687,15.121085 23.9998179,16.4265719 L23.9971714,16.657678 C23.9397245,18.2027927 23.0899405,19.6091891 21.7488365,20.3786824 C21.5093204,20.516111 21.2037463,20.4333527 21.0663176,20.1938365 C20.928889,19.9543204 21.0116473,19.6487463 21.2511635,19.5113176 C22.2930475,18.9135096 22.9532322,17.8209009 22.9978618,16.620524 C23.0424914,15.420147 22.4652629,14.2815317 21.4706467,13.6080072 C21.271626,13.4732364 21.196661,13.2159256 21.2921553,12.9953507 C21.6485339,12.1721791 21.5365847,11.22117 20.9987953,10.5032565 C20.4610059,9.78534292 19.5798141,9.4105739 18.6896553,9.52118406 C18.4626842,9.54938725 18.2455113,9.41998573 18.1622811,9.2069504 C17.3184718,7.04714253 15.1004406,5.75088348 12.8045251,6.0757772 C10.5086095,6.40067091 8.73732973,8.26145509 8.52591751,10.5705868 C8.50403572,10.8095887 8.31542331,10.9993296 8.07655619,11.0226367 C6.03958357,11.2213914 4.39329586,12.7696701 4.07004421,14.7906276 C3.74679255,16.8115851 4.82800648,18.7961269 6.70135619,19.6203367 C6.95411664,19.7315427 7.06886924,20.0265957 6.95766329,20.2793562 C6.84645734,20.5321166 6.55140427,20.6468692 6.29864381,20.5356633 C4.00899417,19.5282958 2.68751048,17.1027446 3.08259584,14.6326854 C3.45298836,12.317005 5.24461102,10.509085 7.51851154,10.0919787 L7.581,10.081 L7.59403016,9.99627123 C8.02220646,7.53163797 9.9457236,5.57808442 12.42298,5.12479211 L12.6644116,5.08564175 C15.2525346,4.71939793 17.7581816,6.06987895 18.8917898,8.38344 Z M13.5885769,14.715868 C13.7873503,14.428044 14.2126497,14.428044 14.4114231,14.715868 L14.4114231,14.715868 L14.8333579,15.3612359 C14.9525567,15.5510278 15.0700715,15.7447873 15.1825069,15.9386259 C15.2792031,16.1053303 15.3694867,16.2676304 15.4521909,16.4242752 C15.8026296,17.0880185 16,17.6043536 16,18 C16,19.1045695 15.1045695,20 14,20 C12.8954305,20 12,19.1045695 12,18 C12,17.6043536 12.1973704,17.0880185 12.5478091,16.4242752 C12.6305133,16.2676304 12.7207969,16.1053303 12.8174931,15.9386259 C12.9861462,15.647868 13.166228,15.357288 13.3462788,15.0800098 L13.3462788,15.0800098 Z M14,15.914 L13.8455381,16.1653852 L13.6825069,16.4403741 C13.5921836,16.5960913 13.5082948,16.746896 13.4321225,16.891169 C13.1572002,17.4118815 13,17.8231286 13,18 C13,18.5522847 13.4477153,19 14,19 C14.5522847,19 15,18.5522847 15,18 C15,17.8231286 14.8427998,17.4118815 14.5678775,16.891169 C14.4917052,16.746896 14.4078164,16.5960913 14.3174931,16.4403741 C14.2643358,16.3487309 14.2098442,16.2568908 14.1544619,16.1653852 L14.1544619,16.1653852 L14,15.914 Z M10.3492978,4.01357781 C10.5627129,4.18881655 10.5936609,4.50388272 10.4184222,4.7172978 C10.2431834,4.93071288 9.92811728,4.96166092 9.7147022,4.78642219 C8.37251165,3.68432679 6.42517115,3.73311832 5.13985712,4.90104706 C3.85454309,6.06897581 3.62004346,8.0027611 4.5889522,9.44404719 C4.74301358,9.67321896 4.68212459,9.98389081 4.45295281,10.1379522 C4.22378104,10.2920136 3.91310919,10.2311246 3.7590478,10.0019528 C2.513308,8.14887071 2.81480752,5.66257533 4.46735413,4.16095266 C6.11990075,2.65932999 8.62362424,2.59659803 10.3492978,4.01357781 Z M1.5,6 C1.77614237,6 2,6.22385763 2,6.5 C2,6.74545989 1.82312484,6.94960837 1.58987563,6.99194433 L1.5,7 L0.5,7 C0.223857625,7 0,6.77614237 0,6.5 C0,6.25454011 0.176875161,6.05039163 0.410124368,6.00805567 L0.5,6 L1.5,6 Z M2.50857036,1.81177431 L2.57778098,1.86967434 L3.35378098,2.64667434 C3.54891735,2.84206218 3.5487135,3.1586446 3.35332566,3.35378098 C3.17964758,3.52723553 2.91021082,3.54634719 2.71542964,3.41122569 L2.64621902,3.35332566 L1.87021902,2.57632566 C1.67508265,2.38093782 1.6752865,2.0643554 1.87067434,1.86921902 C2.04435242,1.69576447 2.31378918,1.67665281 2.50857036,1.81177431 Z M13.1293257,1.86921902 C13.3030037,2.04267358 13.3224624,2.31208551 13.1875918,2.50704053 L13.129781,2.57632566 L12.353781,3.35332566 C12.1586446,3.5487135 11.8420622,3.54891735 11.6466743,3.35378098 C11.4729963,3.18032642 11.4535376,2.91091449 11.5884082,2.71595947 L11.646219,2.64667434 L12.422219,1.86967434 C12.6173554,1.6742865 12.9339378,1.67408265 13.1293257,1.86921902 Z M7.5,0 C7.74545989,0 7.94960837,0.176875161 7.99194433,0.410124368 L8,0.5 L8,1.5 C8,1.77614237 7.77614237,2 7.5,2 C7.25454011,2 7.05039163,1.82312484 7.00805567,1.58987563 L7,1.5 L7,0.5 C7,0.223857625 7.22385763,0 7.5,0 Z" id="Combined-Shape" fill="#000000" fill-rule="nonzero"></path>
    </g>
</svg>