<?xml version="1.0" encoding="UTF-8"?>
<svg  viewBox="0 0 24 24" version="1.1" xmlns="http://www.w3.org/2000/svg" xmlns:xlink="http://www.w3.org/1999/xlink">
    <title>Weather / Weather / weather-cloud-hurricane</title>
    <g id="Weather-/-Weather-/-weather-cloud-hurricane" stroke="none" stroke-width="1" fill="none" fill-rule="evenodd">
        <path d="M21,22.06 C21.2761424,22.06 21.5,22.2838576 21.5,22.56 C21.5,22.8054599 21.3231248,23.0096084 21.0898756,23.0519443 L21,23.06 L20,23.06 C19.7238576,23.06 19.5,22.8361424 19.5,22.56 C19.5,22.3145401 19.6768752,22.1103916 19.9101244,22.0680557 L20,22.06 L21,22.06 Z M22.5,20.14 C22.7761424,20.14 23,20.3638576 23,20.64 C23,20.8854599 22.8231248,21.0896084 22.5898756,21.1319443 L22.5,21.14 L18.5,21.14 C18.2238576,21.14 18,20.9161424 18,20.64 C18,20.3945401 18.1768752,20.1903916 18.4101244,20.1480557 L18.5,20.14 L22.5,20.14 Z M21.5,18.22 C21.7761424,18.22 22,18.4438576 22,18.72 C22,18.9654599 21.8231248,19.1696084 21.5898756,19.2119443 L21.5,19.22 L15.5,19.22 C15.2238576,19.22 15,18.9961424 15,18.72 C15,18.4745401 15.1768752,18.2703916 15.4101244,18.2280557 L15.5,18.22 L21.5,18.22 Z M19.5,16.3 C19.7761424,16.3 20,16.5238576 20,16.8 C20,17.0454599 19.8231248,17.2496084 19.5898756,17.2919443 L19.5,17.3 L12.5,17.3 C12.2238576,17.3 12,17.0761424 12,16.8 C12,16.5545401 12.1768752,16.3503916 12.4101244,16.3080557 L12.5,16.3 L19.5,16.3 Z M15.8909309,3.23304764 L15.942,3.341 L15.9538705,3.34126086 C17.359198,3.3200234 18.6542722,4.12040316 19.2140994,5.38265684 L19.2858235,5.55761141 C19.3832844,5.8159832 19.2528404,6.1044426 18.9944686,6.20190351 C18.7360968,6.29936442 18.4476374,6.16892038 18.3501765,5.91054859 C17.9562172,4.86615062 16.8514509,4.21829822 15.6896647,4.36030615 C15.465136,4.38775083 15.2501482,4.26103606 15.16541,4.05130817 C14.3279847,1.97867045 12.1047263,0.727720192 9.79829543,1.0408694 C7.49533401,1.35354755 5.72618958,3.14169037 5.52085298,5.35028617 C5.49863743,5.58923612 5.30978887,5.77870281 5.07091279,5.80169907 C2.68588497,6.03130233 0.913431348,8.00480882 1.02698454,10.2844427 C1.13716936,12.496455 2.98626805,14.2601286 5.28337326,14.3741775 L5.5,14.38 L9,14.38 C9.27614237,14.38 9.5,14.6038576 9.5,14.88 C9.5,15.1254599 9.32312484,15.3296084 9.08987563,15.3719443 L9,15.38 L5.49789791,15.38 C2.57629289,15.3677125 0.16871505,13.1546401 0.0282228546,10.334193 C-0.104945978,7.66076592 1.84352077,5.34277018 4.52212447,4.86809122 L4.577,4.859 L4.59089311,4.77675087 C5.02056223,2.40359454 6.94332558,0.526293355 9.41481459,0.0888688395 L9.6637576,0.0499609406 C12.2510872,-0.301326502 14.758518,0.999997216 15.8909309,3.23304764 Z M21.5,14.38 C21.7761424,14.38 22,14.6038576 22,14.88 C22,15.1254599 21.8231248,15.3296084 21.5898756,15.3719443 L21.5,15.38 L11.5,15.38 C11.2238576,15.38 11,15.1561424 11,14.88 C11,14.6345401 11.1768752,14.4303916 11.4101244,14.3880557 L11.5,14.38 L21.5,14.38 Z M23.5,12.46 C23.7761424,12.46 24,12.6838576 24,12.96 C24,13.2054599 23.8231248,13.4096084 23.5898756,13.4519443 L23.5,13.46 L14.5,13.46 C14.2238576,13.46 14,13.2361424 14,12.96 C14,12.7145401 14.1768752,12.5103916 14.4101244,12.4680557 L14.5,12.46 L23.5,12.46 Z M22.5,10.54 C22.7761424,10.54 23,10.7638576 23,11.04 C23,11.2854599 22.8231248,11.4896084 22.5898756,11.5319443 L22.5,11.54 L12.5,11.54 C12.2238576,11.54 12,11.3161424 12,11.04 C12,10.7945401 12.1768752,10.5903916 12.4101244,10.5480557 L12.5,10.54 L22.5,10.54 Z M21.5,8.62 C21.7761424,8.62 22,8.84385763 22,9.12 C22,9.36545989 21.8231248,9.56960837 21.5898756,9.61194433 L21.5,9.62 L10.5,9.62 C10.2238576,9.62 10,9.39614237 10,9.12 C10,8.87454011 10.1768752,8.67039163 10.4101244,8.62805567 L10.5,8.62 L21.5,8.62 Z" id="Combined-Shape" fill="#000000" fill-rule="nonzero"></path>
    </g>
</svg>