<?xml version="1.0" encoding="UTF-8"?>
<svg viewBox="0 0 24 24" version="1.1" xmlns="http://www.w3.org/2000/svg" xmlns:xlink="http://www.w3.org/1999/xlink">
    <title>Weather / Weather / weather-cloud-wind</title>
    <g id="Weather-/-Weather-/-weather-cloud-wind" stroke="none" stroke-width="1" fill="none" fill-rule="evenodd">
        <path d="M10,21.5 C10.2761424,21.5 10.5,21.7238576 10.5,22 C10.5,22.2454599 10.3231248,22.4496084 10.0898756,22.4919443 L10,22.5 L0.5,22.5 C0.223857625,22.5 0,22.2761424 0,22 C0,21.7545401 0.176875161,21.5503916 0.410124368,21.5080557 L0.5,21.5 L10,21.5 Z M13,19.5 C13.2761424,19.5 13.5,19.7238576 13.5,20 C13.5,20.2454599 13.3231248,20.4496084 13.0898756,20.4919443 L13,20.5 L3.5,20.5 C3.22385763,20.5 3,20.2761424 3,20 C3,19.7545401 3.17687516,19.5503916 3.41012437,19.5080557 L3.5,19.5 L13,19.5 Z M17.945744,5.39067384 L17.992,5.502 L18.0585946,5.50190898 C19.1783545,5.51910264 20.2446846,6.00617748 20.9914568,6.84976899 L21.1364716,7.02320726 C21.8808051,7.96622009 22.1567839,9.18617017 21.9068955,10.3445317 L21.886,10.424 L21.9480618,10.4674625 C23.5529516,11.641259 24.319086,13.6650353 23.8773966,15.6183863 L23.8210513,15.843408 C23.2440554,17.942212 21.3831908,19.4205299 19.2243508,19.5233058 L19,19.529 L17,19.529 C16.7238576,19.529 16.5,19.3051424 16.5,19.029 C16.5,18.7835401 16.6768752,18.5793916 16.9101244,18.5370557 L17,18.529 L18.9983896,18.5290026 C20.8011113,18.5231964 22.3789544,17.3165664 22.8568254,15.5783263 C23.3346963,13.8400863 22.5954238,11.9964429 21.0490186,11.0699062 C20.8463036,10.9484485 20.756303,10.7016515 20.8332425,10.4782109 C21.1657132,9.51267917 20.9842115,8.44433538 20.351528,7.64277448 C19.7188445,6.84121357 18.7218772,6.41652843 17.7055282,6.51563944 C17.4767253,6.53795154 17.262192,6.40137347 17.1855812,6.18462628 C16.2938786,3.6618229 13.7159572,2.14681921 11.0780591,2.59533205 C8.44016093,3.04384488 6.50780902,5.32571498 6.49999787,8.00145961 C6.4991953,8.27638506 6.27658064,8.49908696 6.00165553,8.49999726 C4.26290507,8.50575441 2.65105369,9.41121173 1.74153168,10.8931213 C0.832009669,12.3750309 0.754458198,14.2221648 1.53656311,15.7750969 C1.66077364,16.0217269 1.56153306,16.3223526 1.31490307,16.4465631 C1.06827307,16.5707736 0.767647425,16.4715331 0.643436891,16.2249031 C-0.294527907,14.3624986 -0.201521778,12.1472631 0.889252128,10.3700347 C1.8436793,8.81495993 3.4429858,7.78918401 5.2248562,7.55241263 L5.519,7.52 C5.73952976,4.64514879 7.83493645,2.24531904 10.6722981,1.65449931 L10.9104381,1.60948053 C13.8638743,1.10731784 16.7536938,2.68783749 17.945744,5.39067384 Z M10,17.5 C10.2761424,17.5 10.5,17.7238576 10.5,18 C10.5,18.2454599 10.3231248,18.4496084 10.0898756,18.4919443 L10,18.5 L0.5,18.5 C0.223857625,18.5 0,18.2761424 0,18 C0,17.7545401 0.176875161,17.5503916 0.410124368,17.5080557 L0.5,17.5 L10,17.5 Z" id="Combined-Shape" fill="#000000" fill-rule="nonzero"></path>
    </g>
</svg>