<?xml version="1.0" encoding="UTF-8"?>
<svg width="24px" height="24px" viewBox="0 0 24 24" version="1.1" xmlns="http://www.w3.org/2000/svg" xmlns:xlink="http://www.w3.org/1999/xlink">
    <title>Weather / Weather / weather-snow</title>
    <g id="Weather-/-Weather-/-weather-snow" stroke="none" stroke-width="1" fill="none" fill-rule="evenodd">
        <path d="M8.5,21.58 C8.90539835,21.58 9.24276463,21.8997382 9.24988518,22.3068588 C9.24994234,22.3111496 9.25,22.3155681 9.25,22.32 C9.25,22.6989136 8.96409571,23.0049578 8.60083296,23.0533338 L8.5,23.06 L8.5,23.06 C8.09024973,23.06 7.75,22.7333603 7.75,22.32 L7.751,22.307 L7.75693185,22.2186055 C7.80719093,21.8544681 8.12439559,21.58 8.5,21.58 Z M12.5,21.58 C12.9053983,21.58 13.2427646,21.8997382 13.2498852,22.3068588 C13.2499423,22.3111496 13.25,22.3155681 13.25,22.32 C13.25,22.6989136 12.9640957,23.0049578 12.600833,23.0533338 L12.5,23.06 L12.5,23.06 C12.0902497,23.06 11.75,22.7333603 11.75,22.32 L11.751,22.307 L11.7569319,22.2186055 C11.8071909,21.8544681 12.1243956,21.58 12.5,21.58 Z M16.5,21.58 C16.9053983,21.58 17.2427646,21.8997382 17.2498852,22.3068588 C17.2499423,22.3111496 17.25,22.3155681 17.25,22.32 C17.25,22.6989136 16.9640957,23.0049578 16.600833,23.0533338 L16.5,23.06 L16.5,23.06 C16.0902497,23.06 15.75,22.7333603 15.75,22.32 L15.751,22.307 L15.7569319,22.2186055 C15.8071909,21.8544681 16.1243956,21.58 16.5,21.58 Z M20.5,21.58 C20.9053983,21.58 21.2427646,21.8997382 21.2498852,22.3068588 C21.2499423,22.3111496 21.25,22.3155681 21.25,22.32 C21.25,22.6989136 20.9640957,23.0049578 20.600833,23.0533338 L20.5,23.06 L20.5,23.06 C20.0902497,23.06 19.75,22.7333603 19.75,22.32 L19.751,22.307 L19.7569319,22.2186055 C19.8071909,21.8544681 20.1243956,21.58 20.5,21.58 Z M10.5,20.14 C10.9053983,20.14 11.2427646,20.4597382 11.2498852,20.8668588 C11.2499423,20.8711496 11.25,20.8755681 11.25,20.88 C11.25,21.2589136 10.9640957,21.5649578 10.600833,21.6133338 L10.5,21.62 L10.5,21.62 C10.0902497,21.62 9.75,21.2933603 9.75,20.88 L9.751,20.867 L9.75693185,20.7786055 C9.80719093,20.4144681 10.1243956,20.14 10.5,20.14 Z M14.5,20.14 C14.9053983,20.14 15.2427646,20.4597382 15.2498852,20.8668588 C15.2499423,20.8711496 15.25,20.8755681 15.25,20.88 C15.25,21.2589136 14.9640957,21.5649578 14.600833,21.6133338 L14.5,21.62 L14.5,21.62 C14.0902497,21.62 13.75,21.2933603 13.75,20.88 L13.751,20.867 L13.7569319,20.7786055 C13.8071909,20.4144681 14.1243956,20.14 14.5,20.14 Z M18.5,20.14 C18.9053983,20.14 19.2427646,20.4597382 19.2498852,20.8668588 C19.2499423,20.8711496 19.25,20.8755681 19.25,20.88 C19.25,21.2589136 18.9640957,21.5649578 18.600833,21.6133338 L18.5,21.62 L18.5,21.62 C18.0902497,21.62 17.75,21.2933603 17.75,20.88 L17.751,20.867 L17.7569319,20.7786055 C17.8071909,20.4144681 18.1243956,20.14 18.5,20.14 Z M8.5,18.7 C8.90539835,18.7 9.24276463,19.0197382 9.24988518,19.4268588 C9.24994234,19.4311496 9.25,19.4355681 9.25,19.44 C9.25,19.8189136 8.96409571,20.1249578 8.60083296,20.1733338 L8.5,20.18 L8.5,20.18 C8.09024973,20.18 7.75,19.8533603 7.75,19.44 L7.751,19.427 L7.75693185,19.3386055 C7.80719093,18.9744681 8.12439559,18.7 8.5,18.7 Z M12.5,18.7 C12.9053983,18.7 13.2427646,19.0197382 13.2498852,19.4268588 C13.2499423,19.4311496 13.25,19.4355681 13.25,19.44 C13.25,19.8189136 12.9640957,20.1249578 12.600833,20.1733338 L12.5,20.18 L12.5,20.18 C12.0902497,20.18 11.75,19.8533603 11.75,19.44 L11.751,19.427 L11.7569319,19.3386055 C11.8071909,18.9744681 12.1243956,18.7 12.5,18.7 Z M16.5,18.7 C16.9053983,18.7 17.2427646,19.0197382 17.2498852,19.4268588 C17.2499423,19.4311496 17.25,19.4355681 17.25,19.44 C17.25,19.8189136 16.9640957,20.1249578 16.600833,20.1733338 L16.5,20.18 L16.5,20.18 C16.0902497,20.18 15.75,19.8533603 15.75,19.44 L15.751,19.427 L15.7569319,19.3386055 C15.8071909,18.9744681 16.1243956,18.7 16.5,18.7 Z M20.5,18.7 C20.9053983,18.7 21.2427646,19.0197382 21.2498852,19.4268588 C21.2499423,19.4311496 21.25,19.4355681 21.25,19.44 C21.25,19.8189136 20.9640957,20.1249578 20.600833,20.1733338 L20.5,20.18 L20.5,20.18 C20.0902497,20.18 19.75,19.8533603 19.75,19.44 L19.751,19.427 L19.7569319,19.3386055 C19.8071909,18.9744681 20.1243956,18.7 20.5,18.7 Z M18.8909309,8.03304764 L18.943,8.143 L19.006448,8.14197837 C20.0207713,8.14395577 20.9906672,8.57200159 21.6562801,9.32212274 L21.7941593,9.48775482 C22.419422,10.289052 22.6372964,11.3074189 22.4131334,12.2662905 L22.353,12.484 L22.4079392,12.5257932 C23.2012418,13.1697927 23.740716,14.0626541 23.927573,15.0527126 L23.9643894,15.282844 C24.1270961,16.5203197 23.7264197,17.7642127 22.8673153,18.6944336 C22.6799618,18.8972963 22.3636291,18.9098689 22.1607664,18.7225153 C21.9579037,18.5351618 21.9453311,18.2188291 22.1326847,18.0159664 C22.791373,17.3027519 23.0967252,16.3547914 22.9729228,15.4132047 C22.8489044,14.4699754 22.3058215,13.6215635 21.4798641,13.0856945 C21.2727078,12.9512945 21.1946897,12.6857929 21.2962053,12.4606891 C21.6473441,11.6820631 21.5372238,10.7840091 21.0057767,10.10294 C20.4689327,9.41495454 19.5839533,9.05362987 18.6882244,9.16048008 C18.4641524,9.18720931 18.2499462,9.06053619 18.16541,8.85130817 C17.3279847,6.77867045 15.1047263,5.52772019 12.7982954,5.8408694 C10.495334,6.15354755 8.72618958,7.94169037 8.52085298,10.1502862 C8.49851695,10.390532 8.30779878,10.580557 8.06747321,10.6020182 C6.11888953,10.7760275 4.51717583,12.1368487 4.10343971,13.9590384 C3.69083568,15.776242 4.55262227,17.6433643 6.2416958,18.5760579 C6.483432,18.7095428 6.57118702,19.0137196 6.43770212,19.2554558 C6.30421721,19.497192 6.00004041,19.584947 5.7583042,19.4514621 C3.6831778,18.305593 2.61603943,15.9935614 3.12826086,13.7376197 C3.60527756,11.6367278 5.34789187,10.0431558 7.50927268,9.66756417 L7.577,9.657 L7.59089311,9.57675087 C8.02056223,7.20359454 9.94332558,5.32629335 12.4148146,4.88886884 L12.6637576,4.84996094 C15.2510872,4.4986735 17.758518,5.79999722 18.8909309,8.03304764 Z M10.5,17.26 C10.9053983,17.26 11.2427646,17.5797382 11.2498852,17.9868588 C11.2499423,17.9911496 11.25,17.9955681 11.25,18 C11.25,18.3789136 10.9640957,18.6849578 10.600833,18.7333338 L10.5,18.74 L10.5,18.74 C10.0902497,18.74 9.75,18.4133603 9.75,18 L9.751,17.987 L9.75693185,17.8986055 C9.80719093,17.5344681 10.1243956,17.26 10.5,17.26 Z M14.5,17.26 C14.9053983,17.26 15.2427646,17.5797382 15.2498852,17.9868588 C15.2499423,17.9911496 15.25,17.9955681 15.25,18 C15.25,18.3789136 14.9640957,18.6849578 14.600833,18.7333338 L14.5,18.74 L14.5,18.74 C14.0902497,18.74 13.75,18.4133603 13.75,18 L13.751,17.987 L13.7569319,17.8986055 C13.8071909,17.5344681 14.1243956,17.26 14.5,17.26 Z M18.5,17.26 C18.9053983,17.26 19.2427646,17.5797382 19.2498852,17.9868588 C19.2499423,17.9911496 19.25,17.9955681 19.25,18 C19.25,18.3789136 18.9640957,18.6849578 18.600833,18.7333338 L18.5,18.74 L18.5,18.74 C18.0902497,18.74 17.75,18.4133603 17.75,18 L17.751,17.987 L17.7569319,17.8986055 C17.8071909,17.5344681 18.1243956,17.26 18.5,17.26 Z M10.3415314,3.83132928 C10.5583975,4.00227877 10.5956202,4.31666538 10.4246707,4.53353143 C10.2537212,4.75039748 9.93933462,4.78762021 9.72246857,4.61667072 C8.37727147,3.55628916 6.41985245,3.60337145 5.13228671,4.72654727 C3.85525459,5.84053435 3.62338938,7.67611259 4.58356527,9.04727642 C4.74196251,9.27347307 4.68700023,9.58524802 4.46080358,9.74364527 C4.23460693,9.90204251 3.92283198,9.84708023 3.76443473,9.62088358 C2.50996208,7.82945394 2.81409603,5.42175475 4.47492455,3.97297246 C6.12521945,2.53337892 8.61886442,2.47339866 10.3415314,3.83132928 Z M1.5,5.74 C1.77614237,5.74 2,5.96385763 2,6.24 C2,6.48545989 1.82312484,6.68960837 1.58987563,6.73194433 L1.5,6.74 L0.5,6.74 C0.223857625,6.74 0,6.51614237 0,6.24 C0,5.99454011 0.176875161,5.79039163 0.410124368,5.74805567 L0.5,5.74 L1.5,5.74 Z M2.50012028,1.71713343 L2.57049791,1.7736092 L3.34649791,2.5195292 C3.54558044,2.71089471 3.55183631,3.02741539 3.3604708,3.22649791 C3.19036812,3.40346016 2.92137742,3.42806554 2.72387972,3.29694657 L2.65350209,3.2404708 L1.87750209,2.4945508 C1.67841956,2.30318529 1.67216369,1.98666461 1.8635292,1.78758209 C2.03363188,1.61061984 2.30262258,1.58601446 2.50012028,1.71713343 Z M13.1364708,1.78758209 C13.3065735,1.96454433 13.3205309,2.23429721 13.1817104,2.42645969 L13.1224979,2.4945508 L12.3464979,3.2404708 C12.1474154,3.43183631 11.8308947,3.42558044 11.6395292,3.22649791 C11.4694265,3.04953567 11.4554691,2.77978279 11.5942896,2.58762031 L11.6535021,2.5195292 L12.4295021,1.7736092 C12.6285846,1.58224369 12.9451053,1.58849956 13.1364708,1.78758209 Z M7.5,-0.02 C7.74545989,-0.02 7.94960837,0.156875161 7.99194433,0.390124368 L8,0.48 L8,1.44 C8,1.71614237 7.77614237,1.94 7.5,1.94 C7.25454011,1.94 7.05039163,1.76312484 7.00805567,1.52987563 L7,1.44 L7,0.48 C7,0.203857625 7.22385763,-0.02 7.5,-0.02 Z" id="Combined-Shape" fill="#000000" fill-rule="nonzero"></path>
    </g>
</svg>