<?xml version="1.0" encoding="UTF-8"?>
<svg width="24px" height="24px" viewBox="0 0 24 24" version="1.1" xmlns="http://www.w3.org/2000/svg" xmlns:xlink="http://www.w3.org/1999/xlink">
    <title>Weather / Weather / weather-clouds</title>
    <g id="Weather-/-Weather-/-weather-clouds" stroke="none" stroke-width="1" fill="none" fill-rule="evenodd">
        <path d="M9.66441157,8.08564175 C12.2525346,7.71939793 14.7581816,9.06987895 15.8917898,11.38344 L15.8917898,11.38344 L15.947,11.504 L16.0049042,11.5020531 C17.0234356,11.5039301 17.9960953,11.9507774 18.6613798,12.7313779 L18.6613798,12.7313779 L18.7991407,12.9037173 C19.4634688,13.7905517 19.6636458,14.9314521 19.3588099,15.9792971 L19.3588099,15.9792971 L19.346,16.016 L19.3799122,16.0426965 C20.7081765,17.1484318 21.2908403,18.9282416 20.8590402,20.61473 L20.8590402,20.61473 L20.7997621,20.8249995 C20.2183559,22.7120512 18.4746812,23.9996313 16.5,24 L16.5,24 L5.49733343,24 C2.57221639,23.9843926 0.171071519,21.6819203 0.0328126926,18.7600309 C-0.0983559372,15.987982 1.85076494,13.578638 4.53638407,13.0897006 L4.53638407,13.0897006 L4.581,13.082 L4.59403016,12.9962712 C5.02220646,10.531638 6.9457236,8.57808442 9.42298005,8.12479211 L9.42298005,8.12479211 Z M15.1622811,12.2069504 C14.3184718,10.0471425 12.1004406,8.75088348 9.80452508,9.0757772 C7.5086095,9.40067091 5.73732973,11.2614551 5.52591751,13.5705868 C5.50408092,13.809095 5.31617826,13.9986204 5.07786657,14.0225071 C2.69648748,14.2611996 0.918574201,16.3221287 1.03169506,18.7127655 C1.14481592,21.1034022 3.10938899,22.9872432 5.5,23 L5.5,23 L16.4999067,23 C18.0356972,22.9997133 19.3918887,21.9982621 19.8440935,20.5305551 C20.2962983,19.0628482 19.7388626,17.4718029 18.4695317,16.60725 C18.2712945,16.4722289 18.1968627,16.2154598 18.2921553,15.9953507 C18.6485339,15.1721791 18.5365847,14.22117 17.9987953,13.5032565 C17.4610059,12.7853429 16.5798141,12.4105739 15.6896553,12.5211841 C15.4626842,12.5493872 15.2455113,12.4199857 15.1622811,12.2069504 Z M18.8937505,3.38127265 L18.949,3.502 L19.0059042,3.50005307 C20.0244356,3.50193013 20.9970953,3.94877735 21.6623798,4.72937785 L21.8001407,4.90171732 C22.4644688,5.78855172 22.6646458,6.9294521 22.3598099,7.97729705 L22.347,8.015 L22.4290896,8.08169166 C23.3069702,8.83454862 23.864174,9.90007696 23.9777967,11.0572608 L23.9953101,11.3065511 C24.0555713,12.7262331 23.4417514,14.0909723 22.3395802,14.9878262 C22.1253897,15.1621163 21.8104639,15.1297707 21.6361738,14.9155802 C21.4618837,14.7013897 21.4942293,14.3864639 21.7084198,14.2121738 C22.5656641,13.5146208 23.0430795,12.453157 22.9962098,11.3489599 C22.94934,10.2447628 22.3836921,9.2275738 21.4704198,8.60517382 C21.2722613,8.47012772 21.1978829,8.21341305 21.2931553,7.99335073 C21.6495339,7.17017906 21.5375847,6.21917004 20.9997953,5.50125648 C20.4620059,4.78334292 19.5808141,4.4085739 18.6906553,4.51918406 C18.4633084,4.54743394 18.2458465,4.4175606 18.1629124,4.20400366 C17.3221633,2.03905989 15.1013679,0.73805896 12.8017924,1.06331717 C10.5022169,1.38857538 8.72935299,3.25445031 8.52200328,5.56764002 C8.50051166,5.80740013 8.31122809,5.9978124 8.0716,6.02072908 C5.76284489,6.24152539 4,8.18084372 4,10.5 C4,10.7761424 3.77614237,11 3.5,11 C3.22385763,11 3,10.7761424 3,10.5 C3,7.8186392 4.92796184,5.5527361 7.52489346,5.08718514 L7.576,5.079 L7.58915356,4.99434717 C8.0135983,2.52516283 9.93880729,0.566365899 12.4199312,0.11237605 L12.6617436,0.0731725572 C15.2539924,-0.29348215 17.7628167,1.06199541 18.8937505,3.38127265 Z" id="Combined-Shape" fill="#000000" fill-rule="nonzero"></path>
    </g>
</svg>