<?xml version="1.0" encoding="UTF-8"?>
<svg  viewBox="0 0 24 24" version="1.1" xmlns="http://www.w3.org/2000/svg" xmlns:xlink="http://www.w3.org/1999/xlink">
    <title>Weather / Weather / weather-cloud-rain-drops</title>
    <g id="Weather-/-Weather-/-weather-cloud-rain-drops" stroke="none" stroke-width="1" fill="none" fill-rule="evenodd">
        <path d="M17.5886227,17.2158016 C17.7875012,16.9279251 18.2129603,16.9280967 18.4116064,17.2161335 C18.4376221,17.2538563 18.4711463,17.3031702 18.5111852,17.3629122 L18.5111852,17.3629122 L18.9700425,18.0712827 C19.1279986,18.3230165 19.283692,18.5799203 19.43257,18.8367348 C19.5595869,19.0558389 19.6781656,19.2690307 19.7867607,19.4746071 C20.2427975,20.3379101 20.5,21.0094944 20.5,21.5 C20.5,22.8807119 19.3807119,24 18,24 C16.6192881,24 15.5,22.8807119 15.5,21.5 C15.5,21.0087954 15.7562805,20.3380275 16.2106023,19.477413 C16.247046,19.4083783 16.2846192,19.3384875 16.3232632,19.267805 L16.3232632,19.267805 L16.5675089,18.8347237 C16.7908555,18.4497301 17.0295369,18.0646773 17.2681875,17.6972548 L17.2681875,17.6972548 Z M6.58862275,17.2158016 C6.78750115,16.9279251 7.2129603,16.9280967 7.41160639,17.2161335 C7.43762213,17.2538563 7.47114629,17.3031702 7.51118517,17.3629122 L7.51118517,17.3629122 L7.97004251,18.0712827 C8.12799856,18.3230165 8.28369205,18.5799203 8.43257,18.8367348 C8.55958686,19.0558389 8.67816564,19.2690307 8.78676068,19.4746071 C9.2427975,20.3379101 9.5,21.0094944 9.5,21.5 C9.5,22.8807119 8.38071187,24 7,24 C5.61928813,24 4.5,22.8807119 4.5,21.5 C4.5,21.0087954 4.75628055,20.3380275 5.21060232,19.477413 C5.24704602,19.4083783 5.28461918,19.3384875 5.32326319,19.267805 L5.32326319,19.267805 L5.56750891,18.8347237 C5.79085545,18.4497301 6.0295369,18.0646773 6.26818747,17.6972548 L6.26818747,17.6972548 Z M17.998567,18.4080928 L17.8773117,18.6011543 C17.7251024,18.8434365 17.5752601,19.0904283 17.4324911,19.3365263 C17.3919287,19.4064457 17.3523223,19.4756453 17.3137349,19.544047 L17.3137349,19.544047 L17.094941,19.9442588 C16.7160831,20.6619234 16.5,21.2274817 16.5,21.5 C16.5,22.3284271 17.1715729,23 18,23 C18.8284271,23 19.5,22.3284271 19.5,21.5 C19.5,21.2286224 19.2828567,20.6616372 18.9025471,19.9416899 C18.8685009,19.8772385 18.8333302,19.8118455 18.7970965,19.7455872 L18.7970965,19.7455872 L18.56743,19.3382652 C18.3532469,18.9687994 18.1231488,18.597191 17.8930194,18.2424081 L17.998567,18.4080928 Z M6.99856699,18.4080928 L6.8773117,18.6011543 C6.72510241,18.8434365 6.57526006,19.0904283 6.43249109,19.3365263 C6.39192869,19.4064457 6.35232234,19.4756453 6.31373493,19.544047 L6.31373493,19.544047 L6.09494103,19.9442588 C5.71608311,20.6619234 5.5,21.2274817 5.5,21.5 C5.5,22.3284271 6.17157288,23 7,23 C7.82842712,23 8.5,22.3284271 8.5,21.5 C8.5,21.2286224 8.28285673,20.6616372 7.90254708,19.9416899 C7.86850088,19.8772385 7.83333021,19.8118455 7.79709653,19.7455872 L7.79709653,19.7455872 L7.56743,19.3382652 C7.35324693,18.9687994 7.12314882,18.597191 6.89301936,18.2424081 L6.99856699,18.4080928 Z M12.0886227,13.2158016 C12.2875012,12.9279251 12.7129603,12.9280967 12.9116064,13.2161335 C12.9376221,13.2538563 12.9711463,13.3031702 13.0111852,13.3629122 L13.0111852,13.3629122 L13.4700425,14.0712827 C13.6279986,14.3230165 13.783692,14.5799203 13.93257,14.8367348 C14.0595869,15.0558389 14.1781656,15.2690307 14.2867607,15.4746071 C14.7427975,16.3379101 15,17.0094944 15,17.5 C15,18.8807119 13.8807119,20 12.5,20 C11.1192881,20 10,18.8807119 10,17.5 C10,17.0087954 10.2562805,16.3380275 10.7106023,15.477413 C10.747046,15.4083783 10.7846192,15.3384875 10.8232632,15.267805 L10.8232632,15.267805 L11.0675089,14.8347237 C11.2908555,14.4497301 11.5295369,14.0646773 11.7681875,13.6972548 L11.7681875,13.6972548 Z M12.498567,14.4080928 L12.3773117,14.6011543 C12.2251024,14.8434365 12.0752601,15.0904283 11.9324911,15.3365263 C11.8919287,15.4064457 11.8523223,15.4756453 11.8137349,15.544047 L11.8137349,15.544047 L11.594941,15.9442588 C11.2160831,16.6619234 11,17.2274817 11,17.5 C11,18.3284271 11.6715729,19 12.5,19 C13.3284271,19 14,18.3284271 14,17.5 C14,17.2286224 13.7828567,16.6616372 13.4025471,15.9416899 C13.3685009,15.8772385 13.3333302,15.8118455 13.2970965,15.7455872 L13.2970965,15.7455872 L13.06743,15.3382652 C12.8532469,14.9687994 12.6231488,14.597191 12.3930194,14.2424081 L12.498567,14.4080928 Z M17.3917898,3.38344 L17.447,3.504 L17.5049042,3.50205307 C18.5234356,3.50393013 19.4960953,3.95077735 20.1613798,4.73137785 L20.2991407,4.90371732 C20.9634688,5.79055172 21.1636458,6.9314521 20.8588099,7.97929705 L20.846,8.016 L20.8799122,8.04269651 C22.2081765,9.14843182 22.7908403,10.9282416 22.3590402,12.61473 L22.2997621,12.8249995 C21.7391204,14.6446565 20.0977469,15.9068967 18.2106466,15.9950663 L18,16 L17,16 C16.7238576,16 16.5,15.7761424 16.5,15.5 C16.5,15.2545401 16.6768752,15.0503916 16.9101244,15.0080557 L17,15 L17.9999067,15 C19.5356972,14.9997133 20.8918887,13.9982621 21.3440935,12.5305551 C21.7962983,11.0628482 21.2388626,9.47180289 19.9695317,8.60725001 C19.7712945,8.47222887 19.6968627,8.2154598 19.7921553,7.99535073 C20.1485339,7.17217906 20.0365847,6.22117004 19.4987953,5.50325648 C18.9610059,4.78534292 18.0798141,4.4105739 17.1896553,4.52118406 C16.9626842,4.54938725 16.7455113,4.41998573 16.6622811,4.2069504 C15.8184718,2.04714253 13.6004406,0.750883484 11.3045251,1.0757772 C9.0086095,1.40067091 7.23732973,3.26145509 7.02591751,5.57058677 C7.00408092,5.80909504 6.81617826,5.99862044 6.57786657,6.02250711 C4.19648748,6.2611996 2.4185742,8.32212869 2.53169506,10.7127655 C2.64138801,13.0309587 4.49202409,14.8726057 6.78388505,14.9937238 L7,15 L8,15 C8.27614237,15 8.5,15.2238576 8.5,15.5 C8.5,15.7454599 8.32312484,15.9496084 8.08987563,15.9919443 L8,16 L6.99733343,16 C4.07221639,15.9843926 1.67107152,13.6819203 1.53281269,10.7600309 C1.40164406,7.98798196 3.35076494,5.578638 6.03638407,5.08970064 L6.081,5.082 L6.09403016,4.99627123 C6.52220646,2.53163797 8.4457236,0.578084424 10.92298,0.124792106 L11.1644116,0.0856417495 C13.7525346,-0.280602073 16.2581816,1.06987895 17.3917898,3.38344 Z" id="Combined-Shape" fill="#000000" fill-rule="nonzero"></path>
    </g>
</svg>