<?xml version="1.0" encoding="UTF-8"?>
<svg width="24px" height="24px" viewBox="0 0 24 24" version="1.1" xmlns="http://www.w3.org/2000/svg" xmlns:xlink="http://www.w3.org/1999/xlink">
    <title>Weather / Weather / weather-cloud-1</title>
    <g id="Weather-/-Weather-/-weather-cloud-1" stroke="none" stroke-width="1" fill="none" fill-rule="evenodd">
        <path d="M10.6706696,3.13686342 C7.83292568,3.72852322 5.73795098,6.12965762 5.518,9.004 L5.3299277,9.02190322 C2.32329812,9.35515226 -0.015,11.9045067 -0.015,15 C-0.015,18.3219928 2.67800723,21.015 6,21.015 L19,21.015 C21.253249,21.0067827 23.2233728,19.4994473 23.8201221,17.3285324 L23.8764551,17.1035377 C24.3180588,15.1504207 23.5523848,13.1268597 21.9480815,11.9526609 L21.887,11.909 L21.9072382,11.8297972 C22.1582838,10.6709201 21.8828433,9.44995371 21.1383239,8.5060933 L20.9932672,8.33250006 C20.2462528,7.4881597 19.1791967,7.00073039 18.0587246,6.98378978 L17.992,6.984 L17.945704,6.87258726 C16.7533845,4.16927058 13.8627182,2.58877826 10.9088433,3.09177574 L10.6706696,3.13686342 Z M17.1855819,7.66662816 C17.2622124,7.88342838 17.4768289,8.02001244 17.7056811,7.99762451 C18.7226599,7.89813652 19.7203434,8.32313151 20.3531849,9.12541286 C20.9860263,9.92769421 21.1669886,10.9969209 20.8333954,11.9627674 C20.7562113,12.1862371 20.8460989,12.4332248 21.0488614,12.554812 C22.5948043,13.481842 23.3336682,15.3253632 22.855888,17.0634801 C22.3781079,18.801597 20.800752,20.0084269 18.9981758,20.0150033 L6,20.0150033 C3.23029198,20.0150033 0.985,17.769708 0.985,15 C0.985,12.230292 3.23029198,9.985 6,9.985 C6.27566938,9.985 6.49933059,9.76188006 6.49999853,9.48621149 C6.50648307,6.80995197 8.43842093,4.52684374 11.0767109,4.0775853 C13.7150008,3.62832687 16.2936989,5.14334621 17.1855819,7.66662816 Z" id="Combined-Shape" fill="#000000" fill-rule="nonzero"></path>
    </g>
</svg>