<?xml version="1.0" encoding="UTF-8"?>
<svg viewBox="0 0 24 24" version="1.1" xmlns="http://www.w3.org/2000/svg" xmlns:xlink="http://www.w3.org/1999/xlink">
    <title>Weather / Weather / weather-night-snow</title>
    <g id="Weather-/-Weather-/-weather-night-snow" stroke="none" stroke-width="1" fill="none" fill-rule="evenodd">
        <path d="M5.5,21.58 C5.90569333,21.58 6.24325557,21.9002036 6.2499002,22.3077477 C6.24995087,22.3118295 6.25,22.315909 6.25,22.32 C6.25,22.6989136 5.96409571,23.0049578 5.60083296,23.0533338 L5.5,23.06 L5.5,23.06 C5.09024973,23.06 4.75,22.7333603 4.75,22.32 L4.75011686,22.3074746 L4.75693185,22.2186055 C4.80719093,21.8544681 5.12439559,21.58 5.5,21.58 Z M9.5,21.58 C9.90569333,21.58 10.2432556,21.9002036 10.2499002,22.3077477 C10.2499509,22.3118295 10.25,22.315909 10.25,22.32 C10.25,22.6989136 9.96409571,23.0049578 9.60083296,23.0533338 L9.5,23.06 L9.5,23.06 C9.09024973,23.06 8.75,22.7333603 8.75,22.32 L8.75011686,22.3074746 L8.75693185,22.2186055 C8.80719093,21.8544681 9.12439559,21.58 9.5,21.58 Z M13.5,21.58 C13.9056933,21.58 14.2432556,21.9002036 14.2499002,22.3077477 C14.2499509,22.3118295 14.25,22.315909 14.25,22.32 C14.25,22.6989136 13.9640957,23.0049578 13.600833,23.0533338 L13.5,23.06 L13.5,23.06 C13.0902497,23.06 12.75,22.7333603 12.75,22.32 L12.7501169,22.3074746 L12.7569319,22.2186055 C12.8071909,21.8544681 13.1243956,21.58 13.5,21.58 Z M17.5,21.58 C17.9056933,21.58 18.2432556,21.9002036 18.2499002,22.3077477 C18.2499509,22.3118295 18.25,22.315909 18.25,22.32 C18.25,22.6989136 17.9640957,23.0049578 17.600833,23.0533338 L17.5,23.06 L17.5,23.06 C17.0902497,23.06 16.75,22.7333603 16.75,22.32 L16.7501169,22.3074746 L16.7569319,22.2186055 C16.8071909,21.8544681 17.1243956,21.58 17.5,21.58 Z M7.5,20.14 C7.90569333,20.14 8.24325557,20.4602036 8.2499002,20.8677477 C8.24995087,20.8718295 8.25,20.875909 8.25,20.88 C8.25,21.2589136 7.96409571,21.5649578 7.60083296,21.6133338 L7.5,21.62 L7.5,21.62 C7.09024973,21.62 6.75,21.2933603 6.75,20.88 L6.75011686,20.8674746 L6.75693185,20.7786055 C6.80719093,20.4144681 7.12439559,20.14 7.5,20.14 Z M11.5,20.14 C11.9056933,20.14 12.2432556,20.4602036 12.2499002,20.8677477 C12.2499509,20.8718295 12.25,20.875909 12.25,20.88 C12.25,21.2589136 11.9640957,21.5649578 11.600833,21.6133338 L11.5,21.62 L11.5,21.62 C11.0902497,21.62 10.75,21.2933603 10.75,20.88 L10.7501169,20.8674746 L10.7569319,20.7786055 C10.8071909,20.4144681 11.1243956,20.14 11.5,20.14 Z M15.5,20.14 C15.9056933,20.14 16.2432556,20.4602036 16.2499002,20.8677477 C16.2499509,20.8718295 16.25,20.875909 16.25,20.88 C16.25,21.2589136 15.9640957,21.5649578 15.600833,21.6133338 L15.5,21.62 L15.5,21.62 C15.0902497,21.62 14.75,21.2933603 14.75,20.88 L14.7501169,20.8674746 L14.7569319,20.7786055 C14.8071909,20.4144681 15.1243956,20.14 15.5,20.14 Z M5.5,18.7 C5.90569333,18.7 6.24325557,19.0202036 6.2499002,19.4277477 C6.24995087,19.4318295 6.25,19.435909 6.25,19.44 C6.25,19.8189136 5.96409571,20.1249578 5.60083296,20.1733338 L5.5,20.18 L5.5,20.18 C5.09024973,20.18 4.75,19.8533603 4.75,19.44 L4.75011686,19.4274746 L4.75693185,19.3386055 C4.80719093,18.9744681 5.12439559,18.7 5.5,18.7 Z M9.5,18.7 C9.90569333,18.7 10.2432556,19.0202036 10.2499002,19.4277477 C10.2499509,19.4318295 10.25,19.435909 10.25,19.44 C10.25,19.8189136 9.96409571,20.1249578 9.60083296,20.1733338 L9.5,20.18 L9.5,20.18 C9.09024973,20.18 8.75,19.8533603 8.75,19.44 L8.75011686,19.4274746 L8.75693185,19.3386055 C8.80719093,18.9744681 9.12439559,18.7 9.5,18.7 Z M13.5,18.7 C13.9056933,18.7 14.2432556,19.0202036 14.2499002,19.4277477 C14.2499509,19.4318295 14.25,19.435909 14.25,19.44 C14.25,19.8189136 13.9640957,20.1249578 13.600833,20.1733338 L13.5,20.18 L13.5,20.18 C13.0902497,20.18 12.75,19.8533603 12.75,19.44 L12.7501169,19.4274746 L12.7569319,19.3386055 C12.8071909,18.9744681 13.1243956,18.7 13.5,18.7 Z M17.5,18.7 C17.9056933,18.7 18.2432556,19.0202036 18.2499002,19.4277477 C18.2499509,19.4318295 18.25,19.435909 18.25,19.44 C18.25,19.8189136 17.9640957,20.1249578 17.600833,20.1733338 L17.5,20.18 L17.5,20.18 C17.0902497,20.18 16.75,19.8533603 16.75,19.44 L16.7501169,19.4274746 L16.7569319,19.3386055 C16.8071909,18.9744681 17.1243956,18.7 17.5,18.7 Z M15.8909309,8.03304764 L15.943,8.143 L16.006448,8.14197837 C17.0207713,8.14395577 17.9906672,8.57200159 18.6562801,9.32212274 L18.7941593,9.48775482 C19.419422,10.289052 19.6372964,11.3074189 19.4131334,12.2662905 L19.353,12.484 L19.4079392,12.5257932 C20.2012418,13.1697927 20.740716,14.0626541 20.927573,15.0527126 L20.9643894,15.282844 C21.1270961,16.5203197 20.7264197,17.7642127 19.8673153,18.6944336 C19.6799618,18.8972963 19.3636291,18.9098689 19.1607664,18.7225153 C18.9579037,18.5351618 18.9453311,18.2188291 19.1326847,18.0159664 C19.791373,17.3027519 20.0967252,16.3547914 19.9729228,15.4132047 C19.8489044,14.4699754 19.3058215,13.6215635 18.4798641,13.0856945 C18.2727078,12.9512945 18.1946897,12.6857929 18.2962053,12.4606891 C18.6473441,11.6820631 18.5372238,10.7840091 18.0057767,10.10294 C17.4689327,9.41495454 16.5839533,9.05362987 15.6882244,9.16048008 C15.4641524,9.18720931 15.2499462,9.06053619 15.16541,8.85130817 C14.3279847,6.77867045 12.1047263,5.52772019 9.79829543,5.8408694 C7.49533401,6.15354755 5.72618958,7.94169037 5.52085298,10.1502862 C5.49851695,10.390532 5.30779878,10.580557 5.06747321,10.6020182 C3.11888953,10.7760275 1.51717583,12.1368487 1.10343971,13.9590384 C0.690835678,15.776242 1.55262227,17.6433643 3.2416958,18.5760579 C3.483432,18.7095428 3.57118702,19.0137196 3.43770212,19.2554558 C3.30421721,19.497192 3.00004041,19.584947 2.7583042,19.4514621 C0.683177804,18.305593 -0.383960568,15.9935614 0.128260857,13.7376197 C0.605277563,11.6367278 2.34789187,10.0431558 4.50927268,9.66756417 L4.577,9.657 L4.59089311,9.57675087 C5.02056223,7.20359454 6.94332558,5.32629335 9.41481459,4.88886884 L9.6637576,4.84996094 C12.2510872,4.4986735 14.758518,5.79999722 15.8909309,8.03304764 Z M7.5,17.26 C7.90569333,17.26 8.24325557,17.5802036 8.2499002,17.9877477 C8.24995087,17.9918295 8.25,17.995909 8.25,18 C8.25,18.3789136 7.96409571,18.6849578 7.60083296,18.7333338 L7.5,18.74 L7.5,18.74 C7.09024973,18.74 6.75,18.4133603 6.75,18 L6.75011686,17.9874746 L6.75693185,17.8986055 C6.80719093,17.5344681 7.12439559,17.26 7.5,17.26 Z M11.5,17.26 C11.9056933,17.26 12.2432556,17.5802036 12.2499002,17.9877477 C12.2499509,17.9918295 12.25,17.995909 12.25,18 C12.25,18.3789136 11.9640957,18.6849578 11.600833,18.7333338 L11.5,18.74 L11.5,18.74 C11.0902497,18.74 10.75,18.4133603 10.75,18 L10.7501169,17.9874746 L10.7569319,17.8986055 C10.8071909,17.5344681 11.1243956,17.26 11.5,17.26 Z M15.5,17.26 C15.9056933,17.26 16.2432556,17.5802036 16.2499002,17.9877477 C16.2499509,17.9918295 16.25,17.995909 16.25,18 C16.25,18.3789136 15.9640957,18.6849578 15.600833,18.7333338 L15.5,18.74 L15.5,18.74 C15.0902497,18.74 14.75,18.4133603 14.75,18 L14.7501169,17.9874746 L14.7569319,17.8986055 C14.8071909,17.5344681 15.1243956,17.26 15.5,17.26 Z M23.7080524,0.57062166 C24.0976893,0.748920119 24.0972064,1.30268182 23.7072592,1.48030049 C21.8577886,2.32272344 20.6828483,4.10636911 20.6828483,6.06096 C20.6828483,8.01555089 21.8577886,9.79919656 23.7072592,10.6416195 C24.0969875,10.8191385 24.0977526,11.3724896 23.7085167,11.5510856 C22.8623916,11.9393195 21.9370933,12.1407829 21.0000945,12.14096 C20.7239522,12.14096 20.5000522,11.9171969 20.5,11.6410545 C20.4999478,11.3649122 20.7237631,11.1410122 20.9999055,11.14096 C21.3965988,11.140885 21.7907182,11.0982223 22.1750518,11.014564 L22.297,10.984 L22.2276313,10.9364091 C20.7127673,9.85245779 19.7642568,8.15515277 19.6878443,6.30333939 L19.6828483,6.06096 C19.6828483,4.11551843 20.6469037,2.31659053 22.2276313,1.18551086 L22.296,1.138 L22.2271491,1.12017839 C21.1352275,0.872583704 19.980884,0.961405261 18.9346467,1.38592692 L18.6754383,1.49905067 C17.225332,2.17743801 16.1789891,3.44996239 15.8300694,4.9542554 C15.7676748,5.22325638 15.4990256,5.39074395 15.2300246,5.32834936 C14.9610236,5.26595477 14.7935361,4.99730558 14.8559306,4.7283046 C15.2748662,2.92215312 16.5259842,1.40058872 18.2516958,0.59326794 C19.972547,-0.21177901 21.9800794,-0.220101545 23.7080524,0.57062166 Z" id="Combined-Shape" fill="#000000" fill-rule="nonzero"></path>
    </g>
</svg>