<?xml version="1.0" encoding="UTF-8"?>
<svg width="24px" height="24px" viewBox="0 0 24 24" version="1.1" xmlns="http://www.w3.org/2000/svg" xmlns:xlink="http://www.w3.org/1999/xlink">
    <title>Weather / Weather / weather-night-clear</title>
    <g id="Weather-/-Weather-/-weather-night-clear" stroke="none" stroke-width="1" fill="none" fill-rule="evenodd">
        <path d="M9.61563206,4.7559977 C9.95493691,4.75105379 10.2005599,5.07829992 10.1009931,5.40270589 C9.35632625,7.82895884 9.80709316,10.4646302 11.3157529,12.505507 C12.8244127,14.5463837 15.211976,15.7503337 17.722265,15.7507698 L17.722265,15.7507698 L17.848265,15.7437698 C18.1955114,15.7244784 18.4558973,16.0567975 18.3541026,16.3893484 C17.005035,20.7965902 12.5443868,23.4723509 8.02097179,22.5877716 C3.49755678,21.7031923 0.373483676,17.5441967 0.78402892,12.9534215 C1.19457416,8.36264639 5.00703674,4.82397336 9.61563206,4.7559977 Z M8.965,5.793 L8.87112726,5.80289436 C5.12204403,6.21315724 2.12217507,9.21684842 1.78005403,13.0424944 C1.41512493,17.1231834 4.1920788,20.8200684 8.21289214,21.6063611 C11.9824046,22.3435105 15.7028806,20.2991443 17.1413021,16.8127587 L17.1413021,16.8127587 L17.173,16.731 L16.8266159,16.7026888 C14.4232768,16.4553205 12.2089959,15.2488974 10.6972053,13.3423222 L10.6972053,13.3423222 L10.5116117,13.0999453 C8.9962169,11.0499575 8.42958596,8.46653225 8.9218552,5.99364535 L8.9218552,5.99364535 L8.965,5.793 Z M20.7511449,9.24986562 L20.8385058,9.25780738 L20.9254911,9.28180895 L21.0068217,9.32089689 L21.077879,9.37233471 L21.1378364,9.43430449 L21.1858674,9.50498833 L21.218191,9.57450886 L21.683,10.815 L22.9256675,11.2818751 C23.3273513,11.43261 23.355884,11.9710331 23.0114826,12.1769433 L22.9253854,12.2182307 L21.683,12.683 L21.2182307,13.9253854 C21.0676894,14.3272892 20.5290541,14.3559966 20.3230708,14.0115076 L20.2817693,13.9253854 L19.816,12.683 L18.5746146,12.2182307 C18.1728401,12.0677378 18.1439829,11.529332 18.4882601,11.3232143 L18.5743325,11.2818751 L19.816,10.815 L20.281809,9.57450886 L20.3208969,9.49317832 L20.3723347,9.422121 L20.4343045,9.36216355 L20.5049883,9.31413264 L20.5825683,9.2788549 L20.6614942,9.25780738 L20.7052413,9.25188069 L20.7511449,9.24986562 Z M20.75,11.175 L20.673191,11.3794911 C20.6326475,11.4876568 20.5562788,11.5775756 20.4581369,11.6351904 L20.3806675,11.6721249 L20.175,11.749 L20.3803854,11.8267693 C20.4886685,11.867329 20.5786719,11.9437877 20.6363001,12.04205 L20.6732307,12.1196146 L20.75,12.323 L20.8267693,12.1196146 C20.867329,12.0113315 20.9437877,11.9213281 21.04205,11.8636999 L21.1196146,11.8267693 L21.324,11.749 L21.1193325,11.6721249 C21.0111822,11.6315407 20.9212921,11.5551381 20.8637142,11.4569744 L20.826809,11.3794911 L20.75,11.175 Z M15.7512957,1.24986599 L15.8386542,1.25783409 L15.921,1.28 C15.9543596,1.29263955 15.9815117,1.30577804 16.006951,1.32097434 L16.0779928,1.37243358 L16.1379316,1.43442143 L16.1790257,1.49304897 L16.2181381,1.57436771 L17.229,4.269 L19.9257204,5.28189496 C20.3273387,5.43265712 20.3558667,5.9709974 20.0115215,6.17691912 L19.9254382,6.21821087 L17.229,7.228 L16.2181778,9.92552646 C16.0675639,10.3272556 15.5291495,10.3559505 15.3231355,10.0116113 L15.2818222,9.92552646 L14.27,7.228 L11.5745618,6.21821087 C11.1728527,6.06769081 11.1440002,5.52936782 11.4882212,5.32323859 L11.5742796,5.28189496 L14.27,4.269 L15.2818619,1.57436771 C15.2926395,1.54564043 15.305778,1.51848829 15.3209743,1.49304897 L15.3724336,1.42200716 L15.4344214,1.3620684 L15.493049,1.32097434 L15.5827103,1.27880445 L15.6613458,1.25783409 L15.7050911,1.25189421 L15.7512957,1.24986599 Z M15.75,3.174 L15.1271381,4.83363229 C15.0865823,4.9417315 15.0102417,5.03159362 14.9121491,5.08918323 L14.8347204,5.12610504 L13.174,5.749 L14.8344382,6.37178913 C14.9426626,6.41234071 15.0326237,6.48875442 15.0902453,6.58695653 L15.1271778,6.66447354 L15.75,8.324 L16.3728222,6.66447354 C16.4133942,6.55625683 16.4898248,6.4663101 16.5880378,6.40870706 L16.6655618,6.37178913 L18.325,5.749 L16.6652796,5.12610504 C16.557188,5.0855289 16.4673403,5.0091714 16.4097691,4.91106794 L16.3728619,4.83363229 L15.75,3.174 Z" id="Combined-Shape" fill="#000000" fill-rule="nonzero"></path>
    </g>
</svg>