<?xml version="1.0" encoding="UTF-8"?>
<svg width="24px" height="24px" viewBox="0 0 24 24" version="1.1" xmlns="http://www.w3.org/2000/svg" xmlns:xlink="http://www.w3.org/1999/xlink">
    <title>Weather / Weather / weather-night-cloudy</title>
    <g id="Weather-/-Weather-/-weather-night-cloudy" stroke="none" stroke-width="1" fill="none" fill-rule="evenodd">
        <path d="M9.66441157,8.09164175 C12.2525346,7.72539793 14.7581816,9.07587895 15.8917898,11.38944 L15.8917898,11.38944 L15.947,11.51 L16.0049042,11.5080531 C17.0234356,11.5099301 17.9960953,11.9567774 18.6613798,12.7373779 L18.6613798,12.7373779 L18.7991407,12.9097173 C19.4634688,13.7965517 19.6636458,14.9374521 19.3588099,15.9852971 L19.3588099,15.9852971 L19.346,16.023 L19.3796412,16.0498069 C20.7025581,17.1566218 21.2813881,18.9332114 20.8499047,20.6161773 L20.8499047,20.6161773 L20.7906879,20.8260052 C20.2100322,22.7090737 18.471744,23.9953114 16.5,24 L16.5,24 L5.49216082,24 C2.5893819,23.9544222 0.221846436,21.6606177 0.0845461288,18.7607304 C-0.0455278467,16.0134689 1.86849009,13.6186178 4.52377343,13.1024156 L4.52377343,13.1024156 L4.58,13.092 L4.59403016,13.0022712 C5.02220646,10.537638 6.9457236,8.58408442 9.42298005,8.13079211 L9.42298005,8.13079211 Z M15.1622811,12.2129504 C14.3184718,10.0531425 12.1004406,8.75688348 9.80452508,9.0817772 C7.5086095,9.40667091 5.73732973,11.2674551 5.52591751,13.5765868 C5.50425923,13.8131475 5.31914565,14.0018123 5.08303918,14.0279615 C2.72218114,14.2894298 0.971090536,16.3408016 1.08342715,18.7134366 C1.19576377,21.0860716 3.13283824,22.9628208 5.5,23.0000014 L5.5,23.0000014 L16.4988107,23.0000014 C18.0314644,22.9963558 19.3834663,21.9959487 19.8350874,20.5313399 C20.2867086,19.0667311 19.7328829,17.4786503 18.4684357,16.6125014 C18.2709698,16.4772369 18.1970612,16.2210014 18.2921553,16.0013507 C18.6485339,15.1781791 18.5365847,14.22717 17.9987953,13.5092565 C17.4610059,12.7913429 16.5798141,12.4165739 15.6896553,12.5271841 C15.4626842,12.5553872 15.2455113,12.4259857 15.1622811,12.2129504 Z M23.7198355,0.731507266 C24.1002315,0.912512563 24.1000043,1.45398685 23.7194566,1.63467286 C21.454371,2.71014708 20.0108187,4.99355954 20.0108187,7.501 C20.0108187,10.0084405 21.454371,12.2918529 23.7194566,13.3673271 C24.0997605,13.5478974 24.1003006,14.0889144 23.7203581,14.2702437 C22.8793828,14.6716031 21.9709045,14.9125315 21.0415568,14.9806618 C20.7661535,15.0008516 20.526528,14.7939601 20.5063382,14.5185568 C20.4861484,14.2431535 20.6930399,14.003528 20.9684432,13.9833382 C21.3710861,13.9538205 21.7692081,13.8868702 22.1577582,13.7838267 L22.339,13.73 L22.3276127,13.7230674 C20.3505426,12.3963052 19.1055077,10.1920508 19.0159949,7.78017647 L19.0108187,7.501 C19.0108187,5.07414579 20.1826288,2.82914732 22.102762,1.43587662 L22.338,1.271 L22.2547137,1.24602156 C20.6683726,0.800854285 18.9591274,0.973527625 17.4825423,1.74936644 L17.23866,1.88425526 C15.3863467,2.96118159 14.184809,4.88282158 14.0276532,7.01967368 C14.0073989,7.29507225 13.7677249,7.50190754 13.4923263,7.48165323 C13.2169277,7.46139891 13.0100925,7.22172489 13.0303468,6.94632632 C13.2117139,4.48027192 14.5983599,2.2625851 16.7360396,1.01974807 C18.8737193,-0.223088951 21.48701,-0.330946777 23.7198355,0.731507266 Z" id="Combined-Shape" fill="#000000" fill-rule="nonzero"></path>
    </g>
</svg>