<?xml version="1.0" encoding="UTF-8"?>
<svg width="24px" height="24px" viewBox="0 0 24 24" version="1.1" xmlns="http://www.w3.org/2000/svg" xmlns:xlink="http://www.w3.org/1999/xlink">
    <title>Weather / Weather / weather-cloud-wind-2</title>
    <g id="Weather-/-Weather-/-weather-cloud-wind-2" stroke="none" stroke-width="1" fill="none" fill-rule="evenodd">
        <path d="M10.5,21.5 C10.7761424,21.5 11,21.7238576 11,22 C11,22.2454599 10.8231248,22.4496084 10.5898756,22.4919443 L10.5,22.5 L1.5,22.5 C1.22385763,22.5 1,22.2761424 1,22 C1,21.7545401 1.17687516,21.5503916 1.41012437,21.5080557 L1.5,21.5 L10.5,21.5 Z M13.5,18.5 C13.7761424,18.5 14,18.7238576 14,19 C14,19.2454599 13.8231248,19.4496084 13.5898756,19.4919443 L13.5,19.5 L4.5,19.5 C4.22385763,19.5 4,19.2761424 4,19 C4,18.7545401 4.17687516,18.5503916 4.41012437,18.5080557 L4.5,18.5 L13.5,18.5 Z M17.8917898,4.88344 L17.947,5.004 L18.0049042,5.00205307 C19.0234356,5.00393013 19.9960953,5.45077735 20.6613798,6.23137785 L20.7991407,6.40371732 C21.4634688,7.29055172 21.6636458,8.4314521 21.3588099,9.47929705 L21.346,9.516 L21.3799122,9.54269651 C22.7081765,10.6484318 23.2908403,12.4282416 22.8590402,14.11473 L22.7997621,14.3249995 C22.2391204,16.1446565 20.5977469,17.4068967 18.7106466,17.4950663 L18.5000001,17.5 L15.5000001,17.5 C15.2238576,17.5 15.0000001,17.2761424 15.0000001,17 C15.0000001,16.7545401 15.1768752,16.5503916 15.4101244,16.5080557 L15.5000001,16.5 L18.4999067,16.5 C20.0356972,16.4997133 21.3918887,15.4982621 21.8440935,14.0305551 C22.2962983,12.5628482 21.7388626,10.9718029 20.4695317,10.10725 C20.2712945,9.97222887 20.1968627,9.7154598 20.2921553,9.49535073 C20.6485339,8.67217906 20.5365847,7.72117004 19.9987953,7.00325648 C19.4610059,6.28534292 18.5798141,5.9105739 17.6896553,6.02118406 C17.4626842,6.04938725 17.2455113,5.91998573 17.1622811,5.7069504 C16.3184718,3.54714253 14.1004406,2.25088348 11.8045251,2.5757772 C9.5086095,2.90067091 7.73732973,4.76145509 7.52591751,7.07058677 C7.50398894,7.3100997 7.31464055,7.50006263 7.07519993,7.52276718 C4.76576078,7.74175583 3.00123954,9.68046899 3.00000007,11.9990421 C3.0011852,12.6181835 3.13335234,13.2300684 3.38781827,13.7945013 C3.50131205,14.0462428 3.38924016,14.3423245 3.13749868,14.4558183 C2.8857572,14.5693121 2.58967552,14.4572402 2.47618173,14.2054987 C2.1637377,13.512464 2.00145728,12.7611658 2.00000007,11.9997328 C2.00143326,9.31768386 3.9312992,7.05241282 6.52914651,6.5888017 L6.581,6.58 L6.59403016,6.49627123 C7.02220646,4.03163797 8.9457236,2.07808442 11.42298,1.62479211 L11.6644116,1.58564175 C14.2525346,1.21939793 16.7581816,2.56987895 17.8917898,4.88344 Z M10.5,15.5 C10.7761424,15.5 11,15.7238576 11,16 C11,16.2454599 10.8231248,16.4496084 10.5898756,16.4919443 L10.5,16.5 L1.5,16.5 C1.22385763,16.5 1,16.2761424 1,16 C1,15.7545401 1.17687516,15.5503916 1.41012437,15.5080557 L1.5,15.5 L10.5,15.5 Z" id="Combined-Shape" fill="#000000" fill-rule="nonzero"></path>
    </g>
</svg>