<?xml version="1.0" encoding="UTF-8"?>
<svg width="24px" height="24px" viewBox="0 0 24 24" version="1.1" xmlns="http://www.w3.org/2000/svg" xmlns:xlink="http://www.w3.org/1999/xlink">
    <title>Weather / Weather / weather-cloud-rain</title>
    <g id="Weather-/-Weather-/-weather-cloud-rain" stroke="none" stroke-width="1" fill="none" fill-rule="evenodd">
        <path d="M7.35355339,17.8964466 C7.52711974,18.070013 7.54640489,18.3394374 7.41140884,18.5343055 L7.35355339,18.6035534 L2.35355339,23.6035534 C2.15829124,23.7988155 1.84170876,23.7988155 1.64644661,23.6035534 C1.47288026,23.429987 1.45359511,23.1605626 1.58859116,22.9656945 L1.64644661,22.8964466 L6.64644661,17.8964466 C6.84170876,17.7011845 7.15829124,17.7011845 7.35355339,17.8964466 Z M12.3535534,17.8964466 C12.5271197,18.070013 12.5464049,18.3394374 12.4114088,18.5343055 L12.3535534,18.6035534 L7.35355339,23.6035534 C7.15829124,23.7988155 6.84170876,23.7988155 6.64644661,23.6035534 C6.47288026,23.429987 6.45359511,23.1605626 6.58859116,22.9656945 L6.64644661,22.8964466 L11.6464466,17.8964466 C11.8417088,17.7011845 12.1582912,17.7011845 12.3535534,17.8964466 Z M17.3535534,17.8964466 C17.5271197,18.070013 17.5464049,18.3394374 17.4114088,18.5343055 L17.3535534,18.6035534 L12.3535534,23.6035534 C12.1582912,23.7988155 11.8417088,23.7988155 11.6464466,23.6035534 C11.4728803,23.429987 11.4535951,23.1605626 11.5885912,22.9656945 L11.6464466,22.8964466 L16.6464466,17.8964466 C16.8417088,17.7011845 17.1582912,17.7011845 17.3535534,17.8964466 Z M11.1610086,0.323067581 C13.7540869,-0.0436698676 16.2635495,1.31281308 17.3939438,3.63323913 L17.3939438,3.63323913 L17.449,3.754 L17.5059042,3.75205307 C18.5244356,3.75393013 19.4970953,4.20077735 20.1623798,4.98137785 L20.1623798,4.98137785 L20.3001407,5.15371732 C20.9644688,6.04055172 21.1646458,7.1814521 20.8598099,8.22929705 L20.8598099,8.22929705 L20.847,8.266 L20.8809468,8.2927253 C22.2093356,9.39858632 22.7919537,11.1786419 22.3599064,12.8652528 L22.3599064,12.8652528 L22.3005964,13.075537 C21.7189096,14.9626609 19.9748284,16.25 18,16.25 L18,16.25 L6.99781033,16.25 C4.0717156,16.2371807 1.66794056,13.9355382 1.5281744,11.0127553 C1.39557573,8.23985865 3.34478235,5.82903363 6.03122165,5.33974905 L6.03122165,5.33974905 L6.074,5.332 L6.08797717,5.24636261 C6.51166988,2.77626399 8.43721818,0.816412035 10.9191196,0.362281772 L10.9191196,0.362281772 Z M16.6628385,4.45581329 C15.8227065,2.2898375 13.6013558,0.987882415 11.3010444,1.31321402 C9.00073306,1.63854563 7.22755148,3.50544493 7.02102031,5.81944966 C6.99969097,6.05842656 6.8116192,6.24856505 6.57288967,6.27250479 C4.19073675,6.51138656 2.41267887,8.57362246 2.527033,10.9649903 C2.64138713,13.3563581 4.60811216,15.2395202 7,15.25 L7,15.25 L18,15.25 C19.5360265,15.25 20.8925437,14.2487293 21.3449645,12.7809732 C21.7974004,11.3131684 21.2399961,9.72189388 19.9705316,8.85725 C19.7722945,8.72222886 19.6978627,8.4654598 19.7931553,8.24535073 C20.1495339,7.42217906 20.0375847,6.47117004 19.4997953,5.75325648 C18.9620059,5.03534292 18.0808141,4.6605739 17.1906553,4.77118406 C16.9632329,4.79944332 16.745713,4.66947505 16.6628385,4.45581329 Z" id="Combined-Shape" fill="#000000" fill-rule="nonzero"></path>
    </g>
</svg>