<?xml version="1.0" encoding="UTF-8"?>
<svg viewBox="0 0 24 24" version="1.1" xmlns="http://www.w3.org/2000/svg" xmlns:xlink="http://www.w3.org/1999/xlink">
    <title>Weather / Weather / weather-sun</title>
    <g id="Weather-/-Weather-/-weather-sun" stroke="none" stroke-width="1" fill="none" fill-rule="evenodd">
        <path d="M12,20.5 C12.2454599,20.5 12.4496084,20.6768752 12.4919443,20.9101244 L12.5,21 L12.5,23 C12.5,23.2761424 12.2761424,23.5 12,23.5 C11.7545401,23.5 11.5503916,23.3231248 11.5080557,23.0898756 L11.5,23 L11.5,21 C11.5,20.7238576 11.7238576,20.5 12,20.5 Z M5.99055339,18.0104466 C6.16411974,18.184013 6.18340489,18.4534374 6.04840884,18.6483055 L5.99055339,18.7175534 L4.57555339,20.1325534 C4.38029124,20.3278155 4.06370876,20.3278155 3.86844661,20.1325534 C3.69488026,19.958987 3.67559511,19.6895626 3.81059116,19.4946945 L3.86844661,19.4254466 L5.28344661,18.0104466 C5.47870876,17.8151845 5.79529124,17.8151845 5.99055339,18.0104466 Z M18.6483055,17.9525912 L18.7175534,18.0104466 L20.1315534,19.4244466 C20.3268155,19.6197088 20.3268155,19.9362912 20.1315534,20.1315534 C19.957987,20.3051197 19.6885626,20.3244049 19.4936945,20.1894088 L19.4244466,20.1315534 L18.0104466,18.7175534 C17.8151845,18.5222912 17.8151845,18.2057088 18.0104466,18.0104466 C18.184013,17.8368803 18.4534374,17.8175951 18.6483055,17.9525912 Z M12,4.5 L12.2575319,4.50434411 C16.2904177,4.64058898 19.5,7.95386473 19.5,12 C19.5,16.1421356 16.1421356,19.4999289 11.9915677,19.4999289 L11.9915677,19.4999289 L11.7424681,19.4956559 C7.70958231,19.359411 4.50007111,16.0461353 4.50007111,11.9915677 L4.50007111,11.9915677 L4.50434411,11.7424681 C4.64058898,7.70958231 7.95386473,4.5 12,4.5 L12,4.5 Z M11.9915677,5.49992889 C8.49344515,5.49992889 5.62182987,8.28174421 5.50398791,11.7677825 L5.50398791,11.7677825 L5.5,12 C5.5,15.5065548 8.28174421,18.3781701 11.7677825,18.4960121 L11.7677825,18.4960121 L12,18.5 C15.5898509,18.5 18.5,15.5898509 18.5,12 C18.5,8.49344515 15.7182558,5.62182987 12.2322175,5.50398791 L12.2322175,5.50398791 Z M23,11.5 C23.2761424,11.5 23.5,11.7238576 23.5,12 C23.5,12.2454599 23.3231248,12.4496084 23.0898756,12.4919443 L23,12.5 L21,12.5 C20.7238576,12.5 20.5,12.2761424 20.5,12 C20.5,11.7545401 20.6768752,11.5503916 20.9101244,11.5080557 L21,11.5 L23,11.5 Z M3,11.5 C3.27614237,11.5 3.5,11.7238576 3.5,12 C3.5,12.2454599 3.32312484,12.4496084 3.08987563,12.4919443 L3,12.5 L1,12.5 C0.723857625,12.5 0.5,12.2761424 0.5,12 C0.5,11.7545401 0.676875161,11.5503916 0.910124368,11.5080557 L1,11.5 L3,11.5 Z M20.1325534,3.86944661 C20.3061197,4.04301296 20.3254049,4.31243736 20.1904088,4.5073055 L20.1325534,4.57655339 L18.7185534,5.99055339 C18.5232912,6.18581554 18.2067088,6.18581554 18.0114466,5.99055339 C17.8378803,5.81698704 17.8185951,5.54756264 17.9535912,5.3526945 L18.0114466,5.28344661 L19.4254466,3.86944661 C19.6207088,3.67418446 19.9372912,3.67418446 20.1325534,3.86944661 Z M4.5063055,3.81159116 L4.57555339,3.86944661 L5.98955339,5.28344661 C6.18481554,5.47870876 6.18481554,5.79529124 5.98955339,5.99055339 C5.81598704,6.16411974 5.54656264,6.18340489 5.3516945,6.04840884 L5.28244661,5.99055339 L3.86844661,4.57655339 C3.67318446,4.38129124 3.67318446,4.06470876 3.86844661,3.86944661 C4.04201296,3.69588026 4.31143736,3.67659511 4.5063055,3.81159116 Z M12,0.5 C12.2454599,0.5 12.4496084,0.676875161 12.4919443,0.910124368 L12.5,1 L12.5,3 C12.5,3.27614237 12.2761424,3.5 12,3.5 C11.7545401,3.5 11.5503916,3.32312484 11.5080557,3.08987563 L11.5,3 L11.5,1 C11.5,0.723857625 11.7238576,0.5 12,0.5 Z" id="Combined-Shape" fill="#000000" fill-rule="nonzero"></path>
    </g>
</svg>