<?xml version="1.0" encoding="UTF-8"?>
<svg width="24px" height="24px" viewBox="0 0 24 24" version="1.1" xmlns="http://www.w3.org/2000/svg" xmlns:xlink="http://www.w3.org/1999/xlink">
    <title>Weather / Weather / weather-cloud-thunder-heavy</title>
    <g id="Weather-/-Weather-/-weather-cloud-thunder-heavy" stroke="none" stroke-width="1" fill="none" fill-rule="evenodd">
        <path d="M7.85305876,18.1459527 C8.0268676,18.3192762 8.0465294,18.5886734 7.91180591,18.7837301 L7.85404733,18.8530588 L6.205,20.507 L7.5,20.507 C7.91638768,20.507 8.13820902,20.9773742 7.90873371,21.2958514 L7.85255927,21.3615447 L5.35255927,23.8475447 C5.15674963,24.0422578 4.84016839,24.0413689 4.64545528,23.8455593 C4.47237696,23.6715063 4.45384839,23.4020288 4.58939107,23.2075404 L4.64744073,23.1384553 L6.287,21.507 L5,21.507 C4.5845589,21.507 4.36239973,21.0384512 4.59016557,20.7197219 L4.64595267,20.6539412 L7.14595267,18.1469412 C7.34094164,17.9514063 7.65752382,17.9509637 7.85305876,18.1459527 Z M12.8530588,18.1459527 C13.0268676,18.3192762 13.0465294,18.5886734 12.9118059,18.7837301 L12.8540473,18.8530588 L11.205,20.507 L12.5,20.507 C12.9163877,20.507 13.138209,20.9773742 12.9087337,21.2958514 L12.8525593,21.3615447 L10.3525593,23.8475447 C10.1567496,24.0422578 9.84016839,24.0413689 9.64545528,23.8455593 C9.47237696,23.6715063 9.45384839,23.4020288 9.58939107,23.2075404 L9.64744073,23.1384553 L11.287,21.507 L10,21.507 C9.5845589,21.507 9.36239973,21.0384512 9.59016557,20.7197219 L9.64595267,20.6539412 L12.1459527,18.1469412 C12.3409416,17.9514063 12.6575238,17.9509637 12.8530588,18.1459527 Z M17.8530588,18.1459527 C18.0268676,18.3192762 18.0465294,18.5886734 17.9118059,18.7837301 L17.8540473,18.8530588 L16.205,20.507 L17.5,20.507 C17.9163877,20.507 18.138209,20.9773742 17.9087337,21.2958514 L17.8525593,21.3615447 L15.3525593,23.8475447 C15.1567496,24.0422578 14.8401684,24.0413689 14.6454553,23.8455593 C14.472377,23.6715063 14.4538484,23.4020288 14.5893911,23.2075404 L14.6474407,23.1384553 L16.287,21.507 L15,21.507 C14.5845589,21.507 14.3623997,21.0384512 14.5901656,20.7197219 L14.6459527,20.6539412 L17.1459527,18.1469412 C17.3409416,17.9514063 17.6575238,17.9509637 17.8530588,18.1459527 Z M11.1610086,0.0800675813 C13.7540869,-0.286669868 16.2635495,1.06981308 17.3939438,3.39023913 L17.3939438,3.39023913 L17.449,3.511 L17.5058688,3.50911081 C18.5241356,3.5111103 19.4965127,3.95784312 20.1616991,4.73817263 L20.1616991,4.73817263 L20.2994419,4.91045166 C20.9636942,5.79697219 21.1640843,6.93749495 20.8596951,7.98517492 L20.8596951,7.98517492 L20.846,8.024 L20.8818798,8.05228937 C22.2042991,9.16482084 22.782315,10.941439 22.3507428,12.6237925 L22.3507428,12.6237925 L22.2915188,12.8335409 C21.7105667,14.7167337 19.9718267,16.0028023 18,16.007 L18,16.007 L6.99781033,16.007 C4.0717156,15.9941807 1.66794056,13.6925382 1.5281744,10.7697553 C1.39557573,7.99685865 3.34478235,5.58603363 6.03122165,5.09674905 L6.03122165,5.09674905 L6.074,5.089 L6.08797717,5.00336261 C6.51166988,2.53326399 8.43721818,0.573412035 10.9191196,0.119281772 L10.9191196,0.119281772 Z M16.6628385,4.21281329 C15.8227065,2.0468375 13.6013558,0.744882415 11.3010444,1.07021402 C9.00073306,1.39554563 7.22755148,3.26244493 7.02102031,5.57644966 C6.99969097,5.81542656 6.8116192,6.00556505 6.57288967,6.02950479 C4.19073675,6.26838656 2.41267887,8.33062246 2.527033,10.7219903 C2.64138713,13.1133581 4.60811216,14.9965202 7,15.0070011 L7,15.0070011 L17.9989353,15.0070011 C19.5317502,15.0037371 20.8841035,14.0034616 21.3359551,12.538756 C21.7877429,11.0742573 21.2342453,9.48502977 19.96808,8.61156949 C19.771629,8.47604836 19.6983436,8.22057972 19.7930791,8.00152686 C20.1490464,7.17843887 20.0368935,6.22774242 19.4991655,5.51008295 C18.9614374,4.79242348 18.0805166,4.41774967 17.1905791,4.52819353 C16.9631808,4.55641433 16.7457026,4.42644836 16.6628385,4.21281329 Z" id="Combined-Shape" fill="#000000" fill-rule="nonzero"></path>
    </g>
</svg>