<?xml version="1.0" encoding="UTF-8"?>
<svg width="24px" height="24px" viewBox="0 0 24 24" version="1.1" xmlns="http://www.w3.org/2000/svg" xmlns:xlink="http://www.w3.org/1999/xlink">
    <title>Weather / Weather / weather-cloud-hail</title>
    <g id="Weather-/-Weather-/-weather-cloud-hail" stroke="none" stroke-width="1" fill="none" fill-rule="evenodd">
        <path d="M1.75,21.58 C2.15569333,21.58 2.49325557,21.9002036 2.4999002,22.3077477 C2.49994976,22.3117378 2.5,22.315863 2.5,22.32 C2.5,22.6989136 2.21409571,23.0049578 1.85083296,23.0533338 L1.75,23.06 L1.75,23.06 C1.34024973,23.06 1,22.7333603 1,22.32 L1.001,22.3070603 L1.00693185,22.2186055 C1.05719093,21.8544681 1.37439559,21.58 1.75,21.58 Z M11.75,21.58 C12.1556933,21.58 12.4932556,21.9002036 12.4999002,22.3077477 C12.4999498,22.3117378 12.5,22.315863 12.5,22.32 C12.5,22.6989136 12.2140957,23.0049578 11.850833,23.0533338 L11.75,23.06 L11.75,23.06 C11.3402497,23.06 11,22.7333603 11,22.32 L11.001,22.3070603 L11.0069319,22.2186055 C11.0571909,21.8544681 11.3743956,21.58 11.75,21.58 Z M7.75,20.62 C8.15569333,20.62 8.49325557,20.9402036 8.4999002,21.3477477 C8.49994976,21.3517378 8.5,21.355863 8.5,21.36 C8.5,21.7389136 8.21409571,22.0449578 7.85083296,22.0933338 L7.75,22.1 L7.75,22.1 C7.34024973,22.1 7,21.7733603 7,21.36 L7.001,21.3470603 L7.00693185,21.2586055 C7.05719093,20.8944681 7.37439559,20.62 7.75,20.62 Z M7.11069366,17.1737341 C7.28068245,17.3508057 7.29446627,17.6205675 7.15552225,17.8126407 L7.09626591,17.8806937 L3.59626591,21.2406937 C3.39706031,21.431931 3.08054372,21.4254715 2.88930634,21.2262659 C2.71931755,21.0491943 2.70553373,20.7794325 2.84447775,20.5873593 L2.90373409,20.5193063 L6.40373409,17.1593063 C6.60293969,16.968069 6.91945628,16.9745285 7.11069366,17.1737341 Z M17.1106937,17.1737341 C17.2806824,17.3508057 17.2944663,17.6205675 17.1555222,17.8126407 L17.0962659,17.8806937 L13.5962659,21.2406937 C13.3970603,21.431931 13.0805437,21.4254715 12.8893063,21.2262659 C12.7193176,21.0491943 12.7055337,20.7794325 12.8444778,20.5873593 L12.9037341,20.5193063 L16.4037341,17.1593063 C16.6029397,16.968069 16.9194563,16.9745285 17.1106937,17.1737341 Z M11.8606937,17.4137341 C12.0306824,17.5908057 12.0444663,17.8605675 11.9055222,18.0526407 L11.8462659,18.1206937 L9.59626591,20.2806937 C9.39706031,20.471931 9.08054372,20.4654715 8.88930634,20.2662659 C8.71931755,20.0891943 8.70553373,19.8194325 8.84447775,19.6273593 L8.90373409,19.5593063 L11.1537341,17.3993063 C11.3529397,17.208069 11.6694563,17.2145285 11.8606937,17.4137341 Z M11.6637576,0.0499609406 C14.2510872,-0.301326502 16.758518,0.999997216 17.8909309,3.23304764 L17.8909309,3.23304764 L17.943,3.343 L18.006448,3.34197837 C19.0207713,3.34395577 19.9906672,3.77200159 20.6562801,4.52212274 L20.6562801,4.52212274 L20.7941593,4.68775482 C21.4640836,5.54628755 21.6663428,6.6540074 21.35832,7.67075155 L21.35832,7.67075155 L21.353,7.684 L21.5439509,7.84295512 C22.7565805,8.91598895 23.2753284,10.5590997 22.8586411,12.1204585 L22.8586411,12.1204585 L22.7988426,12.3239804 C22.2145168,14.1438388 20.46999,15.38 18.5,15.38 L18.5,15.38 L7.49789791,15.38 C4.57629289,15.3677125 2.16871505,13.1546401 2.02822285,10.334193 C1.89505402,7.66076592 3.84352077,5.34277018 6.52212447,4.86809122 L6.52212447,4.86809122 L6.577,4.859 L6.59089311,4.77675087 C7.02056223,2.40359454 8.94332558,0.526293355 11.4148146,0.0888688395 L11.4148146,0.0888688395 Z M17.16541,4.05130817 C16.3279847,1.97867045 14.1047263,0.727720192 11.7982954,1.0408694 C9.49533401,1.35354755 7.72618958,3.14169037 7.52085298,5.35028617 C7.49863743,5.58923612 7.30978887,5.77870281 7.07091279,5.80169907 C4.68588497,6.03130233 2.91343135,8.00480882 3.02698454,10.2844427 C3.14061264,12.5655803 5.10353487,14.3699203 7.5,14.38 L7.5,14.38 L18.5,14.38 C20.040865,14.38 21.3969365,13.4190959 21.8467183,12.0182693 C22.2943864,10.6240255 21.7423885,9.11121851 20.4783699,8.28472124 C20.2722598,8.1499531 20.1949675,7.88517686 20.2962053,7.66068913 C20.6473441,6.88206312 20.5372238,5.98400912 20.0057767,5.30294004 C19.4689327,4.61495454 18.5839533,4.25362987 17.6882244,4.36048008 C17.4641524,4.38720931 17.2499462,4.26053619 17.16541,4.05130817 Z" id="Combined-Shape" fill="#000000" fill-rule="nonzero"></path>
    </g>
</svg>