<?xml version="1.0" encoding="UTF-8"?>
<svg width="24px" height="24px" viewBox="0 0 24 24" version="1.1" xmlns="http://www.w3.org/2000/svg" xmlns:xlink="http://www.w3.org/1999/xlink">
    <title>Weather / Weather / weather-night-hail</title>
    <g id="Weather-/-Weather-/-weather-night-hail" stroke="none" stroke-width="1" fill="none" fill-rule="evenodd">
        <path d="M2.75,21.58 C3.15569333,21.58 3.49325557,21.9002036 3.4999002,22.3077477 C3.49995087,22.3118295 3.5,22.315909 3.5,22.32 C3.5,22.6989136 3.21409571,23.0049578 2.85083296,23.0533338 L2.75,23.06 L2.75,23.06 C2.34024973,23.06 2,22.7333603 2,22.32 L2.00089907,22.3074746 L2.00693185,22.2186055 C2.05719093,21.8544681 2.37439559,21.58 2.75,21.58 Z M12.75,21.58 C13.1556933,21.58 13.4932556,21.9002036 13.4999002,22.3077477 C13.4999509,22.3118295 13.5,22.315909 13.5,22.32 C13.5,22.6989136 13.2140957,23.0049578 12.850833,23.0533338 L12.75,23.06 L12.75,23.06 C12.3402497,23.06 12,22.7333603 12,22.32 L12.0008991,22.3074746 L12.0069319,22.2186055 C12.0571909,21.8544681 12.3743956,21.58 12.75,21.58 Z M8.75,20.62 C9.15569333,20.62 9.49325557,20.9402036 9.4999002,21.3477477 C9.49995087,21.3518295 9.5,21.355909 9.5,21.36 C9.5,21.7389136 9.21409571,22.0449578 8.85083296,22.0933338 L8.75,22.1 L8.75,22.1 C8.34024973,22.1 8,21.7733603 8,21.36 L8.00089907,21.3474746 L8.00693185,21.2586055 C8.05719093,20.8944681 8.37439559,20.62 8.75,20.62 Z M8.11069366,17.1737341 C8.28068245,17.3508057 8.29446627,17.6205675 8.15552225,17.8126407 L8.09626591,17.8806937 L4.59626591,21.2406937 C4.39706031,21.431931 4.08054372,21.4254715 3.88930634,21.2262659 C3.71931755,21.0491943 3.70553373,20.7794325 3.84447775,20.5873593 L3.90373409,20.5193063 L7.40373409,17.1593063 C7.60293969,16.968069 7.91945628,16.9745285 8.11069366,17.1737341 Z M18.1106937,17.1737341 C18.2806824,17.3508057 18.2944663,17.6205675 18.1555222,17.8126407 L18.0962659,17.8806937 L14.5962659,21.2406937 C14.3970603,21.431931 14.0805437,21.4254715 13.8893063,21.2262659 C13.7193176,21.0491943 13.7055337,20.7794325 13.8444778,20.5873593 L13.9037341,20.5193063 L17.4037341,17.1593063 C17.6029397,16.968069 17.9194563,16.9745285 18.1106937,17.1737341 Z M13.1106937,17.1737341 C13.2806824,17.3508057 13.2944663,17.6205675 13.1555222,17.8126407 L13.0962659,17.8806937 L10.5962659,20.2806937 C10.3970603,20.471931 10.0805437,20.4654715 9.88930634,20.2662659 C9.71931755,20.0891943 9.70553373,19.8194325 9.84447775,19.6273593 L9.90373409,19.5593063 L12.4037341,17.1593063 C12.6029397,16.968069 12.9194563,16.9745285 13.1106937,17.1737341 Z M15.8909309,8.03304764 L15.943,8.143 L16.006448,8.14197837 C17.0207713,8.14395577 17.9906672,8.57200159 18.6562801,9.32212274 L18.7941593,9.48775482 C19.419422,10.289052 19.6372964,11.3074189 19.4131334,12.2662905 L19.353,12.485 L19.4037634,12.5240375 C20.3058102,13.2583893 20.8761767,14.3093611 20.9826333,15.4511074 L20.9977,15.6806001 C21.050539,17.0645867 20.4156056,18.3882214 19.2910996,19.2453364 C19.07148,19.4127337 18.7577409,19.3703992 18.5903436,19.1507796 C18.4229463,18.93116 18.4652808,18.6174209 18.6849004,18.4500236 C19.5524839,17.7887386 20.038755,16.7750177 19.998428,15.7187511 C19.9580792,14.6619129 19.3951889,13.6840041 18.4784315,13.0847616 C18.2722782,12.9500085 18.194956,12.6852023 18.2962053,12.4606891 C18.6473441,11.6820631 18.5372238,10.7840091 18.0057767,10.10294 C17.4689327,9.41495454 16.5839533,9.05362987 15.6882244,9.16048008 C15.4641524,9.18720931 15.2499462,9.06053619 15.16541,8.85130817 C14.3279847,6.77867045 12.1047263,5.52772019 9.79829543,5.8408694 C7.49533401,6.15354755 5.72618958,7.94169037 5.52085298,10.1502862 C5.49858159,10.3898368 5.30886742,10.5795632 5.06931824,10.60185 C3.12902552,10.7823681 1.53450237,12.1352865 1.11257488,13.9484343 C0.691820192,15.7565423 1.53037469,17.6219096 3.19876114,18.5737024 C3.43861709,18.7105371 3.52213231,19.0159052 3.38529762,19.2557611 C3.24846292,19.4956171 2.94309482,19.5791323 2.70323886,19.4422976 C0.654432003,18.27348 -0.38337725,15.9648698 0.138598295,13.7217857 C0.624680856,11.6329444 2.35899916,10.0496522 4.50973841,9.66904596 L4.577,9.658 L4.59089311,9.57675087 C5.02056223,7.20359454 6.94332558,5.32629335 9.41481459,4.88886884 L9.6637576,4.84996094 C12.2510872,4.4986735 14.758518,5.79999722 15.8909309,8.03304764 Z M23.7080524,0.57062166 C24.0976893,0.748920119 24.0972064,1.30268182 23.7072592,1.48030049 C21.8577886,2.32272344 20.6828483,4.10636911 20.6828483,6.06096 C20.6828483,8.01555089 21.8577886,9.79919656 23.7072592,10.6416195 C24.0973157,10.819288 24.0976575,11.3732548 23.7078204,11.5514044 C23.2808882,11.7465059 22.832828,11.8953462 22.3718793,11.995221 C22.1019993,12.0536965 21.8358145,11.8823193 21.777339,11.6124393 C21.7253608,11.372546 21.8549945,11.1355723 22.0739891,11.0448039 L22.1601207,11.017899 L22.296,10.984 L22.2276313,10.9364091 C20.7127673,9.85245779 19.7642568,8.15515277 19.6878443,6.30333939 L19.6828483,6.06096 C19.6828483,4.11551843 20.6469037,2.31659053 22.2276313,1.18551086 L22.296,1.138 L22.2271491,1.12017839 C21.1352275,0.872583704 19.980884,0.961405261 18.9346467,1.38592692 L18.6754383,1.49905067 C17.225332,2.17743801 16.1789891,3.44996239 15.8300694,4.9542554 C15.7676748,5.22325638 15.4990256,5.39074395 15.2300246,5.32834936 C14.9610236,5.26595477 14.7935361,4.99730558 14.8559306,4.7283046 C15.2748662,2.92215312 16.5259842,1.40058872 18.2516958,0.59326794 C19.972547,-0.21177901 21.9800794,-0.220101545 23.7080524,0.57062166 Z" id="Combined-Shape" fill="#000000" fill-rule="nonzero"></path>
    </g>
</svg>