<?xml version="1.0" encoding="UTF-8"?>
<svg width="24px" height="24px" viewBox="0 0 24 24" version="1.1" xmlns="http://www.w3.org/2000/svg" xmlns:xlink="http://www.w3.org/1999/xlink">
    <title>Weather / Weather / weather-cloud</title>
    <g id="Weather-/-Weather-/-weather-cloud" stroke="none" stroke-width="1" fill="none" fill-rule="evenodd">
        <path d="M12.6617436,8.05017256 C15.2539924,7.68351785 17.7628167,9.03899541 18.8937505,11.3582727 L18.8937505,11.3582727 L18.949,11.479 L19.005861,11.477417 C20.0231367,11.4801178 20.9943487,11.9266545 21.6589807,12.7061286 L21.6589807,12.7061286 L21.7966144,12.8782143 C22.4603705,13.7637185 22.6612846,14.9028752 22.3583166,15.9498633 L22.3583166,15.9498633 L22.345,15.988 L22.3807496,16.0155394 C23.7082467,17.1256173 24.2902396,18.9072795 23.8595512,20.5962517 L23.8595512,20.5962517 L23.8004215,20.8068351 C23.2204364,22.6967465 21.4793334,23.9902923 19.5,24 L19.5,24 L8.49326379,24 C5.57832012,23.9606797 3.19740836,21.6595835 3.05880138,18.7476723 C2.92748951,15.9890195 4.8516344,13.5849435 7.51865017,13.0708626 L7.51865017,13.0708626 L7.575,13.06 L7.58915356,12.9713472 C8.0135983,10.5021628 9.93880729,8.5433659 12.4199312,8.08937605 L12.4199312,8.08937605 Z M18.1629124,12.1810037 C17.3221633,10.0160599 15.1013679,8.71505896 12.8017924,9.04031717 C10.5022169,9.36557538 8.72935299,11.2314503 8.52200328,13.54464 C8.50073438,13.7819156 8.31501725,13.9712335 8.07819383,13.9970544 C5.70564206,14.2557337 3.94419617,16.3162132 4.05767042,18.7001261 C4.17114468,21.0840389 6.1203408,22.967892 8.5,23.000006 L8.5,23.000006 L19.4975463,23.000006 C21.0369664,22.9924512 22.3927844,21.9851514 22.8444258,20.5134546 C23.2960671,19.0417578 22.7386814,17.4473248 21.4685015,16.5775465 C21.2712348,16.4424646 21.197201,16.1866319 21.2918416,15.9670768 C21.6464666,15.1443887 21.5337794,14.1948359 20.996453,13.4779991 C20.4591266,12.7611623 19.5793096,12.3866345 18.6901749,12.4962435 C18.4629799,12.5242512 18.2457812,12.3943925 18.1629124,12.1810037 Z M15.1333333,6.25755618 C15.2710974,6.49687957 15.1887672,6.80256931 14.9494438,6.94033333 C14.7101204,7.07809735 14.4044307,6.99576722 14.2666667,6.75644382 C13.0241429,4.59793392 10.4862048,3.54378072 8.08005041,4.18678252 C5.673896,4.82978432 4.00013528,7.00943881 4,9.5 C4,10.4634391 4.25665094,11.4096656 4.74351147,12.2414176 C4.88300886,12.4797348 4.80289957,12.7860141 4.56458237,12.9255115 C4.32626516,13.0650089 4.01998592,12.9848996 3.88048853,12.7465824 C3.30394295,11.7616125 3,10.6410287 3,9.49997284 C3.00015987,6.55655025 4.97824073,3.98059494 7.82187776,3.22068373 C10.6655148,2.46077251 13.6648962,3.70658992 15.1333333,6.25755618 Z M1.5,9 C1.77614237,9 2,9.22385763 2,9.5 C2,9.74545989 1.82312484,9.94960837 1.58987563,9.99194433 L1.5,10 L0.5,10 C0.223857625,10 0,9.77614237 0,9.5 C0,9.25454011 0.176875161,9.05039163 0.410124368,9.00805567 L0.5,9 L1.5,9 Z M2.7843055,2.08859116 L2.85355339,2.14644661 L3.85355339,3.14644661 C4.04881554,3.34170876 4.04881554,3.65829124 3.85355339,3.85355339 C3.67998704,4.02711974 3.41056264,4.04640489 3.2156945,3.91140884 L3.14644661,3.85355339 L2.14644661,2.85355339 C1.95118446,2.65829124 1.95118446,2.34170876 2.14644661,2.14644661 C2.32001296,1.97288026 2.58943736,1.95359511 2.7843055,2.08859116 Z M16.8535534,2.14644661 C17.0271197,2.32001296 17.0464049,2.58943736 16.9114088,2.7843055 L16.8535534,2.85355339 L15.8535534,3.85355339 C15.6582912,4.04881554 15.3417088,4.04881554 15.1464466,3.85355339 C14.9728803,3.67998704 14.9535951,3.41056264 15.0885912,3.2156945 L15.1464466,3.14644661 L16.1464466,2.14644661 C16.3417088,1.95118446 16.6582912,1.95118446 16.8535534,2.14644661 Z M9.5,0 C9.74545989,0 9.94960837,0.176875161 9.99194433,0.410124368 L10,0.5 L10,1.5 C10,1.77614237 9.77614237,2 9.5,2 C9.25454011,2 9.05039163,1.82312484 9.00805567,1.58987563 L9,1.5 L9,0.5 C9,0.223857625 9.22385763,0 9.5,0 Z" id="Combined-Shape" fill="#000000" fill-rule="nonzero"></path>
    </g>
</svg>