<?xml version="1.0" encoding="UTF-8"?>
<svg  viewBox="0 0 24 24" version="1.1" xmlns="http://www.w3.org/2000/svg" xmlns:xlink="http://www.w3.org/1999/xlink">
    <title>Weather / Weather / weather-cloud-sun-wind-1</title>
    <g id="Weather-/-Weather-/-weather-cloud-sun-wind-1" stroke="none" stroke-width="1" fill="none" fill-rule="evenodd">
        <path d="M13.5,21.5 C13.7761424,21.5 14,21.7238576 14,22 C14,22.2454599 13.8231248,22.4496084 13.5898756,22.4919443 L13.5,22.5 L0.5,22.5 C0.223857625,22.5 0,22.2761424 0,22 C0,21.7545401 0.176875161,21.5503916 0.410124368,21.5080557 L0.5,21.5 L13.5,21.5 Z M16.5,19.5 C16.7761424,19.5 17,19.7238576 17,20 C17,20.2454599 16.8231248,20.4496084 16.5898756,20.4919443 L16.5,20.5 L3.5,20.5 C3.22385763,20.5 3,20.2761424 3,20 C3,19.7545401 3.17687516,19.5503916 3.41012437,19.5080557 L3.5,19.5 L16.5,19.5 Z M19.3554236,8.53803442 L19.389,8.617 L19.4053371,8.61739464 C20.2677847,8.64190584 21.0869427,9.01891505 21.6671162,9.66517195 L21.796671,9.81904981 C22.3750697,10.5520493 22.5953939,11.496618 22.4146087,12.3982706 L22.406,12.432 L22.4353283,12.4526631 C23.6557823,13.3725242 24.2387119,14.9266635 23.9100576,16.4319306 L23.859565,16.6368272 C23.3912789,18.3407052 21.8446126,19.5234712 20.0775637,19.5290001 C19.8014227,19.5298612 19.5768661,19.3067047 19.5760024,19.0305637 C19.5751388,18.7544227 19.7982953,18.5298661 20.0744363,18.5290024 C21.3924257,18.5248805 22.5460383,17.6426904 22.8953191,16.3718182 C23.2445998,15.100946 22.703882,13.7530938 21.5731233,13.075969 C21.3701163,12.9544036 21.2801195,12.7071787 21.3574685,12.4835559 C21.5982339,11.7874815 21.4678925,11.016711 21.0116398,10.438506 C20.5553871,9.86030096 19.8360579,9.55429168 19.1030769,9.62658563 C18.8733848,9.64924017 18.658033,9.51172949 18.5819481,9.29382405 C17.9285734,7.42257544 16.0200995,6.29609009 14.0661067,6.62832833 C12.112114,6.96056658 10.6831988,8.6545097 10.6849998,10.6365457 C10.6852505,10.9124464 10.4619731,11.1364068 10.1860729,11.1369988 C8.14834165,11.1413714 6.49902345,12.7950246 6.49999902,14.8327605 C6.50013171,15.1089029 6.27638133,15.3328677 6.00023899,15.3329999 C5.72409665,15.3331322 5.49999902,15.1093818 5.49999902,14.8332395 C5.49886271,12.4596506 7.25982533,10.4961654 9.54779656,10.1811214 L9.706,10.163 L9.72774519,9.97372938 C10.002453,7.87021978 11.5748312,6.13789753 13.6789493,5.68475406 L13.8984821,5.64247745 C16.1813271,5.25432429 18.4143165,6.46388051 19.3554236,8.53803442 Z M13.5,17.5 C13.7761424,17.5 14,17.7238576 14,18 C14,18.2454599 13.8231248,18.4496084 13.5898756,18.4919443 L13.5,18.5 L0.5,18.5 C0.223857625,18.5 0,18.2761424 0,18 C0,17.7545401 0.176875161,17.5503916 0.410124368,17.5080557 L0.5,17.5 L13.5,17.5 Z M4.96455339,12.0354466 C5.13811974,12.209013 5.15740489,12.4784374 5.02240884,12.6733055 L4.96455339,12.7425534 L4.25755339,13.4495534 C4.06229124,13.6448155 3.74570876,13.6448155 3.55044661,13.4495534 C3.37688026,13.275987 3.35759511,13.0065626 3.49259116,12.8116945 L3.55044661,12.7424466 L4.25744661,12.0354466 C4.45270876,11.8401845 4.76929124,11.8401845 4.96455339,12.0354466 Z M10.7855821,5.21758205 C11.0122496,5.37530467 11.0681406,5.68691448 10.9104179,5.91358205 C10.7526953,6.14024963 10.4410855,6.19614056 10.2144179,6.03841795 C9.02211259,5.2087734 7.40671339,5.35249717 6.37960528,6.37960528 C5.35249717,7.40671339 5.2087734,9.02211259 6.03841795,10.2144179 C6.19614056,10.4410855 6.14024963,10.7526953 5.91358205,10.9104179 C5.68691448,11.0681406 5.37530467,11.0122496 5.21758205,10.7855821 C4.11138932,9.19584158 4.30302102,7.04197598 5.6724985,5.6724985 C7.04197598,4.30302102 9.19584158,4.11138932 10.7855821,5.21758205 Z M3,8 C3.27614237,8 3.5,8.22385763 3.5,8.5 C3.5,8.74545989 3.32312484,8.94960837 3.08987563,8.99194433 L3,9 L2,9 C1.72385763,9 1.5,8.77614237 1.5,8.5 C1.5,8.25454011 1.67687516,8.05039163 1.91012437,8.00805567 L2,8 L3,8 Z M4.1883055,3.49259116 L4.25755339,3.55044661 L4.96455339,4.25744661 C5.15981554,4.45270876 5.15981554,4.76929124 4.96455339,4.96455339 C4.79098704,5.13811974 4.52156264,5.15740489 4.3266945,5.02240884 L4.25744661,4.96455339 L3.55044661,4.25755339 C3.35518446,4.06229124 3.35518446,3.74570876 3.55044661,3.55044661 C3.72401296,3.37688026 3.99343736,3.35759511 4.1883055,3.49259116 Z M13.4495534,3.55044661 C13.6231197,3.72401296 13.6424049,3.99343736 13.5074088,4.1883055 L13.4495534,4.25755339 L12.7425534,4.96455339 C12.5472912,5.15981554 12.2307088,5.15981554 12.0354466,4.96455339 C11.8618803,4.79098704 11.8425951,4.52156264 11.9775912,4.3266945 L12.0354466,4.25744661 L12.7424466,3.55044661 C12.9377088,3.35518446 13.2542912,3.35518446 13.4495534,3.55044661 Z M8.5,1.5 C8.74545989,1.5 8.94960837,1.67687516 8.99194433,1.91012437 L9,2 L9,3 C9,3.27614237 8.77614237,3.5 8.5,3.5 C8.25454011,3.5 8.05039163,3.32312484 8.00805567,3.08987563 L8,3 L8,2 C8,1.72385763 8.22385763,1.5 8.5,1.5 Z" id="Combined-Shape" fill="#000000" fill-rule="nonzero"></path>
    </g>
</svg>