<?xml version="1.0" encoding="UTF-8"?>
<svg width="24px" height="24px" viewBox="0 0 24 24" version="1.1" xmlns="http://www.w3.org/2000/svg" xmlns:xlink="http://www.w3.org/1999/xlink">
    <title>Weather / Weather / weather-cloud-heavy-rain</title>
    <g id="Weather-/-Weather-/-weather-cloud-heavy-rain" stroke="none" stroke-width="1" fill="none" fill-rule="evenodd">
        <path d="M6.85355339,18.1464466 C7.02711974,18.320013 7.04640489,18.5894374 6.91140884,18.7843055 L6.85355339,18.8535534 L1.85355339,23.8535534 C1.65829124,24.0488155 1.34170876,24.0488155 1.14644661,23.8535534 C0.972880258,23.679987 0.953595107,23.4105626 1.08859116,23.2156945 L1.14644661,23.1464466 L6.14644661,18.1464466 C6.34170876,17.9511845 6.65829124,17.9511845 6.85355339,18.1464466 Z M12.8535534,18.1464466 C13.0271197,18.320013 13.0464049,18.5894374 12.9114088,18.7843055 L12.8535534,18.8535534 L7.85355339,23.8535534 C7.65829124,24.0488155 7.34170876,24.0488155 7.14644661,23.8535534 C6.97288026,23.679987 6.95359511,23.4105626 7.08859116,23.2156945 L7.14644661,23.1464466 L12.1464466,18.1464466 C12.3417088,17.9511845 12.6582912,17.9511845 12.8535534,18.1464466 Z M18.8535534,18.1464466 C19.0271197,18.320013 19.0464049,18.5894374 18.9114088,18.7843055 L18.8535534,18.8535534 L13.8535534,23.8535534 C13.6582912,24.0488155 13.3417088,24.0488155 13.1464466,23.8535534 C12.9728803,23.679987 12.9535951,23.4105626 13.0885912,23.2156945 L13.1464466,23.1464466 L18.1464466,18.1464466 C18.3417088,17.9511845 18.6582912,17.9511845 18.8535534,18.1464466 Z M9.85355339,18.1464466 C10.0271197,18.320013 10.0464049,18.5894374 9.91140884,18.7843055 L9.85355339,18.8535534 L5.85355339,22.8535534 C5.65829124,23.0488155 5.34170876,23.0488155 5.14644661,22.8535534 C4.97288026,22.679987 4.95359511,22.4105626 5.08859116,22.2156945 L5.14644661,22.1464466 L9.14644661,18.1464466 C9.34170876,17.9511845 9.65829124,17.9511845 9.85355339,18.1464466 Z M15.8535534,18.1464466 C16.0271197,18.320013 16.0464049,18.5894374 15.9114088,18.7843055 L15.8535534,18.8535534 L11.8535534,22.8535534 C11.6582912,23.0488155 11.3417088,23.0488155 11.1464466,22.8535534 C10.9728803,22.679987 10.9535951,22.4105626 11.0885912,22.2156945 L11.1464466,22.1464466 L15.1464466,18.1464466 C15.3417088,17.9511845 15.6582912,17.9511845 15.8535534,18.1464466 Z M11.6610086,0.0730675813 C14.2540869,-0.293669868 16.7635495,1.06281308 17.8939438,3.38323913 L17.8939438,3.38323913 L17.949,3.504 L18.0058688,3.50211081 C19.0241356,3.5041103 19.9965127,3.95084312 20.6616991,4.73117263 L20.6616991,4.73117263 L20.7994419,4.90345166 C21.4636942,5.78997219 21.6640843,6.93049495 21.3596951,7.97817492 L21.3596951,7.97817492 L21.347,8.015 L21.3809921,8.04153921 C22.7102767,9.14721776 23.2935378,10.9278125 22.8614372,12.6150135 L22.8614372,12.6150135 L22.8021168,12.8253716 C22.2202876,14.7132164 20.4752551,16.0008506 18.5,16.0000008 L18.5,16.0000008 L7.49781026,16.0000008 C4.5717155,15.9871807 2.16794055,13.6855381 2.0281744,10.7627553 C1.89557573,7.98985865 3.84478235,5.57903363 6.53122165,5.08974905 L6.53122165,5.08974905 L6.574,5.082 L6.58797717,4.99636261 C7.01166988,2.52626399 8.93721818,0.566412035 11.4191196,0.112281772 L11.4191196,0.112281772 Z M17.1628385,4.20581329 C16.3227065,2.0398375 14.1013558,0.737882415 11.8010444,1.06321402 C9.50073306,1.38854563 7.72755148,3.25544493 7.52102031,5.56944966 C7.49969097,5.80842656 7.3116192,5.99856505 7.07288967,6.02250479 C4.69073675,6.26138656 2.91267887,8.32362246 3.027033,10.7149903 C3.14138713,13.1063581 5.10811214,14.9895202 7.5,15.0000007 L7.5,15.0000007 L18.5002152,15.0000007 C20.0366922,15.0006618 21.3939398,13.9991684 21.8464737,12.5308447 C22.2990076,11.0625209 21.7409978,9.47074995 20.4707153,8.60637505 C20.2724087,8.4714356 20.1978664,8.21468295 20.2930791,7.99452686 C20.6490464,7.17143887 20.5368935,6.22074242 19.9991655,5.50308295 C19.4614374,4.78542348 18.5805166,4.41074967 17.6905791,4.52119353 C17.4631808,4.54941433 17.2457026,4.41944836 17.1628385,4.20581329 Z" id="Combined-Shape" fill="#000000" fill-rule="nonzero"></path>
    </g>
</svg>