<?xml version="1.0" encoding="UTF-8"?>
<svg viewBox="0 0 24 24" version="1.1" xmlns="http://www.w3.org/2000/svg" xmlns:xlink="http://www.w3.org/1999/xlink">
    <title>Weather / Weather / weather-night-thunder-rain</title>
    <g id="Weather-/-Weather-/-weather-night-thunder-rain" stroke="none" stroke-width="1" fill="none" fill-rule="evenodd">
        <path d="M17.3535534,18.1464466 C17.5271197,18.320013 17.5464049,18.5894374 17.4114088,18.7843055 L17.3535534,18.8535534 L12.3535534,23.8535534 C12.1582912,24.0488155 11.8417088,24.0488155 11.6464466,23.8535534 C11.4728803,23.679987 11.4535951,23.4105626 11.5885912,23.2156945 L11.6464466,23.1464466 L16.6464466,18.1464466 C16.8417088,17.9511845 17.1582912,17.9511845 17.3535534,18.1464466 Z M7.35355339,18.1464466 C7.52711974,18.320013 7.54640489,18.5894374 7.41140884,18.7843055 L7.35355339,18.8535534 L2.35355339,23.8535534 C2.15829124,24.0488155 1.84170876,24.0488155 1.64644661,23.8535534 C1.47288026,23.679987 1.45359511,23.4105626 1.58859116,23.2156945 L1.64644661,23.1464466 L6.64644661,18.1464466 C6.84170876,17.9511845 7.15829124,17.9511845 7.35355339,18.1464466 Z M11.3535534,18.1464466 C11.5271197,18.320013 11.5464049,18.5894374 11.4114088,18.7843055 L11.3535534,18.8535534 L9.706,20.5 L11,20.5 C11.4157556,20.5 11.6378031,20.9691551 11.4094692,21.2878015 L11.3535534,21.3535534 L8.85355339,23.8535534 C8.65829124,24.0488155 8.34170876,24.0488155 8.14644661,23.8535534 C7.97288026,23.679987 7.95359511,23.4105626 8.08859116,23.2156945 L8.14644661,23.1464466 L9.792,21.5 L8.5,21.5 C8.0842444,21.5 7.86219694,21.0308449 8.09053079,20.7121985 L8.14644661,20.6464466 L10.6464466,18.1464466 C10.8417088,17.9511845 11.1582912,17.9511845 11.3535534,18.1464466 Z M15.8939438,8.38323913 L15.949,8.504 L16.0059042,8.50205307 C17.0244356,8.50393013 17.9970953,8.95077735 18.6623798,9.73137785 L18.8001407,9.90371732 C19.4644688,10.7905517 19.6646458,11.9314521 19.3598099,12.9792971 L19.347,13.016 L19.4105308,13.0676298 C20.3098249,13.829794 20.8769985,14.918006 20.9827655,16.0982983 L20.9977285,16.3355152 C21.0501344,17.7653511 20.4194569,19.1348954 19.2989065,20.0245829 C19.0826413,20.1962918 18.768126,20.1601718 18.5964171,19.9439065 C18.4247082,19.7276413 18.4608282,19.413126 18.6770935,19.2414171 C19.5486327,18.549438 20.0391596,17.4842368 19.9983995,16.3721423 C19.9576394,15.2600477 19.3904506,14.2336137 18.4705935,13.6072921 C18.2723128,13.4722848 18.1978515,13.2154857 18.2931553,12.9953507 C18.6495339,12.1721791 18.5375847,11.22117 17.9997953,10.5032565 C17.4620059,9.78534292 16.5808141,9.4105739 15.6906553,9.52118406 C15.4632329,9.54944332 15.245713,9.41947505 15.1628385,9.20581329 C14.3227065,7.0398375 12.1013558,5.73788241 9.80104441,6.06321402 C7.50073306,6.38854563 5.72755148,8.25544493 5.52102031,10.5694497 C5.49963805,10.8090195 5.31071312,10.9994176 5.07131653,11.02266 C3.1347334,11.2106779 1.53832572,12.6220251 1.11431744,14.5209516 C0.690309156,16.4198782 1.53474692,18.3762378 3.20741653,19.37016 C3.44481059,19.5112227 3.52290262,19.8180225 3.38183996,20.0554165 C3.24077731,20.2928106 2.93397752,20.3709026 2.69658347,20.22984 C0.652209493,19.0150462 -0.379881109,16.6239399 0.138351237,14.3030297 C0.622034759,12.1368468 2.35396179,10.4897855 4.50714146,10.0929692 L4.574,10.081 L4.58797717,9.99636261 C5.01166988,7.52626399 6.93721818,5.56641203 9.41911955,5.11228177 L9.66100862,5.07306758 C12.2540869,4.70633013 14.7635495,6.06281308 15.8939438,8.38323913 Z M23.7151426,0.615653495 C24.0953715,0.796896591 24.0948325,1.33828845 23.7142434,1.51877403 C21.8622962,2.39701716 20.6817942,4.26336116 20.6817942,6.313 C20.6817942,8.36263884 21.8622962,10.2289828 23.7142434,11.107226 C24.0946959,11.2876468 24.0954101,11.8287824 23.7154352,12.0102069 C22.8674414,12.4150938 21.9396133,12.6251541 20.999918,12.6250002 C20.7237757,12.6250002 20.4999547,12.4010605 20.5,12.1249181 C20.5000453,11.8487758 20.7239396,11.6249548 21.000082,11.6250001 C21.3953506,11.6250649 21.7881234,11.5809179 22.171253,11.4941774 L22.335,11.452 L22.2215858,11.3710737 C20.708485,10.2446539 19.7629424,8.48330008 19.6867741,6.56417604 L19.6817942,6.313 C19.6817942,4.29706137 20.6426981,2.43032089 22.2215858,1.25492634 L22.334,1.174 L22.2232126,1.14462689 C21.1347011,0.887424593 19.9843569,0.979693199 18.9410883,1.4207033 L18.6825997,1.53822085 C17.2315795,2.24531971 16.1818775,3.57512131 15.8310471,5.15067409 C15.771028,5.42021504 15.5038669,5.59006611 15.2343259,5.53004707 C14.964785,5.47002803 14.7949339,5.20286686 14.8549529,4.93332591 C15.2719778,3.06049902 16.5197367,1.47979146 18.2445344,0.63927771 C19.969332,-0.20123604 21.9831501,-0.20993249 23.7151426,0.615653495 Z" id="Combined-Shape" fill="#000000" fill-rule="nonzero"></path>
    </g>
</svg>