<?xml version="1.0" encoding="UTF-8"?>
<svg  viewBox="0 0 120 120" version="1.1" xmlns="http://www.w3.org/2000/svg" xmlns:xlink="http://www.w3.org/1999/xlink">
    <title>icon-level/3</title>
    <g id="icon-level/3" stroke="none" stroke-width="1" fill="none" fill-rule="evenodd">
    <circle cx="60.244" cy="60.244" r="48.244" fill="none" stroke="#ffb277" stroke-width="3"/>
        <path d="M60.244,12 C86.847,12 108.489,33.642 108.489,60.244 C108.489,86.846 86.847,108.489 60.244,108.489 C33.642,108.489 12,86.846 12,60.244 C12,33.642 33.642,12 60.244,12 Z M60.244,17 C36.399,17 17,36.399 17,60.244 C17,84.09 36.399,103.489 60.244,103.489 C84.09,103.489 103.489,84.09 103.489,60.244 C103.489,36.399 84.09,17 60.244,17 Z M79.7723,66.9187 C81.1533,66.9187 82.2723,68.0377 82.2723,69.4187 C82.2723,70.7997 81.1533,71.9187 79.7723,71.9187 L79.7723,71.9187 L40.7153,71.9187 C39.3343,71.9187 38.2153,70.7997 38.2153,69.4187 C38.2153,68.0377 39.3343,66.9187 40.7153,66.9187 L40.7153,66.9187 Z M37.8615,47.5513 C40.7985,47.5513 43.1805,49.9323 43.1805,52.8703 C43.1805,55.8083 40.7985,58.1893 37.8615,58.1893 C34.9235,58.1893 32.5415,55.8083 32.5415,52.8703 C32.5415,49.9323 34.9235,47.5513 37.8615,47.5513 Z M82.6278,47.551 C85.5658,47.551 87.9468,49.932 87.9468,52.87 C87.9468,55.808 85.5658,58.189 82.6278,58.189 C79.6898,58.189 77.3088,55.808 77.3088,52.87 C77.3088,49.932 79.6898,47.551 82.6278,47.551 Z" id="3" fill="#000000"></path>
    </g>
</svg>