<?xml version="1.0" encoding="UTF-8"?>
<svg  viewBox="0 0 120 120" version="1.1" xmlns="http://www.w3.org/2000/svg" xmlns:xlink="http://www.w3.org/1999/xlink">
    <title>icon-level/5</title>
    <g id="icon-level/5" stroke="none" stroke-width="1" fill="none" fill-rule="evenodd">
    <circle cx="60.244" cy="59" r="52" fill="none" stroke="#e68fbb" stroke-width="10"/>
        <path d="M60.245,11 C86.8897119,11 108.49,32.6002881 108.49,59.245 C108.49,79.6550231 95.8156855,97.1051499 77.9083642,104.154073 C73.07659,107.851789 67.0362936,109.9951 60.2449,109.9951 C53.4532429,109.9951 47.41289,107.851849 42.5817181,104.153485 C24.6743145,97.1051499 12,79.6550231 12,59.245 C12,32.6002881 33.6002881,11 60.245,11 Z M63.0777434,60.0616873 C61.2198066,59.5662376 59.2699934,59.5662376 57.4138186,60.0612168 C49.4572542,62.1891856 42.8643135,65.3519651 39.0614296,69.5353413 C38.9828414,69.6963968 38.8836149,69.8510504 38.7653532,69.9964277 C38.6250778,70.1688661 38.466573,70.3177403 38.2948748,70.4425325 C36.5232354,72.6964524 35.5369,75.2279292 35.5369,78.0341 C35.5369,93.4632558 45.850426,104.9951 60.2449,104.9951 C74.6387357,104.9951 84.9529,93.4628444 84.9529,78.0341 C84.9529,75.2043892 83.9499283,72.6540269 82.1508196,70.3850554 L82.1500523,70.3860941 L82.1278642,70.3688316 C82.1134476,70.3572363 82.0991371,70.3454612 82.0849359,70.3335066 C82.0689097,70.3196027 82.0532275,70.306062 82.0376758,70.2922943 C82.0091015,70.2673952 81.981001,70.2413394 81.9534026,70.2145354 C81.9441831,70.2052704 81.93473,70.1959639 81.925333,70.186567 L81.8956567,70.1565915 C81.8764747,70.1367063 81.8575587,70.116441 81.8389187,70.0957966 L81.925333,70.186567 C81.8742092,70.1354431 81.8257624,70.0826559 81.7799927,70.0283796 C81.7713094,70.0178386 81.7624746,70.0071571 81.7537109,69.9963836 L81.7223952,69.9575006 C81.7032353,69.9330248 81.6845957,69.9082742 81.6664762,69.8832637 L81.7537109,69.9963836 C81.7060369,69.9377759 81.6614564,69.8776607 81.6199492,69.8162357 C81.6032805,69.7921095 81.5876203,69.768028 81.5724171,69.743742 C81.5570832,69.7187266 81.5417843,69.6933178 81.5269841,69.6677209 C81.5160545,69.6492908 81.5055582,69.6305546 81.4953219,69.6117146 C77.7050319,65.3904057 71.0811746,62.2024829 63.0777434,60.0616873 Z M74.2609517,91.2609815 C74.8108718,92.5274542 74.2299912,93.9999316 72.9635185,94.5498517 L72.683792,94.6641235 C72.0194619,94.9208568 70.975957,95.2335153 69.5433362,95.5335973 C66.8976521,96.0877722 63.7017024,96.4167 59.9408,96.4167 C56.180306,96.4167 52.9847936,96.0877662 50.3395458,95.5335779 C48.6867587,95.1873134 47.5519642,94.8242958 46.9198623,94.5497565 C45.6534422,93.9997153 45.0727023,92.5271825 45.6227435,91.2607623 C46.1498663,90.0471097 47.524208,89.4631877 48.7524433,89.9007456 L49.0334728,90.0102477 C49.1170491,90.0404922 49.2400338,90.0828506 49.4028767,90.1349436 C49.9293305,90.3033547 50.5824753,90.4759216 51.3648042,90.6398221 C53.6717439,91.1231338 56.523669,91.4167 59.9408,91.4167 C63.3583976,91.4167 66.2108229,91.1231278 68.5182638,90.6398027 C69.1889901,90.4993098 69.7647969,90.3524482 70.2472515,90.2072923 L70.695217,90.0643412 C70.8183656,90.0225695 70.9018726,89.9917213 70.9461871,89.9741759 L70.9720815,89.9635483 C72.2385542,89.4136282 73.7110316,89.9945088 74.2609517,91.2609815 Z M17,59.245 C17,73.2768248 23.6831902,85.7479118 34.0400455,93.648736 C31.7846443,89.0708258 30.5369,83.7627691 30.5369,78.0341 C30.5369,74.6317297 31.5226823,71.5604667 33.3433589,68.8092567 L17.1486134,55.6341203 C17.0501907,56.82472 17,58.0289994 17,59.245 Z M103.343286,55.6571724 L87.1562604,68.8242972 C88.9706612,71.5716615 89.9529,74.637927 89.9529,78.0341 C89.9529,83.7626467 88.7050883,89.0706586 86.4500013,93.6492145 C96.8065732,85.7483533 103.49,73.2770732 103.49,59.245 C103.49,58.0368468 103.440455,56.8402639 103.343286,55.6571724 Z M75.5324,80.1259 C76.9131119,80.1259 78.0324,81.2451881 78.0324,82.6259 C78.0324,83.9513834 77.0008641,85.0359387 75.6967757,85.1205823 L75.5324,85.1259 L44.3504,85.1259 C42.9696881,85.1259 41.8504,84.0066119 41.8504,82.6259 C41.8504,81.3004166 42.8819359,80.2158613 44.1860243,80.1312177 L44.3504,80.1259 L75.5324,80.1259 Z M59.9408,68.834 C63.7018041,68.834 66.897854,69.1631363 69.543632,69.7176646 L70.1772799,69.8568985 C71.4904754,70.1594269 72.4160765,70.4639981 72.9640231,70.7020675 C74.2303748,71.2522663 74.8109313,72.7248714 74.2607325,73.9912231 C73.7334586,75.2048101 72.3590443,75.788561 71.1308634,75.3508502 L70.9051144,75.2616827 L70.7796964,75.2163593 C70.728027,75.1982709 70.6664755,75.1773011 70.5949858,75.1537476 L70.4802906,75.1165167 C69.9537172,74.9480037 69.3004394,74.7753335 68.517968,74.6113354 C66.210621,74.1277387 63.3582959,73.834 59.9408,73.834 C56.5237707,73.834 53.6719459,74.1277327 51.3651,74.6113159 C50.694569,74.751879 50.1189469,74.8988118 49.6366636,75.0440352 L49.4032929,75.116467 C49.1997625,75.181615 49.0585091,75.2315432 48.9786538,75.2616019 L48.9122424,75.2878372 C47.6459433,75.8381572 46.1732827,75.2577414 45.6229628,73.9914424 C45.0726428,72.7251433 45.6530586,71.2524827 46.9193576,70.7021628 L47.1990688,70.5877989 C47.8633571,70.330862 48.9067647,70.0179754 50.33925,69.7176841 C52.9845916,69.1631423 56.1802043,68.834 59.9408,68.834 Z M60.245,16 C39.5724503,16 22.2874819,30.5058641 18.0136964,49.8939905 L36.5910279,65.0057969 C37.8234501,63.8487486 39.2268703,62.7623853 40.7852229,61.7455297 C45.2635644,58.8233243 50.6280607,56.7003224 56.1237434,55.2305127 C58.8258066,54.5099624 61.6639934,54.5099624 64.3660566,55.2305127 L64.3660566,55.2305127 L65.0820859,55.4259701 C70.3265818,56.8866515 75.4206005,58.9504655 79.7041783,61.7455141 C81.2684769,62.7662241 82.6766655,63.8569638 83.9124947,65.0189249 L102.480708,49.9139917 C98.2144044,30.5158413 80.9246578,16 60.245,16 Z M37.8614,46.552 C40.7994,46.552 43.1804,48.933 43.1804,51.871 C43.1804,54.809 40.7994,57.19 37.8614,57.19 C34.9234,57.19 32.5424,54.809 32.5424,51.871 C32.5424,48.933 34.9234,46.552 37.8614,46.552 Z M82.629,46.552 C85.566,46.552 87.947,48.933 87.947,51.871 C87.947,54.809 85.566,57.19 82.629,57.19 C79.69,57.19 77.309,54.809 77.309,51.871 C77.309,48.933 79.69,46.552 82.629,46.552 Z" id="5" fill="#000000" fill-rule="nonzero"></path>
    </g>
</svg>