<?xml version="1.0" encoding="UTF-8"?>
<svg  viewBox="0 0 120 120" version="1.1" xmlns="http://www.w3.org/2000/svg" xmlns:xlink="http://www.w3.org/1999/xlink">
    <title>icon-level/4</title>
    <g id="icon-level/4" stroke="none" stroke-width="1" fill="none" fill-rule="evenodd">
    <circle cx="60.244" cy="60.244" r="48.244" fill="none" stroke="#f2807c" stroke-width="10"/>
        <path d="M60.245,12 C86.847,12 108.489,33.642 108.489,60.244 C108.489,86.846 86.847,108.489 60.245,108.489 C33.642,108.489 12,86.846 12,60.244 C12,33.642 33.642,12 60.245,12 Z M60.245,17 C36.399,17 17,36.399 17,60.244 C17,84.09 36.399,103.489 60.245,103.489 C84.09,103.489 103.489,84.09 103.489,60.244 C103.489,36.399 84.09,17 60.245,17 Z M60.2446,49.4081 C74.1166,49.4081 86.4486,58.2291 90.9286,71.3581 C91.3736,72.6651 90.6766,74.0861 89.3696,74.5321 C88.0626,74.9791 86.6416,74.2791 86.1966,72.9731 C82.4076,61.8691 71.9776,54.4081 60.2446,54.4081 C48.5116,54.4081 38.0816,61.8691 34.2936,72.9731 C33.9396,74.0121 32.9676,74.6661 31.9276,74.6661 C31.6596,74.6661 31.3876,74.6231 31.1196,74.5321 C29.8136,74.0861 29.1156,72.6651 29.5616,71.3581 C34.0406,58.2291 46.3716,49.4081 60.2446,49.4081 Z M37.8612,37.5512 C40.7992,37.5512 43.1802,39.9322 43.1802,42.8702 C43.1802,45.8082 40.7992,48.1892 37.8612,48.1892 C34.9232,48.1892 32.5422,45.8082 32.5422,42.8702 C32.5422,39.9322 34.9232,37.5512 37.8612,37.5512 Z M82.6278,37.5512 C85.5658,37.5512 87.9468,39.9322 87.9468,42.8702 C87.9468,45.8082 85.5658,48.1892 82.6278,48.1892 C79.6898,48.1892 77.3098,45.8082 77.3098,42.8702 C77.3098,39.9322 79.6898,37.5512 82.6278,37.5512 Z" id="4" fill="#000000"></path>
    </g>
</svg>