<?xml version="1.0" encoding="UTF-8"?>
<svg viewBox="0 0 120 120" version="1.1" xmlns="http://www.w3.org/2000/svg" xmlns:xlink="http://www.w3.org/1999/xlink">
    <title>icon-level/1</title>
    <g id="icon-level/1" stroke="none" stroke-width="1" fill="none" fill-rule="evenodd">
    <circle cx="60.244" cy="60.244" r="48.244" fill="none" stroke="#8bca7e" stroke-width="3"/>
        <path d="M60.245,12 C86.847,12 108.489,33.642 108.489,60.244 C108.489,86.846 86.847,108.489 60.245,108.489 C33.642,108.489 12,86.846 12,60.244 C12,33.642 33.642,12 60.245,12 Z M60.245,17 C36.399,17 17,36.399 17,60.244 C17,84.09 36.399,103.489 60.245,103.489 C84.09,103.489 103.489,84.09 103.489,60.244 C103.489,36.399 84.09,17 60.245,17 Z M90.166,56.7447 C91.547,56.7447 92.666,57.8637 92.666,59.2447 C92.666,77.1217 78.122,91.6657 60.245,91.6657 C42.367,91.6657 27.823,77.1217 27.823,59.2447 C27.823,57.8637 28.942,56.7447 30.323,56.7447 L30.323,56.7447 Z M87.553,61.7447 L32.936,61.7447 C34.203,75.6977 45.967,86.6657 60.245,86.6657 C74.522,86.6657 86.286,75.6977 87.553,61.7447 L87.553,61.7447 Z M37.8612,40.5512 C40.7992,40.5512 43.1802,42.9322 43.1802,45.8702 C43.1802,48.8082 40.7992,51.1892 37.8612,51.1892 C34.9232,51.1892 32.5422,48.8082 32.5422,45.8702 C32.5422,42.9322 34.9232,40.5512 37.8612,40.5512 Z M82.6278,40.5512 C85.5658,40.5512 87.9468,42.9322 87.9468,45.8702 C87.9468,48.8082 85.5658,51.1892 82.6278,51.1892 C79.6898,51.1892 77.3088,48.8082 77.3088,45.8702 C77.3088,42.9322 79.6898,40.5512 82.6278,40.5512 Z" id="1" fill="#000000"></path>
    </g>
</svg>