<?xml version="1.0" encoding="UTF-8"?>
<svg  viewBox="0 0 120 120" version="1.1" xmlns="http://www.w3.org/2000/svg" xmlns:xlink="http://www.w3.org/1999/xlink">
    <title>icon-level/6</title>
    <g id="icon-level/6" stroke="none" stroke-width="1" fill="none" fill-rule="evenodd">
    <circle cx="60.244" cy="60.244" r="48.244" fill="none" stroke="#bc8cc5" stroke-width="3"/>
        <path d="M60.4950309,7 C87.0980309,7 108.740031,28.643 108.740031,55.245 C108.740031,60.171 107.994031,64.925 106.616031,69.405 L106.616031,69.405 L112.825031,71.072 C117.159031,72.235 119.729031,76.692 118.565031,81.026 L118.565031,81.026 L111.855031,106.013 C110.691031,110.347 106.235031,112.916 101.901031,111.752 L101.901031,111.752 L90.2670309,108.628 C88.0190309,108.025 86.6860309,105.713 87.2890309,103.465 L87.2890309,103.465 L88.7870309,97.887 L84.9230309,96.849 C79.5070309,106.038 70.9790309,112.763 60.4950309,112.763 C50.0540309,112.763 41.5510309,106.093 36.1310309,96.96 L36.1310309,96.96 L32.1010309,98.042 L33.5560309,103.465 C34.1590309,105.713 32.8270309,108.025 30.5790309,108.628 L30.5790309,108.628 L18.9440309,111.752 C14.6100309,112.916 10.1530309,110.347 8.99003091,106.013 L8.99003091,106.013 L2.28003091,81.026 C1.11603091,76.692 3.68703091,72.235 8.02103091,71.072 L8.02103091,71.072 L14.3640309,69.368 C12.9930309,64.899 12.2510309,60.158 12.2510309,55.245 C12.2510309,28.643 33.8940309,7 60.4950309,7 Z M59.9270309,63.161 C50.6420309,63.161 43.0880309,70.715 43.0880309,80 C43.0880309,89.285 50.6420309,96.839 59.9270309,96.839 C69.2120309,96.839 76.7660309,89.285 76.7660309,80 C76.7660309,70.715 69.2120309,63.161 59.9270309,63.161 Z M59.9268309,68.1611 C66.4548309,68.1611 71.7658309,73.4721 71.7658309,80.0001 C71.7658309,86.5281 66.4548309,91.8391 59.9268309,91.8391 C53.3988309,91.8391 48.0878309,86.5281 48.0878309,80.0001 C48.0878309,73.4721 53.3988309,68.1611 59.9268309,68.1611 Z M60.4950309,12 C36.6500309,12 17.2510309,31.4 17.2510309,55.245 C17.2510309,59.709 17.9320309,64.017 19.1930309,68.072 L19.1930309,68.072 L19.6550309,67.948 C21.9030309,67.344 24.2150309,68.677 24.8180309,70.925 L24.8180309,70.925 L26.2740309,76.347 L29.6740309,75.434 C29.6430309,74.772 29.6230309,74.111 29.6230309,73.453 C29.6230309,59.122 48.2270309,52.545 56.5510309,50.32 C59.1380309,49.629 61.8540309,49.629 64.4400309,50.32 C72.7650309,52.545 91.3680309,59.122 91.3680309,73.453 C91.3680309,74.07 91.3530309,74.688 91.3250309,75.308 L91.3250309,75.308 L94.6120309,76.191 L96.0260309,70.925 C96.6300309,68.677 98.9420309,67.344 101.190031,67.948 L101.190031,67.948 L101.787031,68.108 C103.056031,64.043 103.740031,59.723 103.740031,55.245 C103.740031,31.4 84.3410309,12 60.4950309,12 Z M38.1123309,38.5519 C41.0503309,38.5519 43.4313309,40.9329 43.4313309,43.8709 C43.4313309,46.8089 41.0503309,49.1899 38.1123309,49.1899 C35.1743309,49.1899 32.7933309,46.8089 32.7933309,43.8709 C32.7933309,40.9329 35.1743309,38.5519 38.1123309,38.5519 Z M82.8789309,38.5519 C85.8169309,38.5519 88.1979309,40.9329 88.1979309,43.8709 C88.1979309,46.8089 85.8169309,49.1899 82.8789309,49.1899 C79.9409309,49.1899 77.5599309,46.8089 77.5599309,43.8709 C77.5599309,40.9329 79.9409309,38.5519 82.8789309,38.5519 Z" id="6" fill="#000000"></path>
    </g>
</svg>